<svg width="235" height="236" viewBox="0 0 235 236" fill="none" xmlns="http://www.w3.org/2000/svg">
<path d="M204.061 104.493C214.013 129.483 202.406 154.459 176.262 157.411C166.057 158.568 155.245 154.906 145.441 158.977C136.243 162.799 128.887 171.877 120.426 177.474C102.429 189.413 70.4794 197.874 53.5694 178.145C46.1622 169.503 42.5666 155.21 37.6669 145.065C32.0229 133.398 22.9766 120.816 25.8514 107.507C30.7671 84.6772 54.752 74.9476 74.4116 69.4053C84.9876 66.4187 91.0577 65.0199 96.9553 56.3879C102.406 48.3885 104.1 38.0137 115.77 36.4536C124.531 35.2818 132.749 42.5763 141.457 42.9249C151.267 43.3181 156.346 38.9169 166.527 44.1345C178.877 50.4671 180.458 60.6444 185.967 71.9031C191.476 83.1619 199.384 92.7307 204.061 104.493Z" fill="#D4F7FF" fill-opacity="0.7"/>
<ellipse cx="75.4819" cy="155.125" rx="23.6484" ry="1.71989" fill="#4F4F4F" fill-opacity="0.13"/>
<path d="M80.7225 99.9747C80.7225 99.9747 72.579 102.371 64.4589 89.2264C55.7039 75.0383 48.0879 56.9688 38.8551 60.504C29.6224 64.0392 30.9022 77.0452 37.9736 88.9988C44.1705 99.4615 61.655 119.84 87.1122 111.061L80.7225 99.9747Z" fill="#2AA3BF"/>
<path d="M86.3484 109.675L86.2815 109.714C80.5976 111.758 74.7657 111.352 68.9568 108.518C51.7235 100.092 39.7053 72.6659 38.0593 67.6162C38.0252 67.508 38.0344 67.3909 38.0848 67.2893C38.1353 67.1878 38.2231 67.1097 38.3299 67.0715C38.4396 67.0388 38.5577 67.0494 38.6598 67.1011C38.762 67.1529 38.8404 67.2418 38.8789 67.3496C40.5226 72.3609 52.3658 99.4507 69.3326 107.743C71.8772 109.08 74.6718 109.872 77.539 110.071C80.4062 110.27 83.2834 109.872 85.9883 108.9C86.042 108.881 86.099 108.872 86.156 108.875C86.213 108.878 86.2687 108.893 86.3201 108.917C86.3715 108.942 86.4175 108.977 86.4553 109.02C86.4931 109.062 86.522 109.112 86.5404 109.166C86.5737 109.26 86.5727 109.363 86.5375 109.456C86.5024 109.549 86.4354 109.627 86.3484 109.675Z" fill="white"/>
<path d="M106.232 143.961C99.4376 149.234 87.4596 156.16 77.3909 154.723C67.3221 153.285 66.0474 147.761 67.5685 144.265C69.0896 140.768 70.1015 137.199 63.0145 135.504C55.9275 133.808 44.546 131.084 36.0956 121.998C27.6452 112.912 25.0241 105.684 28.4318 100.795C31.7369 96.055 34.8846 98.7228 41.6801 104.047C48.4756 109.371 51.2699 99.8075 57.8665 98.8748C64.4631 97.942 66.7323 102.352 69.2026 105.84C71.6728 109.328 74.0269 109.325 77.0546 107.569C80.0822 105.813 84.1045 105.807 86.1149 109.273L106.232 143.961Z" fill="#FFCAC8"/>
<path d="M99.1832 131.806C99.1554 131.832 99.1224 131.851 99.0865 131.862C98.7148 131.959 89.8043 134.164 72.7832 130.406C54.6566 126.404 39.6294 113.348 39.475 113.219C39.3921 113.142 39.3423 113.036 39.3361 112.923C39.3298 112.81 39.3675 112.699 39.4413 112.613C39.5161 112.528 39.6213 112.476 39.734 112.468C39.8468 112.461 39.958 112.498 40.0437 112.571C40.1907 112.705 55.0622 125.612 72.9698 129.562C89.757 133.277 98.7784 131.057 98.8732 131.032C98.928 131.018 98.985 131.016 99.0408 131.024C99.0966 131.033 99.1502 131.052 99.1985 131.081C99.2469 131.11 99.289 131.149 99.3224 131.194C99.3559 131.24 99.3801 131.291 99.3936 131.346C99.413 131.435 99.403 131.528 99.3651 131.611C99.3272 131.694 99.2633 131.763 99.1832 131.806Z" fill="white"/>
<path d="M77.3861 131.196C77.312 131.24 77.2258 131.26 77.1396 131.253C77.0534 131.246 76.9717 131.212 76.9058 131.156C70.9631 126.411 62.8143 113.611 62.4461 113.079C62.3871 112.982 62.3679 112.866 62.3927 112.755C62.4174 112.644 62.4842 112.548 62.5788 112.485C62.6768 112.43 62.7916 112.413 62.9012 112.438C63.0108 112.462 63.1075 112.526 63.1727 112.618C63.2504 112.752 71.5867 125.841 77.4201 130.5C77.4646 130.535 77.5016 130.579 77.529 130.629C77.5564 130.679 77.5736 130.734 77.5796 130.791C77.5856 130.847 77.5804 130.905 77.5641 130.959C77.5478 131.014 77.5208 131.064 77.4847 131.109C77.4563 131.142 77.4231 131.172 77.3861 131.196V131.196Z" fill="white"/>
<path d="M82.4387 140.045C81.756 140.448 81.0502 140.811 80.3251 141.132C80.2729 141.154 80.2167 141.166 80.1599 141.167C80.103 141.168 80.0465 141.157 79.9937 141.136C79.9409 141.115 79.8927 141.084 79.852 141.044C79.8112 141.005 79.7787 140.957 79.7562 140.905C79.7337 140.853 79.7218 140.797 79.721 140.74C79.7203 140.683 79.7307 140.626 79.7518 140.574C79.7728 140.521 79.8041 140.473 79.8438 140.432C79.8834 140.391 79.9307 140.359 79.983 140.336C80.0499 140.297 87.4329 137.069 88.7328 131.991C88.7431 131.933 88.7654 131.877 88.7983 131.828C88.8311 131.779 88.8738 131.737 88.9237 131.705C88.9735 131.673 89.0295 131.651 89.088 131.642C89.1465 131.633 89.2063 131.635 89.2636 131.65C89.321 131.665 89.3747 131.692 89.4213 131.728C89.4679 131.765 89.5065 131.81 89.5346 131.863C89.5627 131.915 89.5797 131.972 89.5846 132.031C89.5895 132.09 89.5821 132.15 89.5629 132.206C88.6405 135.912 84.8638 138.639 82.4387 140.045Z" fill="white"/>
<path d="M162.317 119.372C162.317 119.372 185.322 131.151 188.994 123.046C192.821 114.608 176.978 113.435 169.242 113.014C152.711 112.1 149.471 113.616 153.358 115.371L162.317 119.372ZM143.368 120.363C140.245 117.442 143.817 117.057 159.162 123.284C166.379 126.206 180.944 132.446 174.582 139.187C168.486 145.661 150.535 127.053 150.535 127.053L143.368 120.363ZM129.159 124.011C127.212 121.328 129.981 121.554 140.816 128.537C145.89 131.814 156.134 138.699 150.313 142.935C144.699 147 133.688 130.175 133.688 130.175L129.159 124.011ZM112.314 127.808C110.361 125.125 113.136 125.351 123.965 132.334C129.038 135.611 139.29 142.496 133.462 146.732C127.837 150.769 116.822 133.99 116.822 133.99L112.314 127.808ZM147.057 115.473C145.128 119.267 143.761 115.967 145.433 99.4906C146.195 91.7605 148.103 76.0106 156.359 80.2224C164.292 84.2589 151.47 106.697 151.47 106.697L147.057 115.473ZM135.641 118.884C134.506 122.989 132.506 120.022 130.87 103.54C130.096 95.8158 128.824 80.0048 137.721 82.4854C146.302 84.8664 138.192 109.407 138.192 109.407L135.641 118.884ZM121.746 122.591C120.882 126.094 119.126 123.629 117.357 109.734C116.526 103.218 115.078 89.8731 122.69 91.7697C130.016 93.5836 123.708 114.522 123.708 114.522L121.746 122.591ZM108.957 125.185C107.728 128.577 106.242 125.94 105.959 111.926C105.828 105.363 105.8 91.9399 113.17 94.6246C120.243 97.2118 111.768 117.363 111.768 117.363L108.957 125.185ZM161.217 109.773C156.476 111.353 157.581 107.211 171.479 94.1304C177.998 88.005 191.581 75.7668 196.633 87.0176C201.49 97.8193 172.107 106.023 172.107 106.023L161.217 109.773ZM92.8389 123.063C91.3776 125.082 91.0983 122.933 94.0265 113.301C95.393 108.783 98.3441 99.6104 102.032 103.174C105.581 106.621 96.2334 118.39 96.2334 118.39L92.8389 123.063Z" fill="#46A834"/>
<path opacity="0.3" d="M162.317 119.372C162.317 119.372 185.322 131.151 188.994 123.046C192.821 114.608 176.978 113.435 169.242 113.014C152.711 112.1 149.471 113.616 153.358 115.371L162.317 119.372ZM143.368 120.363C140.245 117.442 143.817 117.057 159.162 123.284C166.379 126.206 180.944 132.446 174.582 139.187C168.486 145.661 150.535 127.053 150.535 127.053L143.368 120.363ZM129.159 124.011C127.212 121.328 129.981 121.554 140.816 128.537C145.89 131.814 156.134 138.699 150.313 142.935C144.699 147 133.688 130.175 133.688 130.175L129.159 124.011ZM112.314 127.808C110.361 125.125 113.136 125.351 123.965 132.334C129.038 135.611 139.29 142.496 133.462 146.732C127.837 150.769 116.822 133.99 116.822 133.99L112.314 127.808ZM147.057 115.473C145.128 119.267 143.761 115.967 145.433 99.4906C146.195 91.7605 148.103 76.0106 156.359 80.2224C164.292 84.2589 151.47 106.697 151.47 106.697L147.057 115.473ZM135.641 118.884C134.506 122.989 132.506 120.022 130.87 103.54C130.096 95.8158 128.824 80.0047 137.721 82.4854C146.302 84.8664 138.192 109.407 138.192 109.407L135.641 118.884ZM121.746 122.591C120.882 126.094 119.126 123.629 117.357 109.734C116.526 103.218 115.078 89.8731 122.69 91.7697C130.016 93.5836 123.708 114.522 123.708 114.522L121.746 122.591ZM108.957 125.185C107.728 128.577 106.242 125.94 105.959 111.926C105.828 105.363 105.8 91.9399 113.17 94.6246C120.243 97.2118 111.768 117.363 111.768 117.363L108.957 125.185ZM161.217 109.773C156.476 111.353 157.581 107.211 171.479 94.1304C177.998 88.005 191.581 75.7668 196.633 87.0176C201.49 97.8193 172.107 106.023 172.107 106.023L161.217 109.773ZM92.8389 123.063C91.3776 125.082 91.0983 122.933 94.0265 113.301C95.393 108.783 98.3441 99.6104 102.032 103.174C105.581 106.621 96.2334 118.39 96.2334 118.39L92.8389 123.063Z" fill="white"/>
<path d="M151.584 114.118L178.741 118.453L151.584 114.118ZM142.058 118.426L164.529 131.121L142.058 118.426ZM151.53 92.3139L145.51 116.835L151.53 92.3139ZM128.865 122.556L144.815 137.726L128.865 122.556ZM134.395 120.713L135.292 102.066L134.395 120.713ZM120.712 123.799L120.705 109.47L120.712 123.799ZM111.955 126.395L121.862 134.487L111.955 126.395ZM108.131 126.836L109.621 110.138L108.131 126.836ZM76.4994 127.129C76.5191 127.018 76.5817 126.92 76.6737 126.854C76.7657 126.789 76.8796 126.763 76.9908 126.782C92.8194 129.414 119.523 125.824 141.917 118.05C156.23 113.082 185.578 90.9699 185.875 90.733C185.962 90.6613 186.075 90.6272 186.188 90.6383C186.3 90.6494 186.404 90.7048 186.476 90.7923C186.511 90.8351 186.538 90.8845 186.554 90.9376C186.57 90.9908 186.576 91.0466 186.571 91.1018C186.565 91.1571 186.549 91.2108 186.523 91.2597C186.496 91.3086 186.461 91.3519 186.417 91.3869C186.123 91.6103 156.663 113.814 142.223 118.824C119.29 126.729 93.0679 130.284 76.8561 127.594C76.7493 127.575 76.6536 127.517 76.5876 127.431C76.5216 127.345 76.4901 127.237 76.4994 127.129V127.129ZM151.164 114.083C151.182 113.972 151.243 113.873 151.334 113.807C151.425 113.74 151.538 113.712 151.65 113.729L178.823 118.038C178.878 118.046 178.932 118.066 178.979 118.094C179.027 118.123 179.069 118.161 179.102 118.207C179.135 118.252 179.159 118.303 179.172 118.358C179.185 118.412 179.187 118.468 179.178 118.524C179.16 118.635 179.099 118.734 179.008 118.801C178.917 118.867 178.804 118.895 178.692 118.878L151.535 114.543C151.428 114.527 151.331 114.471 151.265 114.385C151.198 114.3 151.167 114.192 151.178 114.085L151.164 114.083ZM141.687 118.239C141.743 118.142 141.835 118.071 141.942 118.041C142.05 118.011 142.165 118.024 142.263 118.077L164.733 130.779C164.831 130.834 164.903 130.926 164.933 131.034C164.963 131.141 164.95 131.257 164.895 131.355C164.84 131.452 164.748 131.524 164.641 131.555C164.533 131.585 164.417 131.571 164.319 131.516L141.848 118.821C141.776 118.781 141.717 118.721 141.678 118.648C141.639 118.575 141.622 118.493 141.629 118.411C141.633 118.34 141.654 118.272 141.69 118.212L141.687 118.239ZM145.108 116.761L151.113 92.2524C151.12 92.1925 151.14 92.1348 151.171 92.083C151.202 92.0313 151.244 91.9867 151.293 91.9522C151.343 91.9177 151.399 91.8941 151.458 91.8828C151.517 91.8716 151.578 91.8731 151.637 91.8871C151.696 91.9011 151.751 91.9274 151.799 91.9642C151.847 92.001 151.886 92.0475 151.915 92.1006C151.943 92.1538 151.96 92.2124 151.964 92.2726C151.969 92.3328 151.96 92.3932 151.94 92.4499L145.934 116.959C145.916 117.069 145.855 117.168 145.764 117.233C145.673 117.298 145.56 117.325 145.45 117.307C145.339 117.289 145.241 117.227 145.176 117.136C145.11 117.046 145.084 116.933 145.102 116.822L145.108 116.761ZM128.55 122.286C128.628 122.205 128.735 122.157 128.848 122.154C128.961 122.151 129.07 122.193 129.152 122.27L145.135 137.451C145.218 137.528 145.267 137.636 145.27 137.75C145.274 137.863 145.232 137.973 145.154 138.056C145.076 138.139 144.969 138.188 144.855 138.191C144.742 138.195 144.631 138.153 144.549 138.075L128.541 122.865C128.494 122.821 128.458 122.767 128.436 122.706C128.413 122.646 128.405 122.582 128.411 122.518C128.426 122.418 128.476 122.326 128.553 122.259L128.55 122.286ZM135.309 101.693C135.421 101.7 135.526 101.751 135.6 101.835C135.675 101.919 135.714 102.029 135.708 102.141L134.821 120.755C134.804 120.858 134.749 120.952 134.667 121.017C134.585 121.083 134.483 121.116 134.378 121.111C134.273 121.106 134.174 121.062 134.099 120.989C134.025 120.915 133.979 120.817 133.973 120.712L134.863 102.065C134.87 101.953 134.921 101.848 135.005 101.773C135.089 101.698 135.199 101.66 135.311 101.666L135.309 101.693ZM120.703 109.074C120.76 109.073 120.815 109.084 120.868 109.104C120.92 109.125 120.967 109.157 121.007 109.196C121.047 109.236 121.079 109.283 121.101 109.335C121.122 109.387 121.133 109.443 121.132 109.499L121.132 123.827C121.132 123.882 121.121 123.937 121.1 123.989C121.079 124.04 121.048 124.087 121.008 124.126C120.969 124.165 120.922 124.196 120.871 124.217C120.819 124.238 120.764 124.249 120.708 124.249C120.597 124.247 120.49 124.202 120.411 124.123C120.332 124.044 120.287 123.937 120.286 123.825L120.28 109.497L120.284 109.456C120.287 109.346 120.333 109.242 120.412 109.166C120.491 109.089 120.596 109.047 120.706 109.047L120.703 109.074ZM111.623 126.157C111.695 126.069 111.798 126.014 111.91 126.002C112.023 125.99 112.135 126.023 112.223 126.094L122.134 134.153C122.219 134.226 122.272 134.329 122.283 134.441C122.293 134.552 122.26 134.664 122.19 134.752C122.119 134.84 122.016 134.895 121.904 134.907C121.791 134.919 121.679 134.886 121.591 134.815L111.68 126.756C111.626 126.711 111.584 126.652 111.557 126.587C111.53 126.521 111.52 126.45 111.526 126.38C111.53 126.288 111.566 126.2 111.626 126.13L111.623 126.157ZM109.663 109.712C109.774 109.725 109.876 109.78 109.947 109.866C110.019 109.951 110.055 110.061 110.047 110.173L108.558 126.872C108.547 126.983 108.492 127.085 108.406 127.156C108.319 127.227 108.209 127.26 108.097 127.249C108.041 127.246 107.987 127.231 107.937 127.205C107.887 127.18 107.842 127.144 107.806 127.101C107.77 127.058 107.744 127.008 107.728 126.954C107.712 126.901 107.707 126.844 107.713 126.788L109.202 110.09C109.205 110.032 109.22 109.976 109.245 109.925C109.27 109.873 109.305 109.827 109.348 109.789C109.391 109.752 109.442 109.723 109.496 109.705C109.551 109.687 109.608 109.68 109.665 109.685L109.663 109.712ZM82.5084 129.639C82.5861 129.612 90.7048 127.54 93.4199 119.17C93.455 119.063 93.5315 118.973 93.6325 118.922C93.7335 118.87 93.8508 118.861 93.9586 118.896C94.064 118.934 94.1506 119.011 94.2005 119.111C94.2503 119.212 94.2596 119.327 94.2263 119.434C91.3638 128.26 82.7913 130.438 82.7069 130.463C82.5968 130.488 82.4815 130.468 82.3855 130.409C82.2895 130.35 82.2202 130.256 82.1923 130.147L82.2056 130.011C82.2067 129.921 82.237 129.833 82.2921 129.761C82.3471 129.689 82.4239 129.637 82.5111 129.612L82.5084 129.639ZM76.4994 127.129C76.5191 127.018 76.5817 126.92 76.6737 126.854C76.7657 126.789 76.8796 126.763 76.9908 126.782C92.8194 129.414 119.523 125.824 141.917 118.05C156.23 113.082 185.578 90.9699 185.875 90.733C185.962 90.6613 186.075 90.6272 186.188 90.6383C186.3 90.6494 186.404 90.7048 186.476 90.7923C186.511 90.8351 186.538 90.8845 186.554 90.9376C186.57 90.9908 186.576 91.0466 186.571 91.1018C186.565 91.1571 186.549 91.2108 186.523 91.2597C186.496 91.3086 186.461 91.3519 186.417 91.3869C186.123 91.6103 156.663 113.814 142.223 118.824C119.29 126.729 93.0679 130.284 76.8561 127.594C76.7493 127.575 76.6536 127.517 76.5876 127.431C76.5216 127.345 76.4901 127.237 76.4994 127.129V127.129ZM151.164 114.083C151.182 113.972 151.243 113.873 151.334 113.807C151.425 113.74 151.538 113.712 151.65 113.729L178.823 118.038C178.878 118.046 178.932 118.066 178.979 118.094C179.027 118.123 179.069 118.161 179.102 118.207C179.135 118.252 179.159 118.303 179.172 118.358C179.185 118.412 179.187 118.468 179.178 118.524C179.16 118.635 179.099 118.734 179.008 118.801C178.917 118.867 178.804 118.895 178.692 118.878L151.535 114.543C151.428 114.527 151.331 114.471 151.265 114.385C151.198 114.3 151.167 114.192 151.178 114.085L151.164 114.083ZM141.687 118.239C141.743 118.142 141.835 118.071 141.942 118.041C142.05 118.011 142.165 118.024 142.263 118.077L164.733 130.779C164.831 130.834 164.903 130.926 164.933 131.034C164.963 131.141 164.95 131.257 164.895 131.355C164.84 131.452 164.748 131.524 164.641 131.555C164.533 131.585 164.417 131.571 164.319 131.516L141.848 118.821C141.776 118.781 141.717 118.721 141.678 118.648C141.639 118.575 141.622 118.493 141.629 118.411C141.633 118.34 141.654 118.272 141.69 118.212L141.687 118.239ZM145.108 116.761L151.113 92.2524C151.12 92.1925 151.14 92.1348 151.171 92.083C151.202 92.0313 151.244 91.9867 151.293 91.9522C151.343 91.9177 151.399 91.8941 151.458 91.8828C151.517 91.8716 151.578 91.8731 151.637 91.8871C151.696 91.9011 151.751 91.9274 151.799 91.9642C151.847 92.001 151.886 92.0475 151.915 92.1006C151.943 92.1538 151.96 92.2124 151.964 92.2726C151.969 92.3328 151.96 92.3932 151.94 92.4499L145.934 116.959C145.916 117.069 145.855 117.168 145.764 117.233C145.673 117.298 145.56 117.325 145.45 117.307C145.339 117.289 145.241 117.227 145.176 117.136C145.11 117.046 145.084 116.933 145.102 116.822L145.108 116.761ZM128.55 122.286C128.628 122.205 128.735 122.157 128.848 122.154C128.961 122.151 129.07 122.193 129.152 122.27L145.135 137.451C145.176 137.489 145.209 137.535 145.233 137.587C145.256 137.638 145.268 137.693 145.27 137.75C145.272 137.806 145.263 137.862 145.243 137.914C145.223 137.967 145.193 138.015 145.154 138.056C145.116 138.097 145.069 138.13 145.018 138.153C144.967 138.177 144.911 138.189 144.855 138.191C144.799 138.193 144.743 138.183 144.69 138.164C144.638 138.144 144.59 138.114 144.549 138.075L128.541 122.865C128.494 122.821 128.458 122.767 128.436 122.706C128.413 122.646 128.405 122.582 128.411 122.518C128.426 122.418 128.476 122.326 128.553 122.259L128.55 122.286ZM135.309 101.693C135.421 101.7 135.526 101.751 135.6 101.835C135.675 101.919 135.714 102.029 135.708 102.141L134.821 120.755C134.804 120.858 134.749 120.952 134.667 121.017C134.585 121.083 134.483 121.116 134.378 121.111C134.273 121.106 134.174 121.062 134.099 120.989C134.025 120.915 133.979 120.817 133.973 120.712L134.863 102.065C134.87 101.953 134.921 101.848 135.005 101.773C135.089 101.698 135.199 101.66 135.311 101.666L135.309 101.693ZM120.703 109.074C120.76 109.073 120.815 109.084 120.868 109.104C120.92 109.125 120.967 109.157 121.007 109.196C121.047 109.236 121.079 109.283 121.101 109.335C121.122 109.387 121.133 109.443 121.132 109.499L121.132 123.827C121.132 123.882 121.121 123.937 121.1 123.989C121.079 124.04 121.048 124.087 121.008 124.126C120.969 124.165 120.922 124.196 120.871 124.217C120.819 124.238 120.764 124.249 120.708 124.249C120.597 124.247 120.49 124.202 120.411 124.123C120.332 124.044 120.287 123.937 120.286 123.825L120.28 109.497L120.284 109.456C120.287 109.346 120.333 109.242 120.412 109.166C120.491 109.089 120.596 109.047 120.706 109.047L120.703 109.074ZM111.623 126.157C111.695 126.069 111.798 126.014 111.91 126.002C112.023 125.99 112.135 126.023 112.223 126.094L122.134 134.153C122.219 134.226 122.272 134.329 122.283 134.441C122.293 134.552 122.26 134.664 122.19 134.752C122.119 134.84 122.016 134.895 121.904 134.907C121.791 134.919 121.679 134.886 121.591 134.815L111.68 126.756C111.626 126.711 111.584 126.652 111.557 126.587C111.53 126.521 111.52 126.45 111.526 126.38C111.53 126.288 111.566 126.2 111.626 126.13L111.623 126.157ZM109.663 109.712C109.774 109.725 109.876 109.78 109.947 109.866C110.019 109.951 110.055 110.061 110.047 110.173L108.558 126.872C108.547 126.983 108.492 127.085 108.406 127.156C108.319 127.227 108.209 127.26 108.097 127.249C108.041 127.246 107.987 127.231 107.937 127.205C107.887 127.18 107.842 127.144 107.806 127.101C107.77 127.058 107.744 127.008 107.728 126.954C107.712 126.901 107.707 126.844 107.713 126.788L109.202 110.09C109.205 110.032 109.22 109.976 109.245 109.925C109.27 109.873 109.305 109.827 109.348 109.789C109.391 109.752 109.442 109.723 109.496 109.705C109.551 109.687 109.608 109.68 109.665 109.685L109.663 109.712ZM82.5084 129.639C82.5861 129.612 90.7048 127.54 93.4199 119.17C93.455 119.063 93.5315 118.973 93.6325 118.922C93.7335 118.87 93.8508 118.861 93.9586 118.896C94.064 118.934 94.1506 119.011 94.2005 119.111C94.2503 119.212 94.2596 119.327 94.2263 119.434C91.3638 128.26 82.7913 130.438 82.7069 130.463C82.5968 130.488 82.4815 130.468 82.3855 130.409C82.2895 130.35 82.2202 130.256 82.1923 130.147L82.2056 130.011C82.2067 129.921 82.237 129.833 82.2921 129.761C82.3471 129.689 82.4239 129.637 82.5111 129.612L82.5084 129.639Z" fill="#46A834"/>
<path opacity="0.2" d="M76.4994 127.129C76.5191 127.018 76.5817 126.92 76.6737 126.854C76.7657 126.789 76.8796 126.763 76.9908 126.782C92.8194 129.414 119.523 125.824 141.917 118.05C156.23 113.082 185.578 90.9699 185.875 90.733C185.962 90.6613 186.075 90.6272 186.188 90.6383C186.3 90.6494 186.404 90.7048 186.476 90.7923C186.511 90.8351 186.538 90.8845 186.554 90.9376C186.57 90.9908 186.576 91.0466 186.571 91.1018C186.565 91.1571 186.549 91.2108 186.523 91.2597C186.496 91.3086 186.461 91.3519 186.417 91.387C186.123 91.6103 156.663 113.814 142.223 118.824C119.29 126.729 93.0679 130.284 76.8561 127.594C76.7493 127.575 76.6535 127.517 76.5875 127.431C76.5216 127.345 76.4901 127.237 76.4994 127.129ZM151.164 114.083C151.182 113.972 151.243 113.873 151.334 113.807C151.425 113.74 151.538 113.712 151.65 113.729L178.823 118.038C178.878 118.047 178.932 118.066 178.979 118.094C179.027 118.123 179.069 118.161 179.102 118.207C179.135 118.252 179.159 118.303 179.172 118.358C179.185 118.412 179.187 118.468 179.178 118.524C179.16 118.635 179.099 118.734 179.008 118.801C178.917 118.867 178.804 118.895 178.692 118.878L151.535 114.543C151.428 114.527 151.331 114.471 151.265 114.385C151.198 114.3 151.167 114.192 151.178 114.085L151.164 114.083ZM141.687 118.239C141.743 118.142 141.835 118.071 141.942 118.041C142.05 118.011 142.165 118.024 142.263 118.077L164.733 130.779C164.831 130.834 164.903 130.926 164.933 131.034C164.963 131.141 164.95 131.257 164.895 131.355C164.84 131.452 164.748 131.524 164.641 131.555C164.533 131.585 164.417 131.571 164.319 131.516L141.848 118.821C141.776 118.781 141.717 118.721 141.678 118.648C141.639 118.575 141.622 118.493 141.629 118.411C141.633 118.34 141.654 118.272 141.69 118.212L141.687 118.239ZM145.108 116.761L151.113 92.2524C151.12 92.1925 151.14 92.1348 151.171 92.083C151.202 92.0313 151.244 91.9867 151.293 91.9522C151.343 91.9177 151.399 91.8941 151.458 91.8828C151.517 91.8716 151.578 91.8731 151.637 91.8871C151.696 91.9011 151.751 91.9274 151.799 91.9642C151.847 92.001 151.886 92.0475 151.915 92.1007C151.943 92.1538 151.96 92.2124 151.964 92.2726C151.969 92.3328 151.96 92.3932 151.94 92.4499L145.934 116.959C145.916 117.069 145.855 117.168 145.764 117.233C145.673 117.298 145.56 117.325 145.45 117.307C145.339 117.289 145.241 117.227 145.176 117.136C145.11 117.046 145.084 116.933 145.102 116.822L145.108 116.761ZM128.55 122.286C128.628 122.205 128.735 122.157 128.848 122.154C128.961 122.151 129.07 122.193 129.152 122.27L145.135 137.451C145.218 137.528 145.267 137.636 145.27 137.75C145.274 137.863 145.232 137.973 145.154 138.056C145.076 138.139 144.969 138.188 144.855 138.191C144.742 138.195 144.631 138.153 144.549 138.075L128.541 122.865C128.494 122.821 128.458 122.767 128.436 122.706C128.413 122.646 128.405 122.582 128.411 122.518C128.426 122.418 128.476 122.326 128.553 122.259L128.55 122.286ZM135.309 101.693C135.421 101.7 135.526 101.751 135.6 101.835C135.675 101.919 135.714 102.029 135.708 102.141L134.821 120.755C134.804 120.858 134.749 120.952 134.667 121.017C134.585 121.083 134.483 121.116 134.378 121.111C134.273 121.106 134.174 121.062 134.099 120.989C134.025 120.915 133.979 120.817 133.973 120.712L134.863 102.065C134.87 101.953 134.921 101.848 135.005 101.773C135.089 101.698 135.199 101.66 135.311 101.666L135.309 101.693ZM120.703 109.074C120.76 109.073 120.815 109.084 120.868 109.104C120.92 109.125 120.967 109.157 121.007 109.196C121.047 109.236 121.079 109.283 121.101 109.335C121.122 109.387 121.133 109.443 121.132 109.499L121.132 123.827C121.132 123.882 121.121 123.937 121.1 123.989C121.079 124.04 121.048 124.087 121.008 124.126C120.969 124.165 120.922 124.196 120.871 124.217C120.819 124.238 120.764 124.249 120.708 124.249C120.597 124.247 120.49 124.202 120.411 124.123C120.332 124.044 120.287 123.937 120.286 123.825L120.28 109.497L120.284 109.456C120.287 109.346 120.333 109.242 120.412 109.166C120.491 109.089 120.596 109.047 120.706 109.047L120.703 109.074ZM111.623 126.157C111.695 126.069 111.798 126.014 111.91 126.002C112.023 125.99 112.135 126.023 112.223 126.094L122.134 134.153C122.219 134.226 122.272 134.329 122.283 134.441C122.293 134.552 122.26 134.664 122.19 134.752C122.119 134.84 122.016 134.895 121.904 134.907C121.791 134.919 121.679 134.886 121.591 134.815L111.68 126.756C111.626 126.711 111.584 126.652 111.557 126.587C111.53 126.521 111.52 126.45 111.526 126.38C111.53 126.288 111.566 126.2 111.626 126.13L111.623 126.157ZM109.663 109.712C109.774 109.725 109.876 109.78 109.947 109.866C110.019 109.951 110.055 110.061 110.047 110.173L108.558 126.872C108.547 126.983 108.492 127.085 108.406 127.156C108.319 127.227 108.209 127.26 108.097 127.249C108.041 127.246 107.987 127.231 107.937 127.205C107.887 127.18 107.842 127.144 107.806 127.101C107.77 127.058 107.744 127.008 107.728 126.954C107.712 126.901 107.707 126.844 107.713 126.788L109.202 110.09C109.205 110.032 109.22 109.976 109.245 109.925C109.27 109.873 109.305 109.827 109.348 109.789C109.391 109.752 109.442 109.723 109.496 109.705C109.551 109.687 109.608 109.68 109.665 109.685L109.663 109.712ZM82.5084 129.639C82.5861 129.612 90.7048 127.54 93.4199 119.17C93.455 119.063 93.5315 118.973 93.6325 118.922C93.7335 118.87 93.8508 118.861 93.9586 118.896C94.064 118.934 94.1506 119.011 94.2005 119.111C94.2503 119.212 94.2596 119.327 94.2263 119.434C91.3638 128.26 82.7913 130.438 82.7069 130.463C82.5968 130.488 82.4815 130.468 82.3855 130.409C82.2895 130.35 82.2202 130.256 82.1923 130.147L82.2056 130.011C82.2067 129.921 82.237 129.833 82.2921 129.761C82.3471 129.689 82.4239 129.637 82.5111 129.612L82.5084 129.639ZM76.4994 127.129C76.5191 127.018 76.5817 126.92 76.6737 126.854C76.7657 126.789 76.8796 126.763 76.9908 126.782C92.8194 129.414 119.523 125.824 141.917 118.05C156.23 113.082 185.578 90.9699 185.875 90.733C185.962 90.6613 186.075 90.6272 186.188 90.6383C186.3 90.6494 186.404 90.7048 186.476 90.7923C186.511 90.8351 186.538 90.8845 186.554 90.9376C186.57 90.9908 186.576 91.0466 186.571 91.1018C186.565 91.1571 186.549 91.2108 186.523 91.2597C186.496 91.3086 186.461 91.3519 186.417 91.387C186.123 91.6103 156.663 113.814 142.223 118.824C119.29 126.729 93.0679 130.284 76.8561 127.594C76.7493 127.575 76.6535 127.517 76.5875 127.431C76.5216 127.345 76.4901 127.237 76.4994 127.129ZM151.164 114.083C151.182 113.972 151.243 113.873 151.334 113.807C151.425 113.74 151.538 113.712 151.65 113.729L178.823 118.038C178.878 118.047 178.932 118.066 178.979 118.094C179.027 118.123 179.069 118.161 179.102 118.207C179.135 118.252 179.159 118.303 179.172 118.358C179.185 118.412 179.187 118.468 179.178 118.524C179.16 118.635 179.099 118.734 179.008 118.801C178.917 118.867 178.804 118.895 178.692 118.878L151.535 114.543C151.428 114.527 151.331 114.471 151.265 114.385C151.198 114.3 151.167 114.192 151.178 114.085L151.164 114.083ZM141.687 118.239C141.743 118.142 141.835 118.071 141.942 118.041C142.05 118.011 142.165 118.024 142.263 118.077L164.733 130.779C164.831 130.834 164.903 130.926 164.933 131.034C164.963 131.141 164.95 131.257 164.895 131.355C164.84 131.452 164.748 131.524 164.641 131.555C164.533 131.585 164.417 131.571 164.319 131.516L141.848 118.821C141.776 118.781 141.717 118.721 141.678 118.648C141.639 118.575 141.622 118.493 141.629 118.411C141.633 118.34 141.654 118.272 141.69 118.212L141.687 118.239ZM145.108 116.761L151.113 92.2524C151.12 92.1925 151.14 92.1348 151.171 92.083C151.202 92.0313 151.244 91.9867 151.293 91.9522C151.343 91.9177 151.399 91.8941 151.458 91.8828C151.517 91.8716 151.578 91.8731 151.637 91.8871C151.696 91.9011 151.751 91.9274 151.799 91.9642C151.847 92.001 151.886 92.0475 151.915 92.1007C151.943 92.1538 151.96 92.2124 151.964 92.2726C151.969 92.3328 151.96 92.3932 151.94 92.4499L145.934 116.959C145.916 117.069 145.855 117.168 145.764 117.233C145.673 117.298 145.56 117.325 145.45 117.307C145.339 117.289 145.241 117.227 145.176 117.136C145.11 117.046 145.084 116.933 145.102 116.822L145.108 116.761ZM128.55 122.286C128.628 122.205 128.735 122.157 128.848 122.154C128.961 122.151 129.07 122.193 129.152 122.27L145.135 137.451C145.176 137.489 145.209 137.535 145.233 137.587C145.256 137.638 145.268 137.693 145.27 137.75C145.272 137.806 145.263 137.862 145.243 137.914C145.223 137.967 145.193 138.015 145.154 138.056C145.116 138.097 145.069 138.13 145.018 138.153C144.967 138.177 144.911 138.189 144.855 138.191C144.799 138.193 144.743 138.183 144.69 138.164C144.638 138.144 144.59 138.114 144.549 138.075L128.541 122.865C128.494 122.821 128.458 122.767 128.436 122.706C128.413 122.646 128.405 122.582 128.411 122.518C128.426 122.418 128.476 122.326 128.553 122.259L128.55 122.286ZM135.309 101.693C135.421 101.7 135.526 101.751 135.6 101.835C135.675 101.919 135.714 102.029 135.708 102.141L134.821 120.755C134.804 120.858 134.749 120.952 134.667 121.017C134.585 121.083 134.483 121.116 134.378 121.111C134.273 121.106 134.174 121.062 134.099 120.989C134.025 120.915 133.979 120.817 133.973 120.712L134.863 102.065C134.87 101.953 134.921 101.848 135.005 101.773C135.089 101.698 135.199 101.66 135.311 101.666L135.309 101.693ZM120.703 109.074C120.76 109.073 120.815 109.084 120.868 109.104C120.92 109.125 120.967 109.157 121.007 109.196C121.047 109.236 121.079 109.283 121.101 109.335C121.122 109.387 121.133 109.443 121.132 109.499L121.132 123.827C121.132 123.882 121.121 123.937 121.1 123.989C121.079 124.04 121.048 124.087 121.008 124.126C120.969 124.165 120.922 124.196 120.871 124.217C120.819 124.238 120.764 124.249 120.708 124.249C120.597 124.247 120.49 124.202 120.411 124.123C120.332 124.044 120.287 123.937 120.286 123.825L120.28 109.497L120.284 109.456C120.287 109.346 120.333 109.242 120.412 109.166C120.491 109.089 120.596 109.047 120.706 109.047L120.703 109.074ZM111.623 126.157C111.695 126.069 111.798 126.014 111.91 126.002C112.023 125.99 112.135 126.023 112.223 126.094L122.134 134.153C122.219 134.226 122.272 134.329 122.283 134.441C122.293 134.552 122.26 134.664 122.19 134.752C122.119 134.84 122.016 134.895 121.904 134.907C121.791 134.919 121.679 134.886 121.591 134.815L111.68 126.756C111.626 126.711 111.584 126.652 111.557 126.587C111.53 126.521 111.52 126.45 111.526 126.38C111.53 126.288 111.566 126.2 111.626 126.13L111.623 126.157ZM109.663 109.712C109.774 109.725 109.876 109.78 109.947 109.866C110.019 109.951 110.055 110.061 110.047 110.173L108.558 126.872C108.547 126.983 108.492 127.085 108.406 127.156C108.319 127.227 108.209 127.26 108.097 127.249C108.041 127.246 107.987 127.231 107.937 127.205C107.887 127.18 107.842 127.144 107.806 127.101C107.77 127.058 107.744 127.008 107.728 126.954C107.712 126.901 107.707 126.844 107.713 126.788L109.202 110.09C109.205 110.032 109.22 109.976 109.245 109.925C109.27 109.873 109.305 109.827 109.348 109.789C109.391 109.752 109.442 109.723 109.496 109.705C109.551 109.687 109.608 109.68 109.665 109.685L109.663 109.712ZM82.5084 129.639C82.5861 129.612 90.7048 127.54 93.4199 119.17C93.455 119.063 93.5315 118.973 93.6325 118.922C93.7335 118.87 93.8508 118.861 93.9586 118.896C94.064 118.934 94.1506 119.011 94.2005 119.111C94.2503 119.212 94.2596 119.327 94.2263 119.434C91.3638 128.26 82.7913 130.438 82.7069 130.463C82.5968 130.488 82.4815 130.468 82.3855 130.409C82.2895 130.35 82.2202 130.256 82.1923 130.147L82.2056 130.011C82.2067 129.921 82.237 129.833 82.2921 129.761C82.3471 129.689 82.4239 129.637 82.5111 129.612L82.5084 129.639Z" fill="white"/>
<path d="M105.522 61.3908C115.178 70.934 130.507 78.7159 146.891 81.9664C146.908 82.9912 146.976 88.6594 147.282 114.759C147.691 149.586 112.385 166.831 106.918 169.473C101.57 167.215 65.5832 150.434 65.1744 115.608C64.8679 89.4921 64.7997 83.8398 64.7827 82.815C81.0817 79.2283 96.1033 71.1422 105.522 61.3908Z" fill="#AEECFA"/>
<path d="M105.658 67.6835C115.094 75.6736 128.14 81.9343 142.463 85.2969L142.804 114.807C142.957 128.305 137.32 140.555 126.028 151.219C118.602 158.216 110.785 162.587 106.817 164.557C106.646 164.477 106.459 164.381 106.272 164.301L105.59 67.7636C105.607 67.7316 105.641 67.7156 105.658 67.6835Z" fill="#249AB5"/>
<path d="M105.59 67.7651L106.271 164.302C102.116 162.317 94.5538 158.186 87.2815 151.637C75.7342 141.213 69.8073 129.076 69.637 115.577L69.2964 86.067C83.4835 82.4162 96.3421 75.9153 105.59 67.7651Z" fill="#59BFD7"/>
<ellipse cx="158.896" cy="149.965" rx="23.6484" ry="1.71989" fill="#4F4F4F" fill-opacity="0.13"/>
<circle cx="106" cy="115" r="23" fill="white"/>
<path d="M93 115.15L96.46 111.68L103.14 117.62L116.25 105L119.47 108.47L102.65 124.3L93 115.15Z" fill="#48C4E0"/>
</svg>
