<svg width="113" height="84" viewBox="0 0 113 84" fill="none" xmlns="http://www.w3.org/2000/svg">
<path d="M20.1982 49.3084C20.1982 49.3084 17.074 38.2164 3.875 35.1406C4.72264 55.1692 18.7451 66.4549 20.1982 67.4721C21.6755 68.4893 20.1982 49.3084 20.1982 49.3084Z" fill="#00D2C5"/>
<path d="M19.9801 65.5832C19.9801 65.5832 16.8317 53.3045 0 54.6608C6.29677 71.88 15.5966 72.7761 21.2395 74.8589C26.8824 76.9659 19.9801 65.5832 19.9801 65.5832Z" fill="#6FEFE3"/>
<path d="M93.0954 22.7896C93.0954 22.7896 98.036 12.3757 111.574 11.5522C107.384 31.1691 91.6665 39.9361 90.0439 40.7111C88.4213 41.4619 93.0954 22.7896 93.0954 22.7896Z" fill="#00D2C5"/>
<path d="M90.5767 38.8703C90.5767 38.8703 95.7352 27.294 112.107 31.4595C103.025 47.371 93.7008 46.6928 87.7915 47.8069C81.8823 48.9452 90.5767 38.8703 90.5767 38.8703Z" fill="#6FEFE3"/>
<path d="M92.9014 5.08594H20.9003C18.6238 5.08594 16.7832 6.92653 16.7832 9.20305V74.4473C16.7832 76.7238 18.6238 78.5644 20.9003 78.5644H92.9014C95.178 78.5644 97.0186 76.7238 97.0186 74.4473V9.20305C96.9943 6.92653 95.178 5.08594 92.9014 5.08594ZM37.393 12.0366C36.1579 12.0366 35.1407 11.0194 35.1407 9.7843C35.1407 8.54916 36.1579 7.53199 37.393 7.53199C38.6281 7.53199 39.6453 8.54916 39.6453 9.7843C39.6453 11.0194 38.6524 12.0366 37.393 12.0366ZM76.3845 12.0366C75.1494 12.0366 74.1322 11.0194 74.1322 9.7843C74.1322 8.54916 75.1494 7.53199 76.3845 7.53199C77.6197 7.53199 78.6368 8.54916 78.6368 9.7843C78.6368 11.0194 77.6197 12.0366 76.3845 12.0366Z" fill="#FFFAFF"/>
<path d="M51.6096 35.4316H41.7285V42.7456H51.6096V35.4316Z" fill="#FF596A"/>
<path d="M92.9014 5.08594H20.9003C18.6238 5.08594 16.7832 6.92653 16.7832 9.20305V15.3787H96.9943V9.20305C96.9943 6.92653 95.178 5.08594 92.9014 5.08594ZM37.393 12.0366C36.1579 12.0366 35.1407 11.0194 35.1407 9.7843C35.1407 8.54916 36.1579 7.53199 37.393 7.53199C38.6281 7.53199 39.6453 8.54916 39.6453 9.7843C39.6453 11.0194 38.6524 12.0366 37.393 12.0366ZM76.3845 12.0366C75.1494 12.0366 74.1322 11.0194 74.1322 9.7843C74.1322 8.54916 75.1494 7.53199 76.3845 7.53199C77.6197 7.53199 78.6368 8.54916 78.6368 9.7843C78.6368 11.0194 77.6197 12.0366 76.3845 12.0366Z" fill="#1FA0BD"/>
<path d="M92.7079 73.5025H21.0942V25.1143H92.7079V73.5025ZM21.3849 73.2119H92.393V25.4049H21.3849V73.2119Z" fill="#DBDBDB"/>
<path d="M92.5385 35.1162H21.2397V35.4068H92.5385V35.1162Z" fill="#DBDBDB"/>
<path d="M92.5385 42.7451H21.2397V43.0357H92.5385V42.7451Z" fill="#DBDBDB"/>
<path d="M92.5385 50.3496H21.2397V50.6402H92.5385V50.3496Z" fill="#DBDBDB"/>
<path d="M92.5385 57.9785H21.2397V58.2691H92.5385V57.9785Z" fill="#DBDBDB"/>
<path d="M92.5385 65.583H21.2397V65.8736H92.5385V65.583Z" fill="#DBDBDB"/>
<path d="M31.5567 25.2598H31.2661V73.3574H31.5567V25.2598Z" fill="#DBDBDB"/>
<path d="M41.7286 25.2598H41.438V73.3574H41.7286V25.2598Z" fill="#DBDBDB"/>
<path d="M51.8761 25.2598H51.5854V73.3574H51.8761V25.2598Z" fill="#DBDBDB"/>
<path d="M62.0475 25.2598H61.7568V73.3574H62.0475V25.2598Z" fill="#DBDBDB"/>
<path d="M72.2193 25.2598H71.9287V73.3574H72.2193V25.2598Z" fill="#DBDBDB"/>
<path d="M82.3912 25.2598H82.1006V73.3574H82.3912V25.2598Z" fill="#DBDBDB"/>
<path d="M37.4416 11.5521C36.5939 11.5521 35.8916 10.8498 35.8916 10.0022V1.54997C35.8916 0.702332 36.5939 0 37.4416 0C38.2892 0 38.9915 0.702332 38.9915 1.54997V10.0022C38.9915 10.8498 38.2892 11.5521 37.4416 11.5521Z" fill="#00D2C5"/>
<path d="M76.4333 11.5521C75.5856 11.5521 74.8833 10.8498 74.8833 10.0022V1.54997C74.8833 0.702332 75.5856 0 76.4333 0C77.2809 0 77.9832 0.702332 77.9832 1.54997V10.0022C77.9832 10.8498 77.2809 11.5521 76.4333 11.5521Z" fill="#00D2C5"/>
<path d="M79.8235 83.8198C93.7206 83.8198 104.986 72.5541 104.986 58.657C104.986 44.7599 93.7206 33.4941 79.8235 33.4941C65.9264 33.4941 54.6606 44.7599 54.6606 58.657C54.6606 72.5541 65.9264 83.8198 79.8235 83.8198Z" fill="#1FA0BD"/>
<path d="M79.8234 80.4534C91.8612 80.4534 101.62 70.6947 101.62 58.6569C101.62 46.619 91.8612 36.8604 79.8234 36.8604C67.7855 36.8604 58.0269 46.619 58.0269 58.6569C58.0269 70.6947 67.7855 80.4534 79.8234 80.4534Z" fill="#E6FFFF"/>
<path opacity="0.57" d="M87.5974 59.5048C90.6247 54.9033 90.9638 46.6449 89.438 42.2371C86.6529 40.5903 83.4319 39.6458 79.9686 39.6216C69.4579 39.5489 60.8604 48.0011 60.7877 58.5119C60.7635 61.5634 61.4658 64.4211 62.701 66.9883C62.8463 67.0125 63.0158 66.9883 63.1369 67.0609C70.0876 69.9429 81.8819 68.1265 87.5974 59.5048Z" fill="#FFFAFF"/>
<path d="M79.9205 43.9808C80.2838 43.9808 80.5986 43.6901 80.5986 43.3269L80.6228 39.2582C80.6228 38.8949 80.3322 38.5801 79.9689 38.5801C79.6057 38.5801 79.2908 38.8707 79.2908 39.234L79.2666 43.3027C79.2666 43.6659 79.5572 43.9566 79.9205 43.9808Z" fill="#6FEFE3"/>
<path d="M79.6539 78.7581C80.0172 78.7581 80.332 78.4675 80.332 78.1042L80.3562 74.0355C80.3562 73.6723 80.0656 73.3574 79.7023 73.3574C79.3391 73.3574 79.0242 73.648 79.0242 74.0113L79 78.08C79 78.4433 79.2906 78.7339 79.6539 78.7581Z" fill="#6FEFE3"/>
<path d="M59.7222 58.4874C59.7222 58.8507 60.0128 59.1655 60.3761 59.1655L64.4447 59.1897C64.808 59.1897 65.1229 58.8991 65.1229 58.5358C65.1229 58.1726 64.8322 57.8577 64.469 57.8577L60.4003 57.8335C60.0128 57.8335 59.7222 58.1241 59.7222 58.4874Z" fill="#6FEFE3"/>
<path d="M88.8809 43.9084C89.2421 43.9084 89.5348 43.6156 89.5348 43.2545C89.5348 42.8933 89.2421 42.6006 88.8809 42.6006C88.5198 42.6006 88.2271 42.8933 88.2271 43.2545C88.2271 43.6156 88.5198 43.9084 88.8809 43.9084Z" fill="#6FEFE3"/>
<path d="M70.7657 74.714C71.1269 74.714 71.4196 74.4213 71.4196 74.0601C71.4196 73.699 71.1269 73.4062 70.7657 73.4062C70.4046 73.4062 70.1118 73.699 70.1118 74.0601C70.1118 74.4213 70.4046 74.714 70.7657 74.714Z" fill="#6FEFE3"/>
<path d="M95.3717 50.4958C95.7328 50.4958 96.0256 50.203 96.0256 49.8419C96.0256 49.4807 95.7328 49.188 95.3717 49.188C95.0105 49.188 94.7178 49.4807 94.7178 49.8419C94.7178 50.203 95.0105 50.4958 95.3717 50.4958Z" fill="#6FEFE3"/>
<path d="M64.2755 68.1266C64.6366 68.1266 64.9294 67.8339 64.9294 67.4727C64.9294 67.1116 64.6366 66.8188 64.2755 66.8188C63.9143 66.8188 63.6216 67.1116 63.6216 67.4727C63.6216 67.8339 63.9143 68.1266 64.2755 68.1266Z" fill="#6FEFE3"/>
<path d="M95.2267 68.3683C95.5878 68.3683 95.8805 68.0756 95.8805 67.7144C95.8805 67.3533 95.5878 67.0605 95.2267 67.0605C94.8655 67.0605 94.5728 67.3533 94.5728 67.7144C94.5728 68.0756 94.8655 68.3683 95.2267 68.3683Z" fill="#6FEFE3"/>
<path d="M64.3966 50.2531C64.7577 50.2531 65.0505 49.9603 65.0505 49.5992C65.0505 49.2381 64.7577 48.9453 64.3966 48.9453C64.0354 48.9453 63.7427 49.2381 63.7427 49.5992C63.7427 49.9603 64.0354 50.2531 64.3966 50.2531Z" fill="#6FEFE3"/>
<path d="M88.6388 74.8591C88.9999 74.8591 89.2927 74.5663 89.2927 74.2052C89.2927 73.844 88.9999 73.5513 88.6388 73.5513C88.2776 73.5513 87.9849 73.844 87.9849 74.2052C87.9849 74.5663 88.2776 74.8591 88.6388 74.8591Z" fill="#6FEFE3"/>
<path d="M71.0079 43.7629C71.369 43.7629 71.6618 43.4701 71.6618 43.109C71.6618 42.7478 71.369 42.4551 71.0079 42.4551C70.6468 42.4551 70.354 42.7478 70.354 43.109C70.354 43.4701 70.6468 43.7629 71.0079 43.7629Z" fill="#6FEFE3"/>
<path d="M86.5803 53.6436C88.5662 52.8686 97.866 48.8726 97.866 48.8726L97.8902 48.9452L97.9629 49.0663L97.9871 49.139C97.9871 49.139 89.5349 54.685 87.7912 55.9201C86.0475 57.1552 79.8476 59.0927 79.8476 59.0927L79.7265 58.8747L79.6538 58.7536L79.5327 58.5357C79.5569 58.5357 84.5701 54.4186 86.5803 53.6436Z" fill="#FFB252"/>
<path d="M73.5024 60.013C71.9766 59.7708 64.7354 58.9958 64.7354 58.9958V58.9232V58.7779V58.7052C64.7354 58.7052 71.9524 57.7123 73.454 57.4216C74.9797 57.131 79.557 58.2935 79.557 58.2935V58.5357V58.681V58.9232C79.557 58.9474 75.0281 60.231 73.5024 60.013Z" fill="#FFB252"/>
<path d="M79.8232 59.9887C80.5589 59.9887 81.1552 59.3924 81.1552 58.6567C81.1552 57.9211 80.5589 57.3247 79.8232 57.3247C79.0876 57.3247 78.4912 57.9211 78.4912 58.6567C78.4912 59.3924 79.0876 59.9887 79.8232 59.9887Z" fill="#6FEFE3"/>
<path d="M88.1791 59.7222C88.1791 59.7222 88.0096 59.0925 87.937 58.9957C87.8643 58.923 86.8713 58.4871 85.0065 59.1894C84.7401 59.3105 84.6675 60.037 84.6675 60.037L88.1791 59.7222Z" fill="#F2F2F2"/>
<path d="M92.3207 54.0794L92.0059 53.6434L93.4105 52.8442L93.6769 53.3044L92.3207 54.0794Z" fill="#F2F2F2"/>
</svg>
