<svg width="244" height="243" viewBox="0 0 244 243" fill="none" xmlns="http://www.w3.org/2000/svg">
<path d="M211.818 107.955C222.099 133.774 210.108 159.577 183.097 162.627C172.555 163.823 161.384 160.039 151.255 164.245C141.753 168.193 134.153 177.572 125.412 183.355C106.818 195.69 73.8098 204.431 56.3395 184.048C48.6869 175.12 44.9722 160.353 39.9101 149.871C34.0791 137.819 24.7331 124.819 27.7031 111.069C32.7817 87.483 57.5614 77.4311 77.8724 71.7052C88.7988 68.6196 95.0701 67.1744 101.163 58.2564C106.794 49.9919 108.545 39.2733 120.601 37.6615C129.653 36.4509 138.143 43.9871 147.139 44.3473C157.274 44.7535 162.522 40.2064 173.04 45.5969C185.8 52.1394 187.432 62.6539 193.124 74.2857C198.816 85.9175 206.986 95.8034 211.818 107.955Z" fill="#D4F7FF" fill-opacity="0.7"/>
<ellipse cx="78.9789" cy="160.265" rx="24.4321" ry="1.77688" fill="#4F4F4F" fill-opacity="0.13"/>
<path d="M84.392 103.287C84.392 103.287 75.9787 105.763 67.5895 92.183C58.5444 77.5247 50.6759 58.8565 41.1373 62.5088C31.5986 66.1612 32.9208 79.5981 40.2266 91.9478C46.6288 102.757 64.6927 123.811 90.9934 114.741L84.392 103.287Z" fill="#2AA3BF"/>
<path d="M90.2044 113.309L90.1352 113.349C84.263 115.461 78.2379 115.042 72.2365 112.114C54.4321 103.408 42.0157 75.0738 40.3151 69.8568C40.2799 69.745 40.2894 69.624 40.3415 69.5191C40.3937 69.4141 40.4844 69.3335 40.5947 69.2941C40.7081 69.2602 40.8301 69.2712 40.9356 69.3246C41.0411 69.3781 41.1221 69.47 41.1619 69.5814C42.8601 74.7587 55.0957 102.746 72.6248 111.314C75.2537 112.694 78.1408 113.513 81.103 113.719C84.0652 113.924 87.0378 113.512 89.8323 112.508C89.8878 112.489 89.9467 112.48 90.0056 112.483C90.0644 112.486 90.1221 112.501 90.1752 112.526C90.2282 112.552 90.2757 112.588 90.3148 112.632C90.3538 112.676 90.3837 112.728 90.4027 112.784C90.4371 112.881 90.4361 112.987 90.3998 113.083C90.3635 113.179 90.2942 113.259 90.2044 113.309Z" fill="white"/>
<path d="M110.746 148.732C103.727 154.178 91.3522 161.335 80.9498 159.849C70.5474 158.364 69.2304 152.658 70.8019 149.045C72.3734 145.433 73.4188 141.745 66.097 139.994C58.7752 138.242 47.0166 135.428 38.2861 126.04C29.5557 116.653 26.8478 109.186 30.3684 104.135C33.783 99.2378 37.035 101.994 44.0556 107.494C51.0763 112.995 53.9633 103.115 60.7785 102.151C67.5936 101.187 69.938 105.743 72.4901 109.347C75.0422 112.951 77.4743 112.948 80.6023 111.133C83.7303 109.319 87.8859 109.313 89.9629 112.894L110.746 148.732Z" fill="#FFCAC8"/>
<path d="M103.466 136.174C103.437 136.2 103.403 136.22 103.366 136.232C102.982 136.331 93.7758 138.609 76.1908 134.727C57.4635 130.593 41.9384 117.104 41.7789 116.971C41.6932 116.891 41.6418 116.781 41.6353 116.665C41.6288 116.548 41.6678 116.433 41.744 116.344C41.8214 116.257 41.93 116.203 42.0465 116.195C42.1629 116.187 42.2779 116.226 42.3664 116.302C42.5182 116.44 57.8826 129.775 76.3836 133.855C93.727 137.693 103.047 135.4 103.145 135.374C103.202 135.36 103.261 135.357 103.318 135.366C103.376 135.375 103.431 135.395 103.481 135.425C103.531 135.455 103.575 135.495 103.609 135.542C103.644 135.589 103.669 135.642 103.683 135.699C103.703 135.791 103.693 135.887 103.653 135.973C103.614 136.058 103.548 136.129 103.466 136.174Z" fill="white"/>
<path d="M80.9462 135.543C80.8696 135.589 80.7806 135.61 80.6915 135.602C80.6025 135.595 80.518 135.56 80.45 135.502C74.3104 130.6 65.8915 117.376 65.5111 116.826C65.4502 116.726 65.4304 116.606 65.456 116.491C65.4815 116.377 65.5505 116.277 65.6483 116.212C65.7495 116.156 65.8681 116.138 65.9813 116.164C66.0946 116.189 66.1945 116.255 66.2619 116.349C66.3421 116.488 74.9546 130.01 80.9813 134.824C81.0273 134.861 81.0656 134.906 81.0939 134.958C81.1222 135.009 81.1399 135.066 81.1461 135.125C81.1524 135.183 81.1469 135.242 81.1301 135.299C81.1132 135.355 81.0854 135.407 81.0481 135.453C81.0188 135.488 80.9844 135.518 80.9462 135.543V135.543Z" fill="white"/>
<path d="M86.1651 144.686C85.4597 145.102 84.7306 145.477 83.9815 145.808C83.9275 145.831 83.8695 145.844 83.8107 145.845C83.752 145.845 83.6936 145.835 83.6391 145.813C83.5845 145.791 83.5347 145.759 83.4926 145.718C83.4505 145.677 83.4169 145.628 83.3937 145.574C83.3705 145.52 83.3581 145.462 83.3574 145.403C83.3566 145.344 83.3674 145.286 83.3891 145.232C83.4109 145.177 83.4432 145.127 83.4841 145.085C83.5251 145.043 83.574 145.009 83.628 144.986C83.6972 144.946 91.3248 141.611 92.6677 136.365C92.6784 136.305 92.7014 136.247 92.7354 136.196C92.7693 136.145 92.8134 136.102 92.8649 136.069C92.9164 136.036 92.9742 136.014 93.0347 136.004C93.0951 135.994 93.1569 135.997 93.2162 136.013C93.2754 136.028 93.3309 136.055 93.3791 136.093C93.4272 136.131 93.4671 136.178 93.4961 136.232C93.5252 136.286 93.5427 136.345 93.5478 136.406C93.5528 136.467 93.5452 136.528 93.5253 136.586C92.5723 140.415 88.6705 143.233 86.1651 144.686Z" fill="white"/>
<path d="M168.691 123.328C168.691 123.328 192.458 135.497 196.252 127.123C200.205 118.406 183.838 117.194 175.845 116.759C158.767 115.815 155.419 117.381 159.435 119.194L168.691 123.328ZM149.114 124.351C145.887 121.333 149.578 120.936 165.431 127.37C172.887 130.388 187.935 136.834 181.363 143.799C175.064 150.488 156.518 131.263 156.518 131.263L149.114 124.351ZM134.434 128.12C132.423 125.349 135.283 125.581 146.477 132.796C151.719 136.182 162.303 143.295 156.289 147.671C150.489 151.871 139.114 134.488 139.114 134.488L134.434 128.12ZM117.031 132.043C115.013 129.271 117.88 129.505 129.067 136.719C134.309 140.105 144.9 147.218 138.879 151.594C133.069 155.765 121.688 138.43 121.688 138.43L117.031 132.043ZM152.925 119.299C150.932 123.219 149.52 119.809 151.247 102.788C152.035 94.8013 154.005 78.5295 162.536 82.8808C170.731 87.0511 157.485 110.233 157.485 110.233L152.925 119.299ZM141.131 122.824C139.958 127.064 137.892 123.999 136.201 106.971C135.402 98.9909 134.087 82.6559 143.28 85.2187C152.145 87.6787 143.766 113.032 143.766 113.032L141.131 122.824ZM126.775 126.653C125.883 130.273 124.068 127.725 122.241 113.37C121.382 106.638 119.887 92.8512 127.75 94.8107C135.319 96.6848 128.802 118.317 128.802 118.317L126.775 126.653ZM113.562 129.333C112.293 132.838 110.757 130.114 110.465 115.635C110.33 108.854 110.301 94.9866 117.916 97.7603C125.223 100.433 116.466 121.252 116.466 121.252L113.562 129.333ZM167.554 113.411C162.657 115.042 163.797 110.764 178.156 97.2497C184.891 90.9213 198.924 78.2776 204.144 89.9011C209.162 101.061 178.806 109.536 178.806 109.536L167.554 113.411ZM96.9104 127.141C95.4007 129.227 95.1121 127.006 98.1374 117.056C99.5492 112.387 102.598 102.911 106.408 106.593C110.075 110.154 100.417 122.313 100.417 122.313L96.9104 127.141Z" fill="#46A834"/>
<path opacity="0.3" d="M168.691 123.328C168.691 123.328 192.458 135.497 196.252 127.123C200.205 118.406 183.838 117.194 175.845 116.759C158.767 115.815 155.419 117.381 159.435 119.194L168.691 123.328ZM149.114 124.351C145.887 121.333 149.578 120.936 165.431 127.37C172.887 130.388 187.935 136.834 181.363 143.799C175.064 150.488 156.518 131.263 156.518 131.263L149.114 124.351ZM134.434 128.12C132.423 125.349 135.283 125.581 146.477 132.796C151.719 136.182 162.303 143.295 156.289 147.671C150.489 151.871 139.114 134.488 139.114 134.488L134.434 128.12ZM117.031 132.043C115.013 129.271 117.88 129.505 129.067 136.719C134.309 140.105 144.9 147.218 138.879 151.594C133.069 155.765 121.688 138.43 121.688 138.43L117.031 132.043ZM152.925 119.299C150.932 123.219 149.52 119.809 151.247 102.788C152.035 94.8013 154.005 78.5295 162.536 82.8808C170.731 87.0511 157.485 110.233 157.485 110.233L152.925 119.299ZM141.131 122.824C139.958 127.064 137.892 123.999 136.201 106.971C135.402 98.9909 134.087 82.6559 143.28 85.2187C152.145 87.6787 143.766 113.032 143.766 113.032L141.131 122.824ZM126.775 126.653C125.883 130.273 124.068 127.725 122.241 113.37C121.382 106.638 119.887 92.8512 127.75 94.8107C135.319 96.6848 128.802 118.317 128.802 118.317L126.775 126.653ZM113.562 129.333C112.293 132.838 110.757 130.114 110.465 115.635C110.33 108.854 110.301 94.9866 117.916 97.7603C125.223 100.433 116.466 121.252 116.466 121.252L113.562 129.333ZM167.554 113.411C162.657 115.042 163.797 110.764 178.156 97.2497C184.891 90.9213 198.924 78.2776 204.144 89.9011C209.162 101.061 178.806 109.536 178.806 109.536L167.554 113.411ZM96.9104 127.141C95.4007 129.227 95.1121 127.006 98.1374 117.056C99.5492 112.387 102.598 102.911 106.408 106.593C110.075 110.154 100.417 122.313 100.417 122.313L96.9104 127.141Z" fill="white"/>
<path d="M157.603 117.9L185.66 122.379L157.603 117.9ZM147.761 122.35L170.976 135.466L147.761 122.35ZM157.547 95.3732L151.327 120.707L157.547 95.3732ZM134.13 126.617L150.609 142.29L134.13 126.617ZM139.844 124.713L140.771 105.449L139.844 124.713ZM125.707 127.901L125.701 113.098L125.707 127.901ZM116.66 130.583L126.895 138.944L116.66 130.583ZM112.71 131.04L114.249 113.788L112.71 131.04ZM80.0299 131.342C80.0503 131.227 80.115 131.125 80.21 131.058C80.3051 130.991 80.4228 130.964 80.5376 130.983C96.8907 133.702 124.479 129.994 147.616 121.962C162.403 116.829 192.723 93.9846 193.03 93.7399C193.12 93.6658 193.236 93.6306 193.353 93.6421C193.469 93.6535 193.577 93.7108 193.651 93.8012C193.687 93.8454 193.715 93.8964 193.732 93.9513C193.748 94.0062 193.754 94.0638 193.748 94.1209C193.743 94.178 193.726 94.2335 193.699 94.284C193.672 94.3346 193.635 94.3793 193.59 94.4155C193.286 94.6463 162.85 117.585 147.932 122.762C124.239 130.929 97.1474 134.602 80.3985 131.822C80.2882 131.803 80.1892 131.743 80.121 131.654C80.0528 131.565 80.0204 131.454 80.0299 131.342V131.342ZM157.169 117.864C157.188 117.749 157.251 117.647 157.345 117.578C157.438 117.509 157.555 117.481 157.67 117.498L185.744 121.95C185.801 121.958 185.856 121.978 185.906 122.008C185.955 122.038 185.998 122.077 186.033 122.124C186.067 122.171 186.091 122.224 186.105 122.28C186.118 122.336 186.12 122.394 186.111 122.451C186.092 122.566 186.029 122.669 185.935 122.738C185.841 122.806 185.724 122.835 185.609 122.818L157.552 118.339C157.442 118.323 157.342 118.264 157.273 118.176C157.204 118.088 157.172 117.977 157.183 117.865L157.169 117.864ZM147.378 122.157C147.436 122.057 147.53 121.984 147.641 121.953C147.752 121.922 147.871 121.935 147.972 121.99L171.187 135.113C171.288 135.17 171.363 135.264 171.394 135.376C171.425 135.487 171.411 135.607 171.354 135.708C171.298 135.809 171.203 135.883 171.092 135.914C170.98 135.946 170.861 135.931 170.76 135.875L147.544 122.759C147.47 122.717 147.409 122.655 147.368 122.58C147.328 122.505 147.311 122.42 147.318 122.335C147.322 122.262 147.343 122.191 147.381 122.129L147.378 122.157ZM150.912 120.631L157.116 95.3096C157.123 95.2477 157.144 95.1881 157.176 95.1346C157.208 95.0812 157.251 95.0351 157.302 94.9995C157.353 94.9639 157.411 94.9394 157.473 94.9278C157.534 94.9162 157.597 94.9177 157.657 94.9322C157.718 94.9467 157.775 94.9739 157.824 95.0119C157.874 95.0499 157.915 95.0979 157.944 95.1529C157.974 95.2078 157.991 95.2683 157.996 95.3305C158 95.3927 157.991 95.4551 157.97 95.5136L151.766 120.835C151.747 120.949 151.684 121.051 151.59 121.118C151.496 121.186 151.379 121.213 151.265 121.194C151.151 121.175 151.049 121.112 150.982 121.018C150.914 120.924 150.887 120.808 150.906 120.693L150.912 120.631ZM133.805 126.338C133.886 126.254 133.997 126.205 134.113 126.202C134.23 126.199 134.343 126.242 134.427 126.322L150.94 142.006C151.026 142.086 151.076 142.197 151.08 142.314C151.083 142.432 151.04 142.546 150.96 142.631C150.879 142.717 150.768 142.767 150.651 142.771C150.533 142.774 150.42 142.731 150.334 142.651L133.796 126.937C133.748 126.891 133.711 126.835 133.687 126.773C133.664 126.711 133.656 126.644 133.662 126.578C133.678 126.474 133.729 126.379 133.808 126.31L133.805 126.338ZM140.788 105.063C140.904 105.07 141.012 105.123 141.089 105.21C141.166 105.297 141.206 105.41 141.2 105.526L140.284 124.757C140.266 124.864 140.21 124.96 140.125 125.028C140.041 125.096 139.934 125.13 139.826 125.125C139.718 125.119 139.616 125.074 139.538 124.998C139.461 124.922 139.415 124.821 139.407 124.713L140.327 105.447C140.335 105.331 140.388 105.223 140.474 105.146C140.561 105.069 140.675 105.029 140.791 105.035L140.788 105.063ZM125.699 112.689C125.757 112.688 125.815 112.699 125.868 112.72C125.922 112.742 125.972 112.774 126.013 112.815C126.054 112.856 126.087 112.904 126.109 112.958C126.131 113.012 126.142 113.069 126.142 113.128L126.142 127.93C126.142 127.988 126.131 128.044 126.109 128.098C126.087 128.151 126.054 128.199 126.014 128.239C125.973 128.28 125.925 128.312 125.871 128.334C125.818 128.356 125.761 128.367 125.704 128.366C125.588 128.365 125.478 128.318 125.397 128.236C125.315 128.154 125.269 128.044 125.268 127.928L125.261 113.125L125.265 113.083C125.268 112.97 125.316 112.862 125.397 112.783C125.479 112.705 125.588 112.661 125.701 112.661L125.699 112.689ZM116.318 130.338C116.391 130.247 116.498 130.19 116.614 130.177C116.73 130.165 116.846 130.199 116.937 130.272L127.176 138.598C127.264 138.674 127.319 138.781 127.33 138.896C127.341 139.011 127.307 139.127 127.235 139.217C127.161 139.308 127.055 139.366 126.939 139.378C126.823 139.39 126.706 139.356 126.615 139.283L116.377 130.957C116.321 130.91 116.277 130.85 116.249 130.782C116.222 130.714 116.211 130.641 116.218 130.568C116.222 130.473 116.258 130.382 116.32 130.31L116.318 130.338ZM114.292 113.348C114.407 113.361 114.512 113.418 114.586 113.506C114.66 113.595 114.697 113.709 114.689 113.824L113.151 131.076C113.139 131.191 113.083 131.296 112.994 131.369C112.904 131.443 112.79 131.477 112.675 131.466C112.617 131.462 112.561 131.447 112.509 131.421C112.457 131.394 112.411 131.358 112.374 131.313C112.337 131.269 112.309 131.217 112.293 131.161C112.276 131.106 112.271 131.048 112.278 130.99L113.817 113.738C113.82 113.679 113.835 113.621 113.86 113.568C113.886 113.514 113.923 113.467 113.967 113.428C114.012 113.389 114.064 113.359 114.12 113.34C114.176 113.322 114.236 113.315 114.295 113.32L114.292 113.348ZM86.2381 133.935C86.3184 133.907 94.7061 131.767 97.5111 123.12C97.5474 123.008 97.6264 122.916 97.7308 122.863C97.8351 122.81 97.9563 122.8 98.0677 122.836C98.1766 122.875 98.2661 122.955 98.3176 123.059C98.3691 123.162 98.3786 123.282 98.3442 123.392C95.3869 132.511 86.5303 134.76 86.4431 134.787C86.3294 134.812 86.2103 134.792 86.1111 134.731C86.0119 134.67 85.9403 134.572 85.9115 134.459L85.9252 134.32C85.9264 134.226 85.9577 134.135 86.0146 134.061C86.0715 133.987 86.1508 133.933 86.2409 133.907L86.2381 133.935ZM80.0299 131.342C80.0503 131.227 80.115 131.125 80.21 131.058C80.3051 130.991 80.4228 130.964 80.5376 130.983C96.8907 133.702 124.479 129.994 147.616 121.962C162.403 116.829 192.723 93.9846 193.03 93.7399C193.12 93.6658 193.236 93.6306 193.353 93.6421C193.469 93.6535 193.577 93.7108 193.651 93.8012C193.687 93.8454 193.715 93.8964 193.732 93.9513C193.748 94.0062 193.754 94.0638 193.748 94.1209C193.743 94.178 193.726 94.2335 193.699 94.284C193.672 94.3346 193.635 94.3793 193.59 94.4155C193.286 94.6463 162.85 117.585 147.932 122.762C124.239 130.929 97.1474 134.602 80.3985 131.822C80.2882 131.803 80.1892 131.743 80.121 131.654C80.0528 131.565 80.0204 131.454 80.0299 131.342V131.342ZM157.169 117.864C157.188 117.749 157.251 117.647 157.345 117.578C157.438 117.509 157.555 117.481 157.67 117.498L185.744 121.95C185.801 121.958 185.856 121.978 185.906 122.008C185.955 122.038 185.998 122.077 186.033 122.124C186.067 122.171 186.091 122.224 186.105 122.28C186.118 122.336 186.12 122.394 186.111 122.451C186.092 122.566 186.029 122.669 185.935 122.738C185.841 122.806 185.724 122.835 185.609 122.818L157.552 118.339C157.442 118.323 157.342 118.264 157.273 118.176C157.204 118.088 157.172 117.977 157.183 117.865L157.169 117.864ZM147.378 122.157C147.436 122.057 147.53 121.984 147.641 121.953C147.752 121.922 147.871 121.935 147.972 121.99L171.187 135.113C171.288 135.17 171.363 135.264 171.394 135.376C171.425 135.487 171.411 135.607 171.354 135.708C171.298 135.809 171.203 135.883 171.092 135.914C170.98 135.946 170.861 135.931 170.76 135.875L147.544 122.759C147.47 122.717 147.409 122.655 147.368 122.58C147.328 122.505 147.311 122.42 147.318 122.335C147.322 122.262 147.343 122.191 147.381 122.129L147.378 122.157ZM150.912 120.631L157.116 95.3096C157.123 95.2477 157.144 95.1881 157.176 95.1346C157.208 95.0812 157.251 95.0351 157.302 94.9995C157.353 94.9639 157.411 94.9394 157.473 94.9278C157.534 94.9162 157.597 94.9177 157.657 94.9322C157.718 94.9467 157.775 94.9739 157.824 95.0119C157.874 95.0499 157.915 95.0979 157.944 95.1529C157.974 95.2078 157.991 95.2683 157.996 95.3305C158 95.3927 157.991 95.4551 157.97 95.5136L151.766 120.835C151.747 120.949 151.684 121.051 151.59 121.118C151.496 121.186 151.379 121.213 151.265 121.194C151.151 121.175 151.049 121.112 150.982 121.018C150.914 120.924 150.887 120.808 150.906 120.693L150.912 120.631ZM133.805 126.338C133.886 126.254 133.997 126.205 134.113 126.202C134.23 126.199 134.343 126.242 134.427 126.322L150.94 142.006C150.983 142.045 151.017 142.093 151.041 142.146C151.065 142.199 151.078 142.256 151.08 142.314C151.081 142.373 151.072 142.43 151.051 142.485C151.031 142.539 151 142.589 150.96 142.631C150.92 142.674 150.872 142.708 150.819 142.732C150.766 142.756 150.709 142.769 150.651 142.771C150.593 142.772 150.535 142.763 150.48 142.742C150.426 142.722 150.376 142.69 150.334 142.651L133.796 126.937C133.748 126.891 133.711 126.835 133.687 126.773C133.664 126.711 133.656 126.644 133.662 126.578C133.678 126.474 133.729 126.379 133.808 126.31L133.805 126.338ZM140.788 105.063C140.904 105.07 141.012 105.123 141.089 105.21C141.166 105.297 141.206 105.41 141.2 105.526L140.284 124.757C140.266 124.864 140.21 124.96 140.125 125.028C140.041 125.096 139.934 125.13 139.826 125.125C139.718 125.119 139.616 125.074 139.538 124.998C139.461 124.922 139.415 124.821 139.407 124.713L140.327 105.447C140.335 105.331 140.388 105.223 140.474 105.146C140.561 105.069 140.675 105.029 140.791 105.035L140.788 105.063ZM125.699 112.689C125.757 112.688 125.815 112.699 125.868 112.72C125.922 112.742 125.972 112.774 126.013 112.815C126.054 112.856 126.087 112.904 126.109 112.958C126.131 113.012 126.142 113.069 126.142 113.128L126.142 127.93C126.142 127.988 126.131 128.044 126.109 128.098C126.087 128.151 126.054 128.199 126.014 128.239C125.973 128.28 125.925 128.312 125.871 128.334C125.818 128.356 125.761 128.367 125.704 128.366C125.588 128.365 125.478 128.318 125.397 128.236C125.315 128.154 125.269 128.044 125.268 127.928L125.261 113.125L125.265 113.083C125.268 112.97 125.316 112.862 125.397 112.783C125.479 112.705 125.588 112.661 125.701 112.661L125.699 112.689ZM116.318 130.338C116.391 130.247 116.498 130.19 116.614 130.177C116.73 130.165 116.846 130.199 116.937 130.272L127.176 138.598C127.264 138.674 127.319 138.781 127.33 138.896C127.341 139.011 127.307 139.127 127.235 139.217C127.161 139.308 127.055 139.366 126.939 139.378C126.823 139.39 126.706 139.356 126.615 139.283L116.377 130.957C116.321 130.91 116.277 130.85 116.249 130.782C116.222 130.714 116.211 130.641 116.218 130.568C116.222 130.473 116.258 130.382 116.32 130.31L116.318 130.338ZM114.292 113.348C114.407 113.361 114.512 113.418 114.586 113.506C114.66 113.595 114.697 113.709 114.689 113.824L113.151 131.076C113.139 131.191 113.083 131.296 112.994 131.369C112.904 131.443 112.79 131.477 112.675 131.466C112.617 131.462 112.561 131.447 112.509 131.421C112.457 131.394 112.411 131.358 112.374 131.313C112.337 131.269 112.309 131.217 112.293 131.161C112.276 131.106 112.271 131.048 112.278 130.99L113.817 113.738C113.82 113.679 113.835 113.621 113.86 113.568C113.886 113.514 113.923 113.467 113.967 113.428C114.012 113.389 114.064 113.359 114.12 113.34C114.176 113.322 114.236 113.315 114.295 113.32L114.292 113.348ZM86.2381 133.935C86.3184 133.907 94.7061 131.767 97.5111 123.12C97.5474 123.008 97.6264 122.916 97.7308 122.863C97.8351 122.81 97.9563 122.8 98.0677 122.836C98.1766 122.875 98.2661 122.955 98.3176 123.059C98.3691 123.162 98.3786 123.282 98.3442 123.392C95.3869 132.511 86.5303 134.76 86.4431 134.787C86.3294 134.812 86.2103 134.792 86.1111 134.731C86.0119 134.67 85.9403 134.572 85.9115 134.459L85.9252 134.32C85.9264 134.226 85.9577 134.135 86.0146 134.061C86.0715 133.987 86.1508 133.933 86.2409 133.907L86.2381 133.935Z" fill="#46A834"/>
<path opacity="0.2" d="M80.0299 131.342C80.0503 131.227 80.115 131.125 80.21 131.058C80.3051 130.991 80.4228 130.964 80.5376 130.983C96.8907 133.702 124.479 129.994 147.616 121.962C162.403 116.829 192.723 93.9847 193.03 93.7399C193.12 93.6658 193.236 93.6306 193.353 93.6421C193.469 93.6536 193.577 93.7108 193.651 93.8012C193.687 93.8454 193.715 93.8964 193.732 93.9513C193.748 94.0062 193.754 94.0639 193.748 94.121C193.743 94.1781 193.726 94.2335 193.699 94.284C193.672 94.3346 193.635 94.3793 193.59 94.4155C193.286 94.6463 162.85 117.585 147.932 122.762C124.239 130.929 97.1474 134.602 80.3985 131.822C80.2882 131.803 80.1892 131.743 80.121 131.654C80.0528 131.565 80.0204 131.454 80.0299 131.342ZM157.169 117.864C157.188 117.749 157.251 117.647 157.345 117.578C157.438 117.509 157.555 117.481 157.67 117.498L185.744 121.95C185.801 121.958 185.856 121.978 185.906 122.008C185.955 122.038 185.998 122.077 186.033 122.124C186.067 122.171 186.091 122.224 186.105 122.28C186.118 122.336 186.12 122.394 186.111 122.451C186.092 122.566 186.029 122.669 185.935 122.738C185.841 122.806 185.724 122.835 185.609 122.818L157.552 118.339C157.442 118.323 157.342 118.264 157.273 118.176C157.204 118.088 157.172 117.977 157.183 117.865L157.169 117.864ZM147.378 122.157C147.436 122.057 147.53 121.984 147.641 121.953C147.752 121.922 147.871 121.935 147.972 121.99L171.187 135.113C171.288 135.17 171.363 135.264 171.394 135.376C171.425 135.487 171.411 135.607 171.354 135.708C171.298 135.809 171.203 135.883 171.092 135.914C170.98 135.946 170.861 135.931 170.76 135.875L147.544 122.759C147.47 122.717 147.409 122.655 147.368 122.58C147.328 122.505 147.311 122.42 147.318 122.335C147.322 122.262 147.343 122.191 147.381 122.129L147.378 122.157ZM150.912 120.631L157.116 95.3096C157.123 95.2477 157.144 95.1881 157.176 95.1346C157.208 95.0812 157.251 95.0351 157.302 94.9995C157.353 94.9639 157.411 94.9394 157.473 94.9278C157.534 94.9162 157.597 94.9178 157.657 94.9322C157.718 94.9467 157.775 94.9739 157.824 95.0119C157.874 95.0499 157.915 95.098 157.944 95.1529C157.974 95.2078 157.991 95.2683 157.996 95.3305C158 95.3927 157.991 95.4551 157.97 95.5136L151.766 120.835C151.747 120.949 151.684 121.051 151.59 121.118C151.496 121.186 151.379 121.213 151.265 121.194C151.151 121.175 151.049 121.112 150.982 121.018C150.914 120.924 150.887 120.808 150.906 120.693L150.912 120.631ZM133.805 126.338C133.886 126.254 133.997 126.205 134.113 126.202C134.23 126.199 134.343 126.242 134.427 126.322L150.94 142.006C151.026 142.086 151.076 142.197 151.08 142.314C151.083 142.432 151.04 142.546 150.96 142.631C150.879 142.717 150.768 142.767 150.651 142.771C150.533 142.774 150.42 142.731 150.334 142.651L133.796 126.937C133.748 126.891 133.711 126.835 133.687 126.773C133.664 126.711 133.656 126.644 133.662 126.578C133.678 126.474 133.729 126.379 133.808 126.31L133.805 126.338ZM140.788 105.063C140.904 105.07 141.012 105.123 141.089 105.21C141.166 105.297 141.206 105.41 141.2 105.526L140.284 124.757C140.266 124.864 140.21 124.96 140.125 125.028C140.041 125.096 139.934 125.13 139.826 125.125C139.718 125.119 139.616 125.074 139.538 124.998C139.461 124.922 139.415 124.821 139.407 124.713L140.327 105.447C140.335 105.331 140.388 105.223 140.474 105.146C140.561 105.069 140.675 105.029 140.791 105.035L140.788 105.063ZM125.699 112.689C125.757 112.688 125.815 112.699 125.868 112.72C125.922 112.742 125.972 112.774 126.013 112.815C126.054 112.856 126.087 112.904 126.109 112.958C126.131 113.012 126.142 113.069 126.142 113.128L126.142 127.93C126.142 127.988 126.131 128.044 126.109 128.098C126.087 128.151 126.054 128.199 126.014 128.239C125.973 128.28 125.925 128.312 125.871 128.334C125.818 128.356 125.761 128.367 125.704 128.366C125.588 128.365 125.478 128.318 125.397 128.236C125.315 128.154 125.269 128.044 125.268 127.928L125.261 113.125L125.265 113.083C125.268 112.97 125.316 112.862 125.397 112.784C125.479 112.705 125.588 112.661 125.701 112.661L125.699 112.689ZM116.318 130.338C116.391 130.247 116.498 130.19 116.614 130.177C116.73 130.165 116.846 130.199 116.937 130.272L127.176 138.598C127.264 138.674 127.319 138.781 127.33 138.896C127.341 139.011 127.307 139.127 127.235 139.217C127.161 139.308 127.055 139.366 126.939 139.378C126.823 139.39 126.706 139.356 126.615 139.283L116.377 130.957C116.321 130.91 116.277 130.85 116.249 130.782C116.222 130.714 116.211 130.641 116.218 130.568C116.222 130.473 116.258 130.382 116.32 130.31L116.318 130.338ZM114.292 113.348C114.407 113.361 114.512 113.418 114.586 113.506C114.66 113.595 114.697 113.709 114.689 113.824L113.151 131.076C113.139 131.191 113.083 131.296 112.994 131.369C112.904 131.443 112.79 131.477 112.675 131.466C112.617 131.462 112.561 131.447 112.509 131.421C112.457 131.394 112.411 131.358 112.374 131.313C112.337 131.269 112.309 131.217 112.293 131.161C112.276 131.106 112.271 131.048 112.278 130.99L113.817 113.738C113.82 113.679 113.835 113.621 113.86 113.568C113.886 113.514 113.923 113.467 113.967 113.428C114.012 113.389 114.064 113.359 114.12 113.34C114.176 113.322 114.236 113.315 114.295 113.32L114.292 113.348ZM86.2381 133.935C86.3184 133.907 94.706 131.767 97.5111 123.12C97.5474 123.008 97.6264 122.916 97.7308 122.863C97.8351 122.81 97.9563 122.8 98.0677 122.836C98.1766 122.875 98.2661 122.955 98.3176 123.059C98.3691 123.162 98.3786 123.282 98.3442 123.392C95.3869 132.511 86.5303 134.76 86.4431 134.787C86.3294 134.812 86.2103 134.792 86.1111 134.731C86.0119 134.67 85.9403 134.572 85.9115 134.459L85.9252 134.32C85.9264 134.226 85.9577 134.135 86.0146 134.061C86.0715 133.987 86.1508 133.933 86.2409 133.907L86.2381 133.935ZM80.0299 131.342C80.0503 131.227 80.115 131.125 80.21 131.058C80.3051 130.991 80.4228 130.964 80.5376 130.983C96.8907 133.702 124.479 129.994 147.616 121.962C162.403 116.829 192.723 93.9847 193.03 93.7399C193.12 93.6658 193.236 93.6306 193.353 93.6421C193.469 93.6536 193.577 93.7108 193.651 93.8012C193.687 93.8454 193.715 93.8964 193.732 93.9513C193.748 94.0062 193.754 94.0639 193.748 94.121C193.743 94.1781 193.726 94.2335 193.699 94.284C193.672 94.3346 193.635 94.3793 193.59 94.4155C193.286 94.6463 162.85 117.585 147.932 122.762C124.239 130.929 97.1474 134.602 80.3985 131.822C80.2882 131.803 80.1892 131.743 80.121 131.654C80.0528 131.565 80.0204 131.454 80.0299 131.342ZM157.169 117.864C157.188 117.749 157.251 117.647 157.345 117.578C157.438 117.509 157.555 117.481 157.67 117.498L185.744 121.95C185.801 121.958 185.856 121.978 185.906 122.008C185.955 122.038 185.998 122.077 186.033 122.124C186.067 122.171 186.091 122.224 186.105 122.28C186.118 122.336 186.12 122.394 186.111 122.451C186.092 122.566 186.029 122.669 185.935 122.738C185.841 122.806 185.724 122.835 185.609 122.818L157.552 118.339C157.442 118.323 157.342 118.264 157.273 118.176C157.204 118.088 157.172 117.977 157.183 117.865L157.169 117.864ZM147.378 122.157C147.436 122.057 147.53 121.984 147.641 121.953C147.752 121.922 147.871 121.935 147.972 121.99L171.187 135.113C171.288 135.17 171.363 135.264 171.394 135.376C171.425 135.487 171.411 135.607 171.354 135.708C171.298 135.809 171.203 135.883 171.092 135.914C170.98 135.946 170.861 135.931 170.76 135.875L147.544 122.759C147.47 122.717 147.409 122.655 147.368 122.58C147.328 122.505 147.311 122.42 147.318 122.335C147.322 122.262 147.343 122.191 147.381 122.129L147.378 122.157ZM150.912 120.631L157.116 95.3096C157.123 95.2477 157.144 95.1881 157.176 95.1346C157.208 95.0812 157.251 95.0351 157.302 94.9995C157.353 94.9639 157.411 94.9394 157.473 94.9278C157.534 94.9162 157.597 94.9178 157.657 94.9322C157.718 94.9467 157.775 94.9739 157.824 95.0119C157.874 95.0499 157.915 95.098 157.944 95.1529C157.974 95.2078 157.991 95.2683 157.996 95.3305C158 95.3927 157.991 95.4551 157.97 95.5136L151.766 120.835C151.747 120.949 151.684 121.051 151.59 121.118C151.496 121.186 151.379 121.213 151.265 121.194C151.151 121.175 151.049 121.112 150.982 121.018C150.914 120.924 150.887 120.808 150.906 120.693L150.912 120.631ZM133.805 126.338C133.886 126.254 133.997 126.205 134.113 126.202C134.23 126.199 134.343 126.242 134.427 126.322L150.94 142.006C150.983 142.045 151.017 142.093 151.041 142.146C151.065 142.199 151.078 142.256 151.08 142.314C151.081 142.373 151.072 142.43 151.051 142.485C151.031 142.539 151 142.589 150.96 142.631C150.92 142.674 150.872 142.708 150.819 142.732C150.766 142.756 150.709 142.769 150.651 142.771C150.593 142.772 150.535 142.763 150.48 142.742C150.426 142.722 150.376 142.69 150.334 142.651L133.796 126.937C133.748 126.891 133.711 126.835 133.687 126.773C133.664 126.711 133.656 126.644 133.662 126.578C133.678 126.474 133.729 126.379 133.808 126.31L133.805 126.338ZM140.788 105.063C140.904 105.07 141.012 105.123 141.089 105.21C141.166 105.297 141.206 105.41 141.2 105.526L140.284 124.757C140.266 124.864 140.21 124.96 140.125 125.028C140.041 125.096 139.934 125.13 139.826 125.125C139.718 125.119 139.616 125.074 139.538 124.998C139.461 124.922 139.415 124.821 139.407 124.713L140.327 105.447C140.335 105.331 140.388 105.223 140.474 105.146C140.561 105.069 140.675 105.029 140.791 105.035L140.788 105.063ZM125.699 112.689C125.757 112.688 125.815 112.699 125.868 112.72C125.922 112.742 125.972 112.774 126.013 112.815C126.054 112.856 126.087 112.904 126.109 112.958C126.131 113.012 126.142 113.069 126.142 113.128L126.142 127.93C126.142 127.988 126.131 128.044 126.109 128.098C126.087 128.151 126.054 128.199 126.014 128.239C125.973 128.28 125.925 128.312 125.871 128.334C125.818 128.356 125.761 128.367 125.704 128.366C125.588 128.365 125.478 128.318 125.397 128.236C125.315 128.154 125.269 128.044 125.268 127.928L125.261 113.125L125.265 113.083C125.268 112.97 125.316 112.862 125.397 112.784C125.479 112.705 125.588 112.661 125.701 112.661L125.699 112.689ZM116.318 130.338C116.391 130.247 116.498 130.19 116.614 130.177C116.73 130.165 116.846 130.199 116.937 130.272L127.176 138.598C127.264 138.674 127.319 138.781 127.33 138.896C127.341 139.011 127.307 139.127 127.235 139.217C127.161 139.308 127.055 139.366 126.939 139.378C126.823 139.39 126.706 139.356 126.615 139.283L116.377 130.957C116.321 130.91 116.277 130.85 116.249 130.782C116.222 130.714 116.211 130.641 116.218 130.568C116.222 130.473 116.258 130.382 116.32 130.31L116.318 130.338ZM114.292 113.348C114.407 113.361 114.512 113.418 114.586 113.506C114.66 113.595 114.697 113.709 114.689 113.824L113.151 131.076C113.139 131.191 113.083 131.296 112.994 131.369C112.904 131.443 112.79 131.477 112.675 131.466C112.617 131.462 112.561 131.447 112.509 131.421C112.457 131.394 112.411 131.358 112.374 131.313C112.337 131.269 112.309 131.217 112.293 131.161C112.276 131.106 112.271 131.048 112.278 130.99L113.817 113.738C113.82 113.679 113.835 113.621 113.86 113.568C113.886 113.514 113.923 113.467 113.967 113.428C114.012 113.389 114.064 113.359 114.12 113.34C114.176 113.322 114.236 113.315 114.295 113.32L114.292 113.348ZM86.2381 133.935C86.3184 133.907 94.706 131.767 97.5111 123.12C97.5474 123.008 97.6264 122.916 97.7308 122.863C97.8351 122.81 97.9563 122.8 98.0677 122.836C98.1766 122.875 98.2661 122.955 98.3176 123.059C98.3691 123.162 98.3786 123.282 98.3442 123.392C95.3869 132.511 86.5303 134.76 86.4431 134.787C86.3294 134.812 86.2103 134.792 86.1111 134.731C86.0119 134.67 85.9403 134.572 85.9115 134.459L85.9252 134.32C85.9264 134.226 85.9577 134.135 86.0146 134.061C86.0715 133.987 86.1508 133.933 86.2409 133.907L86.2381 133.935Z" fill="white"/>
<ellipse cx="165.157" cy="154.934" rx="24.4321" ry="1.77688" fill="#4F4F4F" fill-opacity="0.13"/>
<path d="M73.0208 101.253L169.798 100.551L172.493 166.346L72.2822 165.419L73.0208 101.253Z" fill="#96D9E9"/>
<path d="M73.0166 101.253L118.822 64.1905C119.763 63.4299 120.938 63.017 122.148 63.0215C123.358 63.026 124.529 63.4475 125.465 64.2151L169.798 100.551" fill="#96D9E9"/>
<g opacity="0.3">
<path opacity="0.3" d="M73.0166 101.253L118.822 64.1905C119.763 63.4299 120.938 63.017 122.148 63.0215C123.358 63.026 124.529 63.4475 125.465 64.2151L169.798 100.551" fill="black"/>
</g>
<path d="M72.2826 165.419C72.1636 165.304 79.91 156.844 89.589 146.525C99.2679 136.206 107.207 127.93 107.33 128.041C107.453 128.152 99.7028 136.612 90.0239 146.935C80.3449 157.258 72.4057 165.53 72.2826 165.419Z" fill="#263238"/>
<path d="M172.493 166.346C172.37 166.457 164.824 158.169 155.642 147.838C146.459 137.507 139.115 129.038 139.23 128.927C139.345 128.816 146.898 137.104 156.081 147.44C165.263 157.775 172.624 166.236 172.493 166.346Z" fill="#263238"/>
<g opacity="0.5">
<path opacity="0.5" d="M169.798 100.551L121.199 139.373L73.0215 101.253" fill="black"/>
</g>
<path d="M77.8918 104.847L77.7441 74.6244L162.483 73.6192L163.439 105.421L121.195 138.865L77.8918 104.847Z" fill="#FAFAFA"/>
<path d="M77.8917 104.847C77.8917 104.847 78.1666 105.052 78.6876 105.458L80.9853 107.247L89.7452 114.087L121.26 138.795H121.153L163.385 105.339L163.344 105.425C163.164 99.3611 162.971 92.9933 162.774 86.5188C162.647 82.1573 162.516 77.8492 162.388 73.6232L162.495 73.7257L77.7563 74.6899L77.8219 74.6243C77.8547 84.1309 77.8835 91.6845 77.8999 96.8624C77.8999 99.4514 77.8999 101.445 77.8999 102.795V104.326C77.8999 104.67 77.8999 104.847 77.8999 104.847C77.8999 104.847 77.8999 104.674 77.8999 104.334C77.8999 103.993 77.8999 103.481 77.8999 102.812C77.8999 101.462 77.8712 99.4719 77.8506 96.887C77.8178 91.7009 77.7686 84.1432 77.707 74.6243V74.5545H77.7727L162.516 73.5165H162.618V73.6232C162.745 77.8451 162.873 82.1532 163.004 86.5147C163.201 92.9933 163.389 99.357 163.574 105.425V105.479L163.533 105.511L121.272 138.938L121.219 138.979L121.166 138.938L89.6713 114.148L80.9648 107.276L78.6671 105.47C78.1502 105.06 77.8917 104.847 77.8917 104.847Z" fill="#263238"/>
<path d="M149.09 88.8412C149.09 88.8986 136.129 89.0258 120.148 89.1202C104.167 89.2145 91.2012 89.2515 91.2012 89.1899C91.2012 89.1284 104.158 89.0053 120.148 88.9068C136.137 88.8084 149.09 88.7796 149.09 88.8412Z" fill="#263238"/>
<path d="M149.09 97.3754C149.09 97.4369 136.129 97.5641 120.148 97.6585C104.167 97.7528 91.2012 97.7857 91.2012 97.7282C91.2012 97.6708 104.158 97.5436 120.148 97.4451C136.137 97.3466 149.09 97.3179 149.09 97.3754Z" fill="#263238"/>
<path d="M149.09 107.218C149.09 107.276 136.129 107.403 120.148 107.502C104.167 107.6 91.2012 107.629 91.2012 107.567C91.2012 107.506 104.158 107.383 120.148 107.288C136.137 107.194 149.09 107.157 149.09 107.218Z" fill="#263238"/>
<path d="M149.092 117.057C149.092 117.119 136.729 117.238 121.478 117.332C106.228 117.427 93.8654 117.451 93.8613 117.394C93.8572 117.336 106.224 117.213 121.478 117.119C136.733 117.024 149.092 117 149.092 117.057Z" fill="#263238"/>
<path d="M138.249 125.694C138.138 125.713 138.026 125.721 137.913 125.719L136.936 125.747L133.359 125.805L121.546 125.973C116.934 126.051 112.754 126.076 109.73 126.08H106.152H105.175C105.063 126.082 104.95 126.075 104.839 126.059C104.95 126.04 105.063 126.032 105.175 126.035L106.152 126.01L109.73 125.948L121.542 125.78C126.154 125.702 130.335 125.678 133.355 125.674H136.936H137.913C138.025 125.673 138.138 125.68 138.249 125.694V125.694Z" fill="#263238"/>
<path d="M127.34 133.999C127.34 134.056 124.579 134.105 121.186 134.105C117.793 134.105 115.031 134.056 115.031 133.999C115.031 133.941 117.797 133.892 121.186 133.892C124.575 133.892 127.34 133.937 127.34 133.999Z" fill="#263238"/>
<path d="M115.114 125.01C114.69 125.01 114.246 125.01 113.802 124.983V124.697C114.25 124.716 114.701 124.724 115.129 124.724H115.338V125.01H115.102H115.114ZM117.286 124.941L117.267 124.655C117.78 124.621 118.294 124.575 118.811 124.514L118.845 124.8C118.324 124.857 117.804 124.907 117.286 124.941V124.941ZM111.884 124.861C111.383 124.815 110.862 124.762 110.341 124.697L110.375 124.411C110.893 124.476 111.406 124.533 111.919 124.575L111.884 124.861ZM120.759 124.503L120.701 124.224C121.207 124.125 121.709 124.015 122.199 123.889L122.272 124.167C121.766 124.293 121.257 124.407 120.748 124.503H120.759ZM108.411 124.411C107.906 124.323 107.393 124.228 106.891 124.125L106.949 123.847C107.451 123.95 107.96 124.045 108.461 124.129L108.411 124.411ZM104.992 123.698C104.487 123.576 103.985 123.443 103.495 123.317L103.572 123.042C104.059 123.18 104.56 123.313 105.062 123.424L104.992 123.698ZM124.105 123.607L124.008 123.336C124.495 123.168 124.973 122.981 125.436 122.783L125.552 123.042C125.097 123.244 124.61 123.45 124.116 123.607H124.105ZM101.643 122.737C100.721 122.436 100.184 122.219 100.177 122.219L100.289 121.952C100.289 121.952 100.821 122.166 101.736 122.467L101.643 122.737ZM127.292 122.192L127.149 121.941C127.593 121.697 128.033 121.43 128.458 121.152L128.616 121.392C128.199 121.674 127.759 121.925 127.304 122.192H127.292ZM130.186 120.267L130.009 120.042C130.418 119.73 130.819 119.409 131.201 119.085L131.39 119.303C131.016 119.638 130.611 119.954 130.198 120.267H130.186ZM132.818 118.01L132.617 117.804C132.98 117.45 133.339 117.084 133.682 116.714L133.895 116.908C133.547 117.282 133.2 117.652 132.83 118.01H132.818ZM135.152 115.448L134.925 115.273C135.245 114.892 135.554 114.465 135.843 114.057L136.082 114.221C135.797 114.636 135.477 115.063 135.164 115.444L135.152 115.448ZM137.136 112.616L136.889 112.467C137.155 112.032 137.406 111.586 137.641 111.144L137.896 111.278C137.672 111.724 137.406 112.174 137.147 112.616H137.136ZM138.73 109.547L138.467 109.432C138.664 108.979 138.853 108.502 139.034 108.026L139.308 108.125C139.139 108.609 138.949 109.086 138.741 109.547H138.73ZM139.906 106.303L139.629 106.222C139.771 105.742 139.899 105.247 140.015 104.755L140.296 104.82C140.192 105.315 140.061 105.815 139.918 106.295L139.906 106.303ZM140.655 102.936L140.37 102.891C140.447 102.395 140.508 101.888 140.559 101.388L140.844 101.415C140.809 101.922 140.744 102.433 140.667 102.936H140.655ZM140.964 99.5052H140.674C140.674 99.2841 140.674 99.063 140.674 98.8419C140.674 98.5559 140.674 98.27 140.674 97.9879H140.964C140.964 98.2738 140.964 98.5598 140.964 98.8495C140.983 99.0515 140.979 99.2765 140.975 99.5014L140.964 99.5052ZM142.419 99.1735C142.21 99.1735 142.006 99.1735 141.797 99.1735V98.8876C142.305 98.9162 142.814 98.9162 143.321 98.8876L143.341 99.1735C143.059 99.1583 142.743 99.1697 142.422 99.1697L142.419 99.1735ZM139.864 98.9448C139.353 98.8533 138.846 98.7349 138.348 98.5902L138.429 98.3158C138.917 98.4575 139.413 98.5733 139.914 98.6627L139.864 98.9448ZM145.286 98.88L145.228 98.6017C145.726 98.5032 146.218 98.3759 146.702 98.2205L146.79 98.4911C146.301 98.6479 145.802 98.7764 145.297 98.8762L145.286 98.88ZM136.534 97.9078C136.06 97.6961 135.599 97.4581 135.152 97.1949L135.299 96.951C135.737 97.207 136.189 97.4387 136.654 97.6448L136.534 97.9078ZM148.6 97.7287L148.473 97.4732C148.927 97.2437 149.367 96.9891 149.793 96.7108L149.951 96.9471C149.515 97.2354 149.063 97.4989 148.596 97.7363L148.6 97.7287ZM133.551 96.1008C133.296 95.8988 133.042 95.6815 132.799 95.4565C132.66 95.3269 132.525 95.1973 132.413 95.0753L132.617 94.8732C132.745 95.0029 132.876 95.1287 133.003 95.2545C133.242 95.4756 133.489 95.6853 133.74 95.8873L133.551 96.1008ZM140.551 96.0779C140.493 95.5709 140.42 95.0677 140.335 94.5797L140.62 94.5301C140.709 95.0257 140.782 95.5366 140.836 96.0551L140.551 96.0779ZM151.502 95.7844L151.309 95.5709C151.692 95.2381 152.055 94.8843 152.397 94.5111L152.609 94.7055C152.26 95.0878 151.889 95.4505 151.498 95.792L151.502 95.7844ZM131.17 93.5618C130.881 93.1326 130.643 92.6722 130.46 92.1894L130.73 92.0941C130.904 92.5606 131.129 93.0068 131.402 93.4246L131.17 93.5618ZM153.825 93.1806L153.586 93.0167C153.806 92.7117 154.014 92.3876 154.211 92.0636C154.276 91.9568 154.342 91.8501 154.404 91.7395L154.655 91.8806C154.589 91.9911 154.527 92.1017 154.462 92.2084C154.257 92.5706 154.041 92.8947 153.821 93.2073L153.825 93.1806ZM139.933 92.7117C139.795 92.2084 139.64 91.7243 139.47 91.2706L139.744 91.1715C139.914 91.6328 140.072 92.1246 140.211 92.6354L139.933 92.7117ZM130.433 90.2832H130.144C130.162 89.7587 130.277 89.2419 130.483 88.7583L130.75 88.8689C130.56 89.3179 130.453 89.7969 130.433 90.2832ZM155.515 90.207L155.253 90.0964C155.446 89.6466 155.639 89.17 155.805 88.6859L156.078 88.7774C155.901 89.2539 155.712 89.7343 155.511 90.1879L155.515 90.207ZM138.679 89.597C138.441 89.1571 138.162 88.7398 137.846 88.3504L138.07 88.1674C138.397 88.5711 138.687 89.0037 138.934 89.4598L138.679 89.597ZM131.861 87.4049L131.683 87.1838C132.101 86.8517 132.581 86.6054 133.096 86.4595L133.173 86.734C132.695 86.8636 132.248 87.0852 131.857 87.3859L131.861 87.4049ZM136.414 87.1686C135.979 86.9263 135.508 86.755 135.017 86.6615L135.071 86.3794C135.593 86.481 136.094 86.6638 136.557 86.9208L136.414 87.1686ZM156.642 86.9436L156.36 86.8712C156.484 86.4175 156.603 85.9334 156.727 85.3958L157.008 85.4568C156.881 85.9829 156.761 86.4709 156.638 86.9246L156.642 86.9436ZM157.414 83.5888L157.128 83.5316L157.425 82.0372L157.707 82.0906L157.414 83.5888ZM158.1 80.2302L157.819 80.1654C157.942 79.6164 158.066 79.1284 158.205 78.6786L158.482 78.7548C158.332 79.1818 158.209 79.6659 158.085 80.2111L158.1 80.2302ZM159.065 76.9554L158.795 76.8563C158.967 76.3643 159.17 75.8831 159.401 75.4152L159.659 75.5448C159.431 75.9986 159.227 76.4644 159.05 76.9401L159.065 76.9554ZM160.674 73.978L160.439 73.8064C160.747 73.3928 161.084 73.0004 161.446 72.6322L161.651 72.8305C161.295 73.1842 160.963 73.5612 160.659 73.9589L160.674 73.978ZM163.086 71.6029L162.912 71.3704C163.333 71.0689 163.769 70.7901 164.22 70.5355L164.363 70.7871C163.916 71.0326 163.484 71.3051 163.071 71.6029H163.086ZM166.077 69.9598L165.961 69.6968C166.366 69.529 166.794 69.3689 167.238 69.2202L167.331 69.4909C166.879 69.6167 166.459 69.773 166.061 69.9407L166.077 69.9598Z" fill="#263238"/>
<path d="M155.318 66.5183L148.764 84.5265L162.531 73.7747L215.151 54.6956L155.318 66.5183Z" fill="#2AA3BF"/>
<path opacity="0.1" d="M155.318 66.5183L148.764 84.5265L162.531 73.7747L215.151 54.6956L155.318 66.5183Z" fill="black"/>
<path d="M162.531 73.7747L215.151 54.6956L171.989 96.8119L162.531 73.7747Z" fill="#2AA3BF"/>
<path d="M155.318 66.5185L133.454 52.3998L215.151 54.6958L155.318 66.5185Z" fill="#2AA3BF"/>
</svg>
