<svg width="25" height="38" viewBox="0 0 25 38" fill="none" xmlns="http://www.w3.org/2000/svg">
<path d="M18 30.6299H29.9999V35.5049H18V30.6299Z" fill="#FED2A4"/>
<path d="M18.001 30.6304H22.8299V35.5052H18.001V30.6304Z" fill="#FFBD86"/>
<path d="M9 14.5V12.0625C9 11.234 9.67153 10.5625 10.5 10.5625C11.3285 10.5625 12 9.89097 12 9.0625C12 8.23403 12.6715 7.5625 13.5 7.5625C14.3285 7.5625 15 8.23403 15 9.0625C15 9.89097 15.6715 10.5625 16.5 10.5625C17.3285 10.5625 18 11.234 18 12.0625V14.4951L9 14.5Z" fill="#00E1F0"/>
<path d="M14.9483 8.67458C14.9145 8.79824 14.8972 8.92855 14.8972 9.0628C14.8972 9.47614 14.7291 9.85189 14.4577 10.1232C14.1863 10.3946 13.8116 10.5626 13.3973 10.5626C12.5687 10.5626 11.8974 11.2339 11.8974 12.0625V14.498L9 14.4999V12.0625C9 11.2339 9.67125 10.5626 10.4999 10.5626C10.9143 10.5626 11.289 10.3945 11.5603 10.1232C11.8317 9.8518 11.9997 9.47614 11.9997 9.0628C11.9997 8.64843 12.1678 8.27371 12.4391 8.00239C12.7105 7.73099 13.0852 7.56299 13.4995 7.56299C13.9139 7.56299 14.2886 7.73108 14.5599 8.00239C14.7436 8.18586 14.8798 8.41668 14.9483 8.67458Z" fill="#02CFE0"/>
<path d="M48 35.2236V36.9158C48 37.2786 47.7066 37.5721 47.3438 37.5721H0.65625C0.294375 37.5721 0 37.2786 0 36.9158V35.2236C0 34.8608 0.294375 34.5674 0.65625 34.5674H47.3438C47.7066 34.5674 48 34.8608 48 35.2236Z" fill="#0065FF"/>
<path d="M5.505 37.5721H0.65625C0.294375 37.5721 0 37.2786 0 36.9158V35.2236C0 34.8608 0.294375 34.5674 0.65625 34.5674H5.505C5.13188 34.5674 4.82906 34.8702 4.82906 35.2433V36.8961C4.82906 37.2702 5.13188 37.5721 5.505 37.5721Z" fill="#003CBF"/>
<path d="M41.9999 16.5625L40.3748 17.5H7.06238L6 16.5625V14.2188C6 13.8563 6.29381 13.5625 6.65625 13.5625H41.3437C41.7061 13.5625 41.9999 13.8563 41.9999 14.2188V16.5625Z" fill="#FED2A4"/>
<path d="M10.83 13.5625V17.4998H7.06298L6.00098 16.5623V14.2188C6.00098 13.8563 6.29479 13.5625 6.65723 13.5625H10.83Z" fill="#FFBD86"/>
<path d="M42 16.563V19.8105C42 26.3036 36.7359 31.5677 30.2438 31.5677H17.7572C11.2641 31.5677 6 26.3036 6 19.8105V16.563H42Z" fill="#FFF3DE"/>
<path d="M22.9406 31.5676H17.7572C11.2641 31.5676 6 26.3036 6 19.8104V16.563L6.00094 16.562H10.8291V19.4561C10.8291 26.1451 16.2516 31.5676 22.9406 31.5676Z" fill="#FFE5C2"/>
<path d="M33.0206 21.6929V22.441C33.0206 24.9788 30.9628 27.0366 28.425 27.0366H24V25.6322C24 23.0944 26.0578 21.0366 28.5956 21.0366H32.3644C32.7272 21.0366 33.0206 21.3301 33.0206 21.6929Z" fill="#7FF0F7"/>
<path d="M31.6322 21.0366C29.0175 21.0366 26.8978 23.1563 26.8978 25.771V27.0366H24V25.6322C24 23.0944 26.0578 21.0366 28.5956 21.0366H31.6322Z" fill="#00E1F0"/>
<path d="M24.0099 25.6322V27.0366H19.5849C17.0471 27.0366 14.9893 24.9788 14.9893 22.441V21.6929C14.9893 21.3301 15.2827 21.0366 15.6455 21.0366H19.4143C21.9521 21.0366 24.0099 23.0944 24.0099 25.6322Z" fill="#7FF0F7"/>
<path d="M21.6558 27.0366H19.5849C17.0468 27.0366 14.9893 24.9791 14.9893 22.441V21.6929C14.9893 21.3304 15.2831 21.0366 15.6455 21.0366H16.9214V22.3022C16.9214 24.9169 19.0402 27.0366 21.6558 27.0366Z" fill="#00E1F0"/>
<path d="M24.0102 26.1665V27.0365H22.7023L19.0986 24.6393C18.7658 24.418 18.6748 23.968 18.897 23.6352C19.1183 23.3024 19.5683 23.2115 19.9011 23.4336L24.0102 26.1665Z" fill="#02CFE0"/>
<path d="M28.9219 24.6393L26.8978 25.9856L25.3181 27.0365H24V26.174L27.2297 24.0253L28.1194 23.4337C28.4522 23.2125 28.9022 23.3025 29.1234 23.6353C29.3456 23.9681 29.2547 24.4181 28.9219 24.6393Z" fill="#02CFE0"/>
<path d="M27.2297 24.0254C27.0159 24.5663 26.8978 25.1551 26.8978 25.771V25.9857L25.3181 27.0366H24V26.1741L27.2297 24.0254Z" fill="#02CFE0"/>
</svg>
