<svg width="10" height="8" viewBox="0 0 10 8" fill="none" xmlns="http://www.w3.org/2000/svg">
<path fill-rule="evenodd" clip-rule="evenodd" d="M2.9971 1.01309C3.16458 0.708701 3.34677 0.505223 3.61713 0.397617C4.11255 0.200625 5.88688 0.200625 6.38191 0.397656C6.65211 0.505205 6.83437 0.708647 7.00199 1.01297L7.19041 1.37428C7.19472 1.38144 7.19868 1.38774 7.20224 1.39316L7.21824 1.41503C7.30409 1.50858 7.44776 1.56509 7.54259 1.56509C8.43927 1.56509 9.16634 2.292 9.16634 3.18842V5.603C9.16634 6.74643 8.23893 7.67384 7.09551 7.67384H2.90384C1.76013 7.67384 0.833008 6.74656 0.833008 5.603V3.18842C0.833008 2.292 1.56008 1.56509 2.45676 1.56509C2.55125 1.56509 2.69512 1.50849 2.78111 1.41503C2.78283 1.41316 2.78507 1.41037 2.78778 1.40668L2.80921 1.37382L2.9971 1.01309ZM6.45453 1.31449C6.35038 1.1254 6.25626 1.02033 6.15078 0.97835L6.10106 0.961822C5.67225 0.84062 4.18068 0.846129 3.84816 0.97835C3.74273 1.02031 3.64871 1.12532 3.54468 1.31438L3.38432 1.62442L3.34485 1.69585C3.31191 1.75065 3.27895 1.79691 3.24132 1.83792C3.03029 2.06729 2.71811 2.19009 2.45676 2.19009L2.38838 2.19239C1.86874 2.22753 1.45801 2.66018 1.45801 3.18842V5.603C1.45801 6.4014 2.10534 7.04884 2.90384 7.04884H7.09551C7.89375 7.04884 8.54134 6.40125 8.54134 5.603V3.18842C8.54134 2.63721 8.09412 2.19009 7.54259 2.19009L7.47005 2.18705C7.22482 2.16688 6.94938 2.0464 6.75778 1.83764C6.72064 1.79718 6.68786 1.75125 6.65511 1.69691C6.65041 1.68911 6.64457 1.67885 6.63786 1.66671L6.58949 1.57598L6.45453 1.31449Z" fill="white"/>
<path d="M7.29346 2.54163C7.52358 2.54163 7.71013 2.72817 7.71013 2.95829C7.71013 3.17197 7.54928 3.34809 7.34206 3.37216L7.29346 3.37496C7.05959 3.37496 6.87305 3.18841 6.87305 2.95829C6.87305 2.74461 7.0339 2.5685 7.24112 2.54443L7.29346 2.54163Z" fill="white"/>
<path fill-rule="evenodd" clip-rule="evenodd" d="M3.3623 4.46997C3.3623 3.56571 4.09513 2.83289 4.99939 2.83289C5.90364 2.83289 6.63647 3.56571 6.63647 4.46997C6.63647 5.37422 5.90364 6.10705 4.99939 6.10705C4.09513 6.10705 3.3623 5.37422 3.3623 4.46997ZM6.01147 4.46997C6.01147 3.91089 5.55847 3.45789 4.99939 3.45789C4.44031 3.45789 3.9873 3.91089 3.9873 4.46997C3.9873 5.02905 4.44031 5.48205 4.99939 5.48205C5.55847 5.48205 6.01147 5.02905 6.01147 4.46997Z" fill="white"/>
</svg>
