<svg width="35" height="35" viewBox="0 0 35 35" fill="none" xmlns="http://www.w3.org/2000/svg">
<path d="M27.9964 22.7653C28.2881 22.7653 28.5245 22.5288 28.5245 22.2371C28.5245 21.9454 28.2881 21.709 27.9964 21.709C27.7047 21.709 27.4683 21.9454 27.4683 22.2371C27.4683 22.5288 27.7047 22.7653 27.9964 22.7653Z" fill="#2AA3BF"/>
<path d="M17.5 35C27.165 35 35 27.165 35 17.5C35 7.83502 27.165 0 17.5 0C7.83502 0 0 7.83502 0 17.5C0 27.165 7.83502 35 17.5 35Z" fill="#1FA0BD"/>
<path d="M9.31763 26.6421L17.6745 34.9989C26.2827 34.9149 33.4038 28.6156 34.7654 20.3733L20.5088 6.1167L9.31763 26.6421Z" fill="#1FA0BD" fill-opacity="0.29"/>
<path d="M19.4833 7.14209H9.15113C9.15113 8.88888 7.73507 10.3049 5.98828 10.3049V17.8226C5.98828 20.6043 7.15354 23.2588 9.20104 25.1418L12.1875 27.8881C13.3915 28.9954 15.243 28.9954 16.4471 27.8881L19.4335 25.1418C21.4811 23.2588 22.6463 20.6043 22.6463 17.8226V10.305C20.8994 10.305 19.4833 8.88895 19.4833 7.14209Z" fill="#1FA0BD" fill-opacity="0.48"/>
<path d="M19.4834 7.14209H14.3206V28.7185C15.0833 28.7177 15.8459 28.441 16.447 27.8882L19.4335 25.1419C21.4811 23.2589 22.6462 20.6044 22.6462 17.8226V10.305C20.8995 10.305 19.4834 8.88895 19.4834 7.14209Z" fill="#2AA3BF"/>
<path d="M14.3171 29.744C13.2682 29.744 12.2653 29.3529 11.4932 28.643L8.50674 25.8966C6.25443 23.8254 4.96265 20.8825 4.96265 17.8226V9.27962H5.98804C7.16662 9.27962 8.1255 8.32074 8.1255 7.14209V6.1167H20.5085V7.14209C20.5085 8.32074 21.4673 9.27962 22.646 9.27962H23.6714V17.8226C23.6714 20.8825 22.3797 23.8254 20.1273 25.8966L17.1408 28.643C16.3689 29.3529 15.366 29.744 14.3171 29.744ZM7.01356 11.2035V17.8226C7.01356 20.3105 8.06377 22.7031 9.89498 24.3871L12.8815 27.1334C13.6865 27.8737 14.9478 27.8737 15.7528 27.1334L18.7393 24.3871C20.5705 22.7031 21.6207 20.3105 21.6207 17.8226V11.2035C20.1337 10.8278 18.9605 9.65457 18.5849 8.16755H10.0494C9.67377 9.65457 8.50059 10.8278 7.01356 11.2035Z" fill="white"/>
<path d="M22.6463 9.27962C21.4677 9.27962 20.5089 8.32074 20.5089 7.14209V6.1167H14.3206V8.16748H18.585C18.9607 9.6545 20.1338 10.8278 21.6209 11.2034V17.8226C21.6209 20.3104 20.5707 22.7031 18.7394 24.387L15.753 27.1334C15.3513 27.5027 14.8361 27.6877 14.3206 27.6885V29.7439C15.3682 29.7431 16.3698 29.3522 17.1411 28.643L20.1275 25.8966C22.3799 23.8254 23.6716 20.8825 23.6716 17.8226V9.27962H22.6463Z" fill="#E9EDF5"/>
<path d="M13.1138 20.7571L9.98608 17.6294L11.4362 16.1793L13.1138 17.8569L17.1983 13.7725L18.6484 15.2226L13.1138 20.7571Z" fill="white"/>
<path d="M17.198 13.7725L14.3203 16.6502V19.5504L18.6481 15.2226L17.198 13.7725Z" fill="#E9EDF5"/>
<path d="M24.5249 27.1309C27.7849 27.1309 30.4277 24.4881 30.4277 21.228C30.4277 17.968 27.7849 15.3252 24.5249 15.3252C21.2649 15.3252 18.6221 17.968 18.6221 21.228C18.6221 24.4881 21.2649 27.1309 24.5249 27.1309Z" fill="white"/>
<path d="M30.4278 21.2282C30.4278 17.9713 27.7899 15.3307 24.5342 15.3257V27.1309C27.7899 27.1258 30.4278 24.4852 30.4278 21.2282Z" fill="#E9EDF5"/>
<path d="M24.5249 28.6929C20.4087 28.6929 17.0598 25.3441 17.0598 21.2278C17.0598 17.1116 20.4087 13.7627 24.5249 13.7627C28.6412 13.7627 31.99 17.1116 31.99 21.2278C31.99 25.3441 28.6413 28.6929 24.5249 28.6929ZM24.5249 15.8135C21.5395 15.8135 19.1106 18.2424 19.1106 21.2278C19.1106 24.2133 21.5395 26.6421 24.5249 26.6421C27.5104 26.6421 29.9393 24.2133 29.9393 21.2278C29.9393 18.2424 27.5105 15.8135 24.5249 15.8135Z" fill="#636978"/>
<path d="M31.9901 21.2282C31.9901 17.115 28.6463 13.7682 24.5342 13.7632V15.8141C27.5155 15.8191 29.9394 18.2458 29.9394 21.2282C29.9394 24.2105 27.5155 26.6372 24.5342 26.6423V28.6932C28.6463 28.6882 31.9901 25.3413 31.9901 21.2282Z" fill="#414952"/>
<path d="M27.0977 21.8983C27.0951 21.258 26.5754 20.7408 25.9357 20.7408C25.9341 20.7408 25.9325 20.7408 25.931 20.7408C25.6784 20.7417 25.2243 20.7113 25.0344 20.4959C24.8703 20.3096 24.8704 19.9634 24.884 19.8469C24.9041 19.724 25.0491 18.6471 24.0048 18.4739C22.7725 18.2696 22.5891 19.4785 22.5891 19.4785C22.5858 19.4981 22.5796 19.5385 22.5735 19.5963L22.3137 19.6C21.9362 19.6054 21.6346 19.9157 21.64 20.2933C21.6453 20.6675 21.9503 20.9671 22.3233 20.9671C22.3266 20.9671 22.3299 20.9671 22.3333 20.967L22.701 20.9617C22.7695 21.1879 22.8681 21.4219 23.0083 21.6503L22.6637 21.9458C22.3771 22.1915 22.344 22.6231 22.5897 22.9097C22.725 23.0674 22.9164 23.1484 23.109 23.1484C23.2665 23.1484 23.4248 23.0942 23.5537 22.9837L23.9946 22.6056C24.291 22.7757 24.605 22.887 24.9133 22.9573L24.881 23.4019C24.8537 23.7785 25.1368 24.1059 25.5133 24.1332C25.5302 24.1344 25.5469 24.1351 25.5635 24.1351C25.9186 24.1351 26.2185 23.8606 26.2446 23.501L26.28 23.0132C26.7553 22.8659 27.0998 22.4218 27.0977 21.8983Z" fill="#D6F7FF"/>
<path d="M25.9358 20.7408C25.9342 20.7408 25.9326 20.7408 25.931 20.7408C25.6784 20.7417 25.2244 20.7114 25.0345 20.4959C24.8704 20.3096 24.8704 19.9634 24.8841 19.8469C24.8998 19.7509 24.9915 19.0736 24.5342 18.6987V22.8489C24.6604 22.8925 24.7873 22.9285 24.9133 22.9572L24.881 23.4019C24.8537 23.7785 25.1368 24.1059 25.5134 24.1332C25.5302 24.1345 25.5469 24.1351 25.5635 24.1351C25.9186 24.1351 26.2186 23.8606 26.2446 23.501L26.28 23.0132C26.7554 22.866 27.0999 22.4219 27.0978 21.8984C27.0952 21.2581 26.5755 20.7408 25.9358 20.7408Z" fill="#2AA3BF"/>
<path d="M20.4212 21.0967C20.2195 21.0967 20.0559 21.2603 20.0559 21.462C20.0559 21.6637 20.2195 21.8273 20.4212 21.8273C20.6229 21.8273 20.7865 21.6637 20.7865 21.462C20.7865 21.2603 20.623 21.0967 20.4212 21.0967Z" fill="#D6F7FF"/>
<path d="M27.434 24.9373C27.8649 24.9373 28.2142 24.588 28.2142 24.1571C28.2142 23.7263 27.8649 23.377 27.434 23.377C27.0031 23.377 26.6538 23.7263 26.6538 24.1571C26.6538 24.588 27.0031 24.9373 27.434 24.9373Z" fill="#2AA3BF"/>
<path d="M22.9373 25.1953C23.304 24.9687 23.4175 24.4877 23.1909 24.121C22.9642 23.7543 22.4833 23.6408 22.1166 23.8675C21.7499 24.0941 21.6364 24.5751 21.863 24.9418C22.0897 25.3085 22.5706 25.422 22.9373 25.1953Z" fill="#D6F7FF"/>
<path d="M23.7163 17.7383C24.0917 17.7383 24.396 17.434 24.396 17.0586C24.396 16.6832 24.0917 16.3789 23.7163 16.3789C23.3409 16.3789 23.0366 16.6832 23.0366 17.0586C23.0366 17.434 23.3409 17.7383 23.7163 17.7383Z" fill="#D6F7FF"/>
</svg>
