<svg width="20" height="21" viewBox="0 0 20 21" fill="none" xmlns="http://www.w3.org/2000/svg">
<path d="M10.0464 0C10.0409 0.00545701 10.03 0.00545701 10.0136 0.00545701C4.49113 0.00545701 0 4.49658 0 10.0191C0 12.2728 0.76944 14.4611 2.17735 16.2237L0.720327 19.607C0.600272 19.8854 0.731241 20.2073 1.00409 20.3219C1.10232 20.3656 1.21146 20.3765 1.31514 20.3601L6.65757 19.4215C7.72714 19.809 8.85129 20.0054 9.98635 20C15.5089 20 20 15.5088 20 9.98633C20.0109 4.48021 15.5525 0.00545701 10.0464 0ZM9.9918 18.914C8.9386 18.914 7.89631 18.723 6.90859 18.3519C6.81582 18.3137 6.71759 18.3083 6.61937 18.3247L2.12278 19.1105L3.31241 16.3438C3.39427 16.1528 3.36152 15.929 3.2251 15.7708C2.58117 15.0232 2.06821 14.1719 1.70805 13.2496C1.30423 12.2183 1.09686 11.1214 1.09686 10.0136C1.09686 5.09139 5.10231 1.0914 10.0191 1.0914C14.925 1.08049 18.9086 5.04774 18.914 9.95359C18.914 9.96451 18.914 9.97542 18.914 9.98633C18.914 14.914 14.9086 18.914 9.9918 18.914Z" fill="white"/>
<path d="M9.56622 8.00586H6.61943C6.3193 8.00586 6.07373 8.25143 6.07373 8.55156C6.07373 8.8517 6.3193 9.09726 6.61943 9.09726H9.56622C9.86636 9.09726 10.1119 8.8517 10.1119 8.55156C10.1119 8.25143 9.86636 8.00586 9.56622 8.00586Z" fill="white"/>
<path d="M13.3861 10.7344H6.61943C6.3193 10.7344 6.07373 10.9799 6.07373 11.2801C6.07373 11.5802 6.3193 11.8258 6.61943 11.8258H13.3861C13.6863 11.8258 13.9319 11.5802 13.9319 11.2801C13.9319 10.9799 13.6863 10.7344 13.3861 10.7344Z" fill="white"/>
</svg>
