<svg width="28" height="28" viewBox="0 0 28 28" fill="none" xmlns="http://www.w3.org/2000/svg">
<path fill-rule="evenodd" clip-rule="evenodd" d="M2.3335 14.0172C2.3335 7.87132 7.24516 2.33301 14.0235 2.33301C20.6502 2.33301 25.6668 7.76616 25.6668 13.9821C25.6668 21.1913 19.7868 25.6663 14.0002 25.6663C12.0868 25.6663 9.9635 25.1522 8.26016 24.1474C7.66516 23.7852 7.1635 23.5165 6.52183 23.7268L4.16516 24.4278C3.57016 24.6148 3.0335 24.1474 3.2085 23.5165L3.99016 20.8992C4.1185 20.537 4.09516 20.1514 3.9085 19.8476C2.90516 18.0015 2.3335 15.9801 2.3335 14.0172ZM12.4835 14.0172C12.4835 14.8468 13.1485 15.5128 13.9768 15.5245C14.8052 15.5245 15.4702 14.8468 15.4702 14.0289C15.4702 13.1993 14.8052 12.5333 13.9768 12.5333C13.1602 12.5216 12.4835 13.1993 12.4835 14.0172ZM17.8618 14.0289C17.8618 14.8468 18.5268 15.5245 19.3552 15.5245C20.1835 15.5245 20.8485 14.8468 20.8485 14.0289C20.8485 13.1993 20.1835 12.5333 19.3552 12.5333C18.5268 12.5333 17.8618 13.1993 17.8618 14.0289ZM8.5985 15.5245C7.78183 15.5245 7.10516 14.8468 7.10516 14.0289C7.10516 13.1993 7.77016 12.5333 8.5985 12.5333C9.42683 12.5333 10.0918 13.1993 10.0918 14.0289C10.0918 14.8468 9.42683 15.5128 8.5985 15.5245Z" fill="#1FA0BD"/>
</svg>
