<svg width="16" height="16" viewBox="0 0 16 16" fill="none" xmlns="http://www.w3.org/2000/svg">
<path d="M0.227441 1.33528C-0.0725586 1.03528 -0.0725586 0.535978 0.227441 0.225488C0.537931 -0.0745117 1.02674 -0.0745117 1.33723 0.225488L7.99667 6.89612L14.6673 0.225488C14.9673 -0.0745117 15.4666 -0.0745117 15.7659 0.225488C16.0764 0.535978 16.0764 1.03598 15.7659 1.33528L9.10646 7.99542L15.7659 14.666C16.0764 14.966 16.0764 15.4653 15.7659 15.7758C15.4659 16.0758 14.9666 16.0758 14.6673 15.7758L7.99667 9.10521L1.33723 15.7758C1.02674 16.0758 0.537931 16.0758 0.227441 15.7758C-0.0725586 15.4653 -0.0725586 14.9653 0.227441 14.666L6.88688 7.99542L0.227441 1.33528Z" fill="#1E201D"/>
</svg>
