<svg width="16" height="23" viewBox="0 0 16 23" fill="none" xmlns="http://www.w3.org/2000/svg">
<path d="M7.02035 5.92594C7.13893 5.73621 7.34688 5.62096 7.57062 5.62096C7.79435 5.62096 8.0023 5.73621 8.12088 5.92594C8.67871 6.81852 9.64011 7.35134 10.6927 7.35134H11.2477V5.83726C11.2477 4.2868 9.98627 3.02539 8.43581 3.02539H6.70542C5.15496 3.02539 3.89355 4.2868 3.89355 5.83726V7.35134H4.44857C5.50112 7.35134 6.46252 6.81852 7.02035 5.92594Z" fill="#FE9C70"/>
<path d="M6.05566 15.3348V16.6521C6.05566 17.4883 6.73354 18.1662 7.56975 18.1662C8.40595 18.1662 9.08383 17.4883 9.08383 16.6521V15.3347C8.6062 15.4877 8.09747 15.5706 7.56975 15.5706C7.04198 15.5706 6.53329 15.4877 6.05566 15.3348Z" fill="#FE9C70"/>
<path d="M8.21951 12.3258C8.21951 11.9675 8.51004 11.6769 8.8684 11.6769H11.0851C11.1906 11.3348 11.2476 10.9716 11.2476 10.5952V8.64878H10.6926C9.49359 8.64878 8.3774 8.16457 7.57057 7.32153C6.76378 8.16457 5.6476 8.64878 4.44857 8.64878H3.89355V10.5955C3.89355 12.623 5.54308 14.2725 7.57061 14.2725C8.6913 14.2725 9.69578 13.7679 10.3708 12.9747H8.8684C8.51004 12.9747 8.21951 12.6842 8.21951 12.3258Z" fill="#FE9C70"/>
<path d="M11.4638 16.0027H10.3823V16.6516C10.3823 18.202 9.12088 19.4634 7.57042 19.4634C6.01995 19.4634 4.75855 18.202 4.75855 16.6516V16.0027H3.67706C1.64953 16.0027 0 17.6522 0 19.6797V21.9292C0 22.2876 0.290531 22.5781 0.648893 22.5781H2.63883V20.9775C2.63883 20.6192 2.92936 20.3286 3.28772 20.3286C3.64609 20.3286 3.93662 20.6192 3.93662 20.9775V22.5781H11.2475V20.9775C11.2475 20.6192 11.538 20.3286 11.8964 20.3286C12.2547 20.3286 12.5453 20.6192 12.5453 20.9775V22.5781H14.4919C14.8503 22.5781 15.1408 22.2876 15.1408 21.9292V19.6797C15.1408 17.6522 13.4913 16.0027 11.4638 16.0027Z" fill="#FE9C70"/>
<path d="M1.72945 10.812H2.59464V7.35121H2.16204V7.13491C2.16204 4.15325 4.58782 1.72747 7.56949 1.72747C10.5511 1.72747 12.9769 4.15325 12.9769 7.13491V7.35121H12.5443V11.4609C12.5443 11.5801 12.4473 11.6772 12.328 11.6772H11.0839C10.9352 12.1596 10.6892 12.5994 10.3696 12.975H12.328C13.1629 12.975 13.8421 12.2957 13.8421 11.4609V10.6953C14.1005 10.5456 14.2747 10.2668 14.2747 9.94678V7.13491C14.2747 3.43761 11.2667 0.429688 7.56949 0.429688C3.87222 0.429688 0.864258 3.43761 0.864258 7.13491V9.94678C0.864258 10.4246 1.2516 10.812 1.72945 10.812Z" fill="#FE9C70"/>
</svg>
