<svg width="36" height="48" viewBox="0 0 36 48" fill="none" xmlns="http://www.w3.org/2000/svg">
<path d="M12.0156 8.0625H24.0155V12.9375H12.0156V8.0625Z" fill="#02CFE0"/>
<path d="M12.0156 8.06299H16.8446V12.9377H12.0156V8.06299Z" fill="#00E1F0"/>
<path d="M27.0156 0.65625V8.34375C27.0156 8.70656 26.7222 9 26.3594 9H9.67187C9.30906 9 9.01562 8.70656 9.01562 8.34375V0.65625C9.01562 0.294375 9.30906 0 9.67187 0H26.3594C26.7222 0 27.0156 0.294375 27.0156 0.65625Z" fill="#003CBF"/>
<path d="M27.0156 7.06875V8.34375C27.0156 8.70656 26.7222 9 26.3594 9H9.67187C9.30906 9 9.01562 8.70656 9.01562 8.34375V0.65625C9.01562 0.294375 9.30906 0 9.67187 0H13.8447V6.39281C13.8447 6.765 14.1475 7.06875 14.5206 7.06875H27.0156Z" fill="#0065FF"/>
<path d="M10.6289 12.183L6.22719 16.3054C6.09472 16.4294 6.01953 16.6028 6.01953 16.7843V45.1022C6.01953 46.7024 7.31675 47.9995 8.91687 47.9995H27.1148C28.715 47.9995 30.0121 46.7023 30.0121 45.1022V16.7841C30.0121 16.6027 29.937 16.4294 29.8048 16.3054L25.403 12.1776C25.2813 12.0635 25.1207 11.9999 24.9538 12L11.0772 12.0057C10.9108 12.0058 10.7504 12.0692 10.6289 12.183Z" fill="#F2FBFF"/>
<path d="M13.7458 48H8.91688C7.31666 48 6.01953 46.7028 6.01953 45.1027V16.7842C6.01953 16.6027 6.09472 16.4293 6.22719 16.3052L10.6284 12.1831C10.75 12.0692 10.9104 12.0059 11.077 12.0059H15.6466L12.4401 15.0094L10.8485 16.4997V45.1026C10.8484 46.703 12.1455 48 13.7458 48Z" fill="#DFF6FD"/>
<path d="M9.01562 44.3401V18.2753C9.01562 18.1011 9.08491 17.934 9.20819 17.8109L11.8221 15.2012C11.9451 15.0784 12.1117 15.0095 12.2855 15.0094L23.7447 15.0044C23.9188 15.0043 24.0858 15.0734 24.2089 15.1965L26.8232 17.8098C26.9462 17.9329 27.0154 18.0998 27.0154 18.2739V44.3401C27.0154 44.7025 26.7216 44.9963 26.3592 44.9963H9.67187C9.30944 44.9963 9.01562 44.7025 9.01562 44.3401Z" fill="#00E1F0"/>
<path d="M12.4403 15.0093L10.8487 16.4995V44.9962H9.67187C9.30944 44.9962 9.01562 44.7024 9.01562 44.34V18.2754C9.01562 18.1012 9.08491 17.9341 9.20819 17.811L11.8222 15.2012C11.9452 15.0784 12.112 15.0094 12.2859 15.0094H12.4403V15.0093Z" fill="#02CFE0"/>
<path d="M9.01562 21H27.0154V37.4886H9.01562V21Z" fill="#7FF0F7"/>
<path d="M9.01562 21.0005H10.8487V37.4885H9.01562V21.0005Z" fill="#00E1F0"/>
<path d="M12.0153 6.7245C11.6153 6.7245 11.291 6.40022 11.291 6.00019V3.00019C11.291 2.60007 11.6153 2.27588 12.0153 2.27588C12.4154 2.27588 12.7396 2.60016 12.7396 3.00019V6.00019C12.7397 6.40032 12.4155 6.7245 12.0153 6.7245Z" fill="#7FF0F7"/>
<path d="M15.0153 6.7245C14.6153 6.7245 14.291 6.40022 14.291 6.00019V3.00019C14.291 2.60007 14.6153 2.27588 15.0153 2.27588C15.4154 2.27588 15.7396 2.60016 15.7396 3.00019V6.00019C15.7397 6.40032 15.4155 6.7245 15.0153 6.7245Z" fill="#7FF0F7"/>
<path d="M18.0153 6.7245C17.6153 6.7245 17.291 6.40022 17.291 6.00019V3.00019C17.291 2.60007 17.6153 2.27588 18.0153 2.27588C18.4154 2.27588 18.7396 2.60016 18.7396 3.00019V6.00019C18.7396 6.40032 18.4154 6.7245 18.0153 6.7245Z" fill="#7FF0F7"/>
<path d="M21.0153 6.7245C20.6153 6.7245 20.291 6.40022 20.291 6.00019V3.00019C20.291 2.60007 20.6153 2.27588 21.0153 2.27588C21.4154 2.27588 21.7396 2.60016 21.7396 3.00019V6.00019C21.7397 6.40032 21.4155 6.7245 21.0153 6.7245Z" fill="#7FF0F7"/>
<path d="M24.0153 6.7245C23.6153 6.7245 23.291 6.40022 23.291 6.00019V3.00019C23.291 2.60007 23.6153 2.27588 24.0153 2.27588C24.4154 2.27588 24.7396 2.60016 24.7396 3.00019V6.00019C24.7397 6.40032 24.4155 6.7245 24.0153 6.7245Z" fill="#7FF0F7"/>
<path d="M17.1719 34.6816C16.2931 34.6816 15.5781 33.9667 15.5781 33.0879V31.6816H14.1719C13.2931 31.6816 12.5781 30.9667 12.5781 30.0879V28.4004C12.5781 27.5216 13.2931 26.8066 14.1719 26.8066H15.5781V25.4004C15.5781 24.5216 16.2931 23.8066 17.1719 23.8066H18.8594C19.7382 23.8066 20.4531 24.5216 20.4531 25.4004V26.8066H21.8594C22.7382 26.8066 23.4531 27.5216 23.4531 28.4004V30.0879C23.4531 30.9667 22.7382 31.6816 21.8594 31.6816H20.4531V33.0879C20.4531 33.9667 19.7382 34.6816 18.8594 34.6816H17.1719Z" fill="#7FF0F7"/>
<path d="M21.8594 27.7446H20.1719C19.8094 27.7446 19.5156 27.4508 19.5156 27.0884V25.4009C19.5156 25.0384 19.2218 24.7446 18.8594 24.7446H17.1719C16.8094 24.7446 16.5156 25.0384 16.5156 25.4009V27.0884C16.5156 27.4508 16.2218 27.7446 15.8594 27.7446H14.1719C13.8094 27.7446 13.5156 28.0384 13.5156 28.4009V30.0884C13.5156 30.4508 13.8094 30.7446 14.1719 30.7446H15.8594C16.2218 30.7446 16.5156 31.0384 16.5156 31.4009V33.0884C16.5156 33.4508 16.8094 33.7446 17.1719 33.7446H18.8594C19.2218 33.7446 19.5156 33.4508 19.5156 33.0884V31.4009C19.5156 31.0384 19.8094 30.7446 20.1719 30.7446H21.8594C22.2218 30.7446 22.5156 30.4508 22.5156 30.0884V28.4009C22.5156 28.0384 22.2218 27.7446 21.8594 27.7446Z" fill="#0065FF"/>
<path d="M1.51562 37.4883C0.68725 37.4883 0.015625 38.1598 0.015625 38.9883C0.015625 39.8167 0.687156 40.4883 1.51562 40.4883H21.6413C22.7988 43.1367 25.4402 44.9883 28.5154 44.9883C32.4137 44.9883 35.6174 42.0141 35.981 38.2111C36.0181 37.8242 35.7162 37.4884 35.3275 37.4884H1.51562V37.4883Z" fill="#003CBF"/>
<path d="M4.84548 39.0229C4.84548 39.4371 5.01357 39.8119 5.28489 40.0843C5.55629 40.3557 5.93101 40.5237 6.34529 40.5237H1.51642C1.10213 40.5237 0.727321 40.3556 0.456009 40.0843C0.184602 39.8119 0.0166016 39.4372 0.0166016 39.0229C0.0166016 38.1951 0.687852 37.5229 1.51651 37.5229H6.34548C5.51673 37.5229 4.84548 38.1951 4.84548 39.0229Z" fill="#0065FF"/>
<path d="M30.9306 44.5915C30.1725 44.8483 29.3602 44.9884 28.5161 44.9884C25.441 44.9884 22.7996 43.1369 21.6416 40.4888H26.4706C27.3109 42.4097 28.9305 43.9106 30.9306 44.5915Z" fill="#0065FF"/>
<path d="M31.5109 30.3757C31.5109 32.0301 30.1697 33.3714 28.5152 33.3714C26.8608 33.3714 25.5195 32.0302 25.5195 30.3757C25.5195 29.1801 27.0839 26.3877 27.9517 24.9308C28.2061 24.5035 28.8242 24.5035 29.0787 24.9308C29.9465 26.3877 31.5109 29.1801 31.5109 30.3757Z" fill="#FEE97D"/>
<path d="M29.9641 32.9983C29.5353 33.2358 29.0408 33.3711 28.5154 33.3711C26.861 33.3711 25.5195 32.0306 25.5195 30.3762C25.5195 29.1806 27.0841 26.3881 27.952 24.9312C28.2063 24.5041 28.8245 24.504 29.0788 24.9311C29.3331 25.358 29.6472 25.8996 29.9641 26.4821C29.1992 27.8873 28.417 29.5311 28.417 30.3762C28.4169 31.5051 29.0418 32.4873 29.9641 32.9983Z" fill="#FED402"/>
</svg>
