<svg width="11" height="11" viewBox="0 0 11 11" fill="none" xmlns="http://www.w3.org/2000/svg">
<path fill-rule="evenodd" clip-rule="evenodd" d="M4.60554 4.60576L4.08204 6.27926L5.75504 5.75526L6.27904 4.08176L4.60554 4.60576ZM3.51004 7.22576C3.41204 7.22576 3.31604 7.18726 3.24454 7.11626C3.14604 7.01726 3.11004 6.87176 3.15204 6.73926L3.94854 4.19476C3.98504 4.07676 4.07704 3.98526 4.19404 3.94876L6.73854 3.15226C6.87204 3.10976 7.01704 3.14626 7.11604 3.24476C7.21454 3.34376 7.25054 3.48926 7.20854 3.62176L6.41254 6.16626C6.37604 6.28376 6.28354 6.37576 6.16654 6.41226L3.62204 7.20876C3.58504 7.22026 3.54704 7.22576 3.51004 7.22576V7.22576Z" fill="black"/>
<mask id="mask0_33506_579" style="mask-type:alpha" maskUnits="userSpaceOnUse" x="0" y="0" width="11" height="11">
<path fill-rule="evenodd" clip-rule="evenodd" d="M0 0H10.3609V10.3609H0V0Z" fill="white"/>
</mask>
<g mask="url(#mask0_33506_579)">
<path fill-rule="evenodd" clip-rule="evenodd" d="M5.1805 0.75C2.7375 0.75 0.75 2.738 0.75 5.1805C0.75 7.6235 2.7375 9.611 5.1805 9.611C7.6235 9.611 9.611 7.6235 9.611 5.1805C9.611 2.738 7.6235 0.75 5.1805 0.75M5.1805 10.361C2.324 10.361 0 8.037 0 5.1805C0 2.324 2.324 0 5.1805 0C8.037 0 10.361 2.324 10.361 5.1805C10.361 8.037 8.037 10.361 5.1805 10.361" fill="black"/>
</g>
</svg>
