<svg width="48" height="48" viewBox="0 0 48 48" fill="none" xmlns="http://www.w3.org/2000/svg">
<path d="M15 8.0625H33V12.9375H15V8.0625Z" fill="#C8EFFE"/>
<path d="M15 8.06201H19.829V12.9378H15V8.06201Z" fill="#99E6FC"/>
<path d="M15 12.0059L10.1604 15.6308C9.42994 16.178 9 17.0372 9 17.9498V45.1026C9 46.7028 10.2972 48 11.8974 48H36.1027C37.7028 48 39 46.7028 39 45.1026V17.9487C39 17.0367 38.5706 16.178 37.8411 15.6307L33 12L15 12.0059Z" fill="#F2FBFF"/>
<path d="M13.829 45.1024C13.829 46.7028 15.126 47.9999 16.7264 47.9999H11.8974C10.2971 47.9999 9 46.7028 9 45.1024V17.9499C9 17.0373 9.42975 16.1786 10.16 15.631L14.9996 12.0063H19.8286L14.9889 15.631C14.2588 16.1786 13.829 17.0373 13.829 17.9499V45.1024Z" fill="#DFF6FD"/>
<path d="M35.0589 40.8752L35.9964 42.0002V44.3402C35.9964 44.703 35.703 44.9964 35.3402 44.9964H12.6602C12.2973 44.9964 12.0039 44.703 12.0039 44.3402V42.0002L12.9414 40.6877V18.9845L12.0039 18.003L14.4273 16.188L16.0005 15.0095L31.9989 15.0039L35.9964 18.002L35.0589 18.8908V40.8752Z" fill="#00E1F0"/>
<path d="M14.4273 16.188C14.0439 16.6886 13.8292 17.3055 13.8292 17.9496V44.9964H12.6602C12.2973 44.9964 12.0039 44.703 12.0039 44.3402V42.0002L12.9414 40.6877V18.9846L12.0039 18.003L14.4273 16.188Z" fill="#7FF0F7"/>
<path d="M36 1.40625V7.59375C36 8.37 35.37 9 34.5938 9H13.4062C12.63 9 12 8.37 12 7.59375V1.40625C12 0.63 12.63 0 13.4062 0H34.5938C35.37 0 36 0.63 36 1.40625Z" fill="#7FF0F7"/>
<path d="M36 7.06781V7.59375C36 8.37 35.37 9 34.5938 9H13.4062C12.63 9 12 8.37 12 7.59375V1.40625C12 0.63 12.63 0 13.4062 0H16.8291V5.61937C16.8291 6.42 17.4778 7.06781 18.2775 7.06781H36Z" fill="#00E1F0"/>
<path d="M12.0037 18.0032L35.9964 18.002L36.0033 41.9998H12L12.0037 18.0032Z" fill="#0065FF"/>
<path d="M13.8293 18.0029V42.0002H12L12.0038 18.0029H13.8293Z" fill="#0065FF"/>
<path d="M17.9997 6.7246C17.5996 6.7246 17.2754 6.40032 17.2754 6.00029V3.00019C17.2754 2.60007 17.5997 2.27588 17.9997 2.27588C18.3997 2.27588 18.724 2.60016 18.724 3.00019V6.00019C18.724 6.40032 18.3997 6.7246 17.9997 6.7246Z" fill="#00E1F0"/>
<path d="M14.9997 6.7246C14.5996 6.7246 14.2754 6.40032 14.2754 6.00029V3.00019C14.2754 2.60007 14.5997 2.27588 14.9997 2.27588C15.3997 2.27588 15.724 2.60016 15.724 3.00019V6.00019C15.7241 6.40032 15.3998 6.7246 14.9997 6.7246Z" fill="#02CFE0"/>
<path d="M20.9997 6.7246C20.5996 6.7246 20.2754 6.40032 20.2754 6.00029V3.00019C20.2754 2.60007 20.5997 2.27588 20.9997 2.27588C21.3997 2.27588 21.724 2.60016 21.724 3.00019V6.00019C21.724 6.40032 21.3997 6.7246 20.9997 6.7246Z" fill="#00E1F0"/>
<path d="M23.9997 6.7246C23.5996 6.7246 23.2754 6.40032 23.2754 6.00029V3.00019C23.2754 2.60007 23.5997 2.27588 23.9997 2.27588C24.3997 2.27588 24.724 2.60016 24.724 3.00019V6.00019C24.724 6.40032 24.3998 6.7246 23.9997 6.7246Z" fill="#00E1F0"/>
<path d="M26.9997 6.7246C26.5996 6.7246 26.2754 6.40032 26.2754 6.00029V3.00019C26.2754 2.60007 26.5997 2.27588 26.9997 2.27588C27.3997 2.27588 27.724 2.60016 27.724 3.00019V6.00019C27.7241 6.40032 27.3998 6.7246 26.9997 6.7246Z" fill="#00E1F0"/>
<path d="M29.9997 6.7246C29.5996 6.7246 29.2754 6.40032 29.2754 6.00029V3.00019C29.2754 2.60007 29.5997 2.27588 29.9997 2.27588C30.3997 2.27588 30.724 2.60016 30.724 3.00019V6.00019C30.724 6.40032 30.3997 6.7246 29.9997 6.7246Z" fill="#00E1F0"/>
<path d="M32.9997 6.7246C32.5996 6.7246 32.2754 6.40032 32.2754 6.00029V3.00019C32.2754 2.60007 32.5997 2.27588 32.9997 2.27588C33.3997 2.27588 33.724 2.60016 33.724 3.00019V6.00019C33.724 6.40032 33.3997 6.7246 32.9997 6.7246Z" fill="#00E1F0"/>
<path d="M24.7028 21.9607L25.5383 21.4978C26.0862 21.1942 26.6996 21.0353 27.3229 21.0353C29.3922 21.0353 31.0698 22.751 31.0698 24.8674V29.6816C31.0698 30.5121 30.6043 31.269 29.8725 31.6287C29.2236 31.9477 28.7782 32.5827 28.6908 33.3136L28.1361 37.9538C28.0747 38.5648 27.5714 39.0292 26.9709 39.0292C26.3795 39.0292 25.8808 38.5783 25.8084 37.9779L25.2458 32.8572C25.1741 32.2051 24.6349 31.7122 23.9934 31.7122C23.3579 31.7122 22.8219 32.1959 22.7428 32.8407L22.0954 38.1202C21.9935 38.6484 21.5406 39.0292 21.0142 39.0292C20.4299 39.0292 19.9473 38.563 19.9139 37.9665L19.3185 33.301C19.2261 32.5771 18.7825 31.9498 18.139 31.6336L18.1289 31.6286C17.3971 31.2689 16.9316 30.512 16.9316 29.6815V24.8673C16.9316 22.7509 18.6092 21.0352 20.6785 21.0352H21.0077C21.041 21.0352 21.0743 21.0356 21.1075 21.0366C21.7082 21.053 22.2914 21.2467 22.7996 21.5746L23.3254 21.9139C23.7424 22.183 24.2691 22.2009 24.7028 21.9607V21.9607Z" fill="#F2FBFF"/>
<path d="M21.8448 37.9667C21.8545 38.1405 21.9027 38.3028 21.98 38.4458C21.7907 38.7973 21.4246 39.0291 21.0142 39.0291C20.7225 39.0291 20.455 38.9123 20.257 38.721C20.059 38.5298 19.9305 38.2651 19.9131 37.9667L19.3181 33.3009C19.2254 32.5776 18.7821 31.9498 18.1389 31.634L18.1283 31.6291C17.3962 31.2688 16.9316 30.5117 16.9316 29.682V24.8675C16.9316 22.7504 18.6092 21.0352 20.678 21.0352H21.0073C21.0401 21.0352 21.074 21.0352 21.1068 21.0361C21.3347 21.0428 21.5607 21.0747 21.7799 21.1298C20.11 21.5151 18.8632 23.0421 18.8632 24.8675V29.682C18.8632 30.5116 19.3277 31.2688 20.0598 31.6291L20.0704 31.634C20.7136 31.9498 21.157 32.5776 21.2497 33.3009L21.8448 37.9667Z" fill="#DFF6FD"/>
<path d="M27.7404 37.9786C27.7646 38.1746 27.8331 38.3552 27.9375 38.5087C27.725 38.8246 27.3695 39.0293 26.9707 39.0293C26.6752 39.0293 26.4029 38.9163 26.1952 38.7289C25.9876 38.5415 25.8456 38.2788 25.8089 37.9786L25.2458 32.8578C25.2168 32.597 25.1145 32.3624 24.96 32.174C24.9996 32.1238 25.044 32.0775 25.0913 32.035C25.3144 31.8332 25.608 31.7124 25.9247 31.7124C26.567 31.7124 27.1059 32.205 27.1774 32.8578L27.7404 37.9786Z" fill="#DFF6FD"/>
</svg>
