<svg width="30" height="48" viewBox="0 0 30 48" fill="none" xmlns="http://www.w3.org/2000/svg">
<path d="M6 8.03418H23.9998V12.9657H6V8.03418Z" fill="#0F3D91"/>
<path d="M6 8.03418H10.6875V12.9654H6V8.03418Z" fill="#003CBF"/>
<path d="M27 1.44872V7.55156C27 8.35125 26.351 9.00028 25.5513 9.00028H4.44872C3.64903 9.00028 3 8.35125 3 7.55156V1.44872C3 0.649031 3.64903 0 4.44872 0H25.5514C26.351 0 27 0.649031 27 1.44872Z" fill="#F2FBFF"/>
<path d="M27 7.06866V7.55156C27 8.35163 26.3514 9.00028 25.5513 9.00028H4.44872C3.64866 9.00028 3 8.35172 3 7.55156V1.44872C3 0.648563 3.64856 0 4.44872 0H9.27769C8.478 0 7.82897 0.649031 7.82897 1.44872V4.17131C7.82897 5.77153 9.12619 7.06866 10.7263 7.06866H27Z" fill="#DFF6FD"/>
<path d="M8.9997 6.7245C8.59967 6.7245 8.27539 6.40022 8.27539 6.00019V3.00019C8.27539 2.60016 8.59967 2.27588 8.9997 2.27588C9.39974 2.27588 9.72402 2.60016 9.72402 3.00019V6.00019C9.72402 6.40022 9.39974 6.7245 8.9997 6.7245Z" fill="#C8EFFE"/>
<path d="M5.9997 6.7245C5.59967 6.7245 5.27539 6.40022 5.27539 6.00019V3.00019C5.27539 2.60016 5.59967 2.27588 5.9997 2.27588C6.39974 2.27588 6.72402 2.60016 6.72402 3.00019V6.00019C6.72402 6.40022 6.39974 6.7245 5.9997 6.7245Z" fill="#C8EFFE"/>
<path d="M11.9997 6.7245C11.5997 6.7245 11.2754 6.40022 11.2754 6.00019V3.00019C11.2754 2.60016 11.5997 2.27588 11.9997 2.27588C12.3997 2.27588 12.724 2.60016 12.724 3.00019V6.00019C12.724 6.40022 12.3997 6.7245 11.9997 6.7245Z" fill="#C8EFFE"/>
<path d="M14.9997 6.7245C14.5997 6.7245 14.2754 6.40022 14.2754 6.00019V3.00019C14.2754 2.60016 14.5997 2.27588 14.9997 2.27588C15.3998 2.27588 15.724 2.60016 15.724 3.00019V6.00019C15.724 6.40022 15.3998 6.7245 14.9997 6.7245Z" fill="#C8EFFE"/>
<path d="M17.9997 6.7245C17.5996 6.7245 17.2754 6.40022 17.2754 6.00019V3.00019C17.2754 2.60016 17.5997 2.27588 17.9997 2.27588C18.3997 2.27588 18.724 2.60016 18.724 3.00019V6.00019C18.724 6.40022 18.3998 6.7245 17.9997 6.7245Z" fill="#C8EFFE"/>
<path d="M20.9997 6.7245C20.5996 6.7245 20.2754 6.40022 20.2754 6.00019V3.00019C20.2754 2.60016 20.5997 2.27588 20.9997 2.27588C21.3997 2.27588 21.724 2.60016 21.724 3.00019V6.00019C21.724 6.40022 21.3998 6.7245 20.9997 6.7245Z" fill="#C8EFFE"/>
<path d="M23.9997 6.7245C23.5996 6.7245 23.2754 6.40022 23.2754 6.00019V3.00019C23.2754 2.60016 23.5997 2.27588 23.9997 2.27588C24.3997 2.27588 24.724 2.60016 24.724 3.00019V6.00019C24.724 6.40022 24.3998 6.7245 23.9997 6.7245Z" fill="#C8EFFE"/>
<path d="M6 12.0059L1.16044 15.6307C0.430031 16.1779 0 17.0371 0 17.9497V45.1023C0 46.7025 1.29722 47.9996 2.89734 47.9996H27.1024C28.7026 47.9996 29.9997 46.7024 29.9997 45.1023V17.9486C29.9997 17.0366 29.5703 16.1779 28.8408 15.6307L23.9998 12L6 12.0059Z" fill="#003CBF"/>
<path d="M3.00391 44.3402V42.0067L3.94141 40.4065V22.7346L3.00391 20.9952V18.3317C3.00391 18.125 3.10131 17.9303 3.26678 17.8064L6.82609 15.1404C6.93953 15.0554 7.07753 15.0095 7.21928 15.0095L22.7805 15.0044C22.9225 15.0044 23.0608 15.0504 23.1744 15.1356L26.734 17.8053C26.8993 17.9292 26.9965 18.1237 26.9965 18.3303V20.9952L26.059 22.6175V40.5003L26.9965 42.0067V44.3402C26.9965 44.7026 26.7027 44.9964 26.3402 44.9964H3.66016C3.29772 44.9964 3.00391 44.7026 3.00391 44.3402Z" fill="#0065FF"/>
<path d="M4.82897 45.1028C4.82897 46.7031 6.126 48.0002 7.72632 48.0002H2.89735C1.29703 48.0002 0 46.7031 0 45.1028V17.9504C0 17.0377 0.42975 16.1781 1.15988 15.6305L5.99944 12.0059H10.8284L5.98885 15.6305C5.7735 15.7918 5.58516 15.9801 5.42578 16.1887C5.04328 16.689 4.82888 17.3061 4.82888 17.9503V45.1028H4.82897Z" fill="#0065FF"/>
<path d="M5.42613 16.1885C5.04363 16.6887 4.82922 17.3059 4.82922 17.95V44.9962H3.66016C3.29772 44.9962 3.00391 44.7024 3.00391 44.3399V18.3315C3.00391 18.1248 3.10131 17.9303 3.26669 17.8063L5.42613 16.1885Z" fill="#0065FF"/>
<path d="M3 20.9951H26.9998V42.0067H3V20.9951Z" fill="#F2FBFF"/>
<path d="M3 20.9946H4.82925V42.0065H3V20.9946Z" fill="#DFF6FD"/>
<path d="M10.5006 29.2483V33.7538C10.5006 34.9967 9.49322 36.004 8.25028 36.004C7.00734 36.004 6 34.9967 6 33.7538V29.2483C6 28.0053 7.00734 26.998 8.25028 26.998C8.87128 26.998 9.43434 27.2501 9.84187 27.6567C10.2485 28.0643 10.5006 28.6264 10.5006 29.2483Z" fill="#00E1F0"/>
<path d="M9.21609 35.7867C8.9235 35.9258 8.59603 36.004 8.25028 36.004C7.00734 36.004 6 34.9967 6 33.7538V29.2483C6 28.0053 7.00734 26.998 8.25028 26.998C8.59603 26.998 8.92341 27.0762 9.21609 27.2154C8.45597 27.5766 7.93163 28.3511 7.93163 29.2483V33.7538C7.93163 34.651 8.45606 35.4255 9.21609 35.7867Z" fill="#7FF0F7"/>
<path d="M10.5006 29.2483V31.4977H6V29.2483C6 28.0053 7.00734 26.998 8.25028 26.998C8.87128 26.998 9.43434 27.2501 9.84187 27.6567C10.2485 28.0643 10.5006 28.6264 10.5006 29.2483Z" fill="#003CBF"/>
<path d="M9.21609 27.2154C8.45597 27.5766 7.93163 28.3511 7.93163 29.2483V31.4977H6V29.2483C6 28.0053 7.00734 26.998 8.25028 26.998C8.59613 26.998 8.9235 27.0762 9.21609 27.2154Z" fill="#0065FF"/>
<path d="M23.9996 27.7221H14.9997C14.5997 27.7221 14.2754 27.3978 14.2754 26.9977C14.2754 26.5977 14.5997 26.2734 14.9997 26.2734H23.9996C24.3997 26.2734 24.7239 26.5977 24.7239 26.9977C24.7239 27.3977 24.3997 27.7221 23.9996 27.7221Z" fill="#5680A6"/>
<path d="M23.9996 30.7133H14.9997C14.5997 30.7133 14.2754 30.389 14.2754 29.989C14.2754 29.5889 14.5997 29.2646 14.9997 29.2646H23.9996C24.3997 29.2646 24.7239 29.5889 24.7239 29.989C24.7239 30.389 24.3997 30.7133 23.9996 30.7133Z" fill="#5680A6"/>
<path d="M23.9996 33.7133H14.9997C14.5997 33.7133 14.2754 33.389 14.2754 32.989C14.2754 32.5889 14.5997 32.2646 14.9997 32.2646H23.9996C24.3997 32.2646 24.7239 32.5889 24.7239 32.989C24.7239 33.389 24.3997 33.7133 23.9996 33.7133Z" fill="#5680A6"/>
<path d="M23.9996 36.7133H14.9997C14.5997 36.7133 14.2754 36.389 14.2754 35.989C14.2754 35.5889 14.5997 35.2646 14.9997 35.2646H23.9996C24.3997 35.2646 24.7239 35.5889 24.7239 35.989C24.7239 36.389 24.3997 36.7133 23.9996 36.7133Z" fill="#5680A6"/>
</svg>
