<svg width="20" height="18" viewBox="0 0 20 18" fill="none" xmlns="http://www.w3.org/2000/svg">
<path opacity="0.4" d="M20 12.9402C20 15.7302 17.76 17.9902 14.97 18.0002H14.96H5.05C2.27 18.0002 0 15.7502 0 12.9602V12.9502C0 12.9502 0.006 8.52421 0.014 6.29821C0.015 5.88021 0.495 5.64621 0.822 5.90621C3.198 7.79121 7.447 11.2282 7.5 11.2732C8.21 11.8422 9.11 12.1632 10.03 12.1632C10.95 12.1632 11.85 11.8422 12.56 11.2622C12.613 11.2272 16.767 7.89321 19.179 5.97721C19.507 5.71621 19.989 5.95021 19.99 6.36721C20 8.57621 20 12.9402 20 12.9402" fill="#1FA0BD"/>
<path d="M19.4759 2.6736C18.6099 1.0416 16.9059 -0.000396729 15.0299 -0.000396729H5.04988C3.17388 -0.000396729 1.46988 1.0416 0.603884 2.6736C0.409884 3.0386 0.501884 3.4936 0.824884 3.7516L8.24988 9.6906C8.76988 10.1106 9.39988 10.3196 10.0299 10.3196C10.0339 10.3196 10.0369 10.3196 10.0399 10.3196C10.0429 10.3196 10.0469 10.3196 10.0499 10.3196C10.6799 10.3196 11.3099 10.1106 11.8299 9.6906L19.2549 3.7516C19.5779 3.4936 19.6699 3.0386 19.4759 2.6736" fill="#1FA0BD"/>
</svg>
