<svg width="24" height="22" viewBox="0 0 24 22" fill="none" xmlns="http://www.w3.org/2000/svg">
<path fill-rule="evenodd" clip-rule="evenodd" d="M9.4404 18.2202H1.03906C0.487062 18.2202 0.0390625 17.7722 0.0390625 17.2202C0.0390625 16.6682 0.487062 16.2202 1.03906 16.2202H9.4404C9.9924 16.2202 10.4404 16.6682 10.4404 17.2202C10.4404 17.7722 9.9924 18.2202 9.4404 18.2202" fill="white"/>
<path fill-rule="evenodd" clip-rule="evenodd" d="M21.5875 5.29688H13.1875C12.6355 5.29688 12.1875 4.84888 12.1875 4.29688C12.1875 3.74488 12.6355 3.29688 13.1875 3.29688H21.5875C22.1395 3.29688 22.5875 3.74488 22.5875 4.29688C22.5875 4.84888 22.1395 5.29688 21.5875 5.29688" fill="white"/>
<mask id="mask0_33464_103" style="mask-type:alpha" maskUnits="userSpaceOnUse" x="0" y="0" width="9" height="9">
<path fill-rule="evenodd" clip-rule="evenodd" d="M0 0.0969238H8.30107V8.35239H0V0.0969238Z" fill="white"/>
</mask>
<g mask="url(#mask0_33464_103)">
<path fill-rule="evenodd" clip-rule="evenodd" d="M4.15067 2.09644C2.96533 2.09644 2 3.0511 2 4.22577C2 5.3991 2.96533 6.35244 4.15067 6.35244C5.33733 6.35244 6.30133 5.3991 6.30133 4.22577C6.30133 3.0511 5.33733 2.09644 4.15067 2.09644M4.15067 8.35244C1.86267 8.35244 0 6.50177 0 4.22577C0 1.94977 1.86267 0.0964355 4.15067 0.0964355C6.44 0.0964355 8.30133 1.94977 8.30133 4.22577C8.30133 6.50177 6.44 8.35244 4.15067 8.35244" fill="white"/>
</g>
<path fill-rule="evenodd" clip-rule="evenodd" d="M19.1832 15.0403C17.9966 15.0403 17.0312 15.995 17.0312 17.1683C17.0312 18.343 17.9966 19.2963 19.1832 19.2963C20.3686 19.2963 21.3326 18.343 21.3326 17.1683C21.3326 15.995 20.3686 15.0403 19.1832 15.0403M19.1832 21.2963C16.8939 21.2963 15.0312 19.4443 15.0312 17.1683C15.0312 14.8923 16.8939 13.0403 19.1832 13.0403C21.4712 13.0403 23.3326 14.8923 23.3326 17.1683C23.3326 19.4443 21.4712 21.2963 19.1832 21.2963" fill="white"/>
</svg>
