<svg width="38" height="48" viewBox="0 0 38 48" fill="none" xmlns="http://www.w3.org/2000/svg">
<path d="M6.95605 8.03418H24.9559V12.9657H6.95605V8.03418Z" fill="#00E1F0"/>
<path d="M6.95703 8.03418H11.6445V12.9654H6.95703V8.03418Z" fill="#02CFE0"/>
<path d="M6.95605 12.0059L2.11649 15.6307C1.38609 16.1779 0.956055 17.0371 0.956055 17.9497V45.1023C0.956055 46.7025 2.25327 47.9996 3.8534 47.9996H28.0584C29.6586 47.9996 30.9558 46.7024 30.9558 45.1023V17.9486C30.9558 17.0366 30.5264 16.1779 29.7968 15.6307L24.9559 12L6.95605 12.0059Z" fill="#7FF0F7"/>
<path d="M3.95996 44.3204V39.0002L4.92577 37.1834V22.2136L3.95996 21.0003V18.3415C3.95996 18.1286 4.06027 17.9281 4.23071 17.8004L7.7768 15.1444C7.89371 15.0568 8.03583 15.0095 8.1819 15.0095L23.7299 15.0044C23.8762 15.0043 24.0186 15.0518 24.1357 15.1396L27.6821 17.7993C27.8523 17.927 27.9525 18.1273 27.9525 18.3401V21.0003L26.9867 22.1652V37.811L27.9525 39.0001V44.3203C27.9525 44.6937 27.6498 44.9963 27.2765 44.9963H4.63599C4.26259 44.9964 3.95996 44.6938 3.95996 44.3204Z" fill="#00E1F0"/>
<path d="M5.78502 45.1027C5.78502 46.703 7.08206 48 8.68237 48H3.8534C2.25309 48 0.956055 46.703 0.956055 45.1027V17.9502C0.956055 17.0376 1.3858 16.178 2.11593 15.6304L6.95549 12.0057L24.9561 12L24.958 12.002L11.7846 12.0058L6.94499 15.6305C6.72965 15.7917 6.54131 15.9801 6.38193 16.1887C5.99943 16.6889 5.78502 17.3061 5.78502 17.9502V45.1027Z" fill="#00E1F0"/>
<path d="M6.38218 16.1885C5.99968 16.6887 5.78527 17.3059 5.78527 17.95V44.9962H4.63599C4.26259 44.9962 3.95996 44.6934 3.95996 44.3201V18.3414C3.95996 18.1285 4.06027 17.928 4.23062 17.8004L6.38218 16.1885Z" fill="#02CFE0"/>
<path d="M27.9561 1.44872V7.55156C27.9561 8.35125 27.307 9.00028 26.5073 9.00028H5.40477C4.60509 9.00028 3.95605 8.35125 3.95605 7.55156V1.44872C3.95605 0.649031 4.60509 0 5.40477 0H26.5074C27.3071 0 27.9561 0.649031 27.9561 1.44872Z" fill="#0065FF"/>
<path d="M27.9561 7.06866V7.55156C27.9561 8.35163 27.3075 9.00028 26.5073 9.00028H5.40477C4.60471 9.00028 3.95605 8.35172 3.95605 7.55156V1.44872C3.95605 0.648563 4.60471 0 5.40477 0H10.2337C9.43406 0 8.78502 0.649031 8.78502 1.44872V4.17131C8.78502 5.77153 10.0822 7.06866 11.6824 7.06866H27.9561Z" fill="#0065FF"/>
<path d="M9.95576 6.7245C9.55563 6.7245 9.23145 6.40022 9.23145 6.00019V3.00019C9.23145 2.60016 9.55573 2.27588 9.95576 2.27588C10.3558 2.27588 10.6801 2.60016 10.6801 3.00019V6.00019C10.6802 6.40022 10.3559 6.7245 9.95576 6.7245Z" fill="#7FF0F7"/>
<path d="M6.95576 6.7245C6.55563 6.7245 6.23145 6.40022 6.23145 6.00019V3.00019C6.23145 2.60016 6.55573 2.27588 6.95576 2.27588C7.35579 2.27588 7.68008 2.60016 7.68008 3.00019V6.00019C7.68017 6.40022 7.35589 6.7245 6.95576 6.7245Z" fill="#7FF0F7"/>
<path d="M12.9558 6.7245C12.5556 6.7245 12.2314 6.40022 12.2314 6.00019V3.00019C12.2314 2.60016 12.5557 2.27588 12.9558 2.27588C13.3558 2.27588 13.6801 2.60016 13.6801 3.00019V6.00019C13.6802 6.40022 13.3559 6.7245 12.9558 6.7245Z" fill="#7FF0F7"/>
<path d="M15.9558 6.7245C15.5556 6.7245 15.2314 6.40022 15.2314 6.00019V3.00019C15.2314 2.60016 15.5557 2.27588 15.9558 2.27588C16.3558 2.27588 16.6801 2.60016 16.6801 3.00019V6.00019C16.6802 6.40022 16.3559 6.7245 15.9558 6.7245Z" fill="#7FF0F7"/>
<path d="M18.9558 6.7245C18.5556 6.7245 18.2314 6.40022 18.2314 6.00019V3.00019C18.2314 2.60016 18.5557 2.27588 18.9558 2.27588C19.3558 2.27588 19.6801 2.60016 19.6801 3.00019V6.00019C19.6802 6.40022 19.3559 6.7245 18.9558 6.7245Z" fill="#7FF0F7"/>
<path d="M21.9558 6.7245C21.5556 6.7245 21.2314 6.40022 21.2314 6.00019V3.00019C21.2314 2.60016 21.5557 2.27588 21.9558 2.27588C22.3558 2.27588 22.6801 2.60016 22.6801 3.00019V6.00019C22.6802 6.40022 22.3559 6.7245 21.9558 6.7245Z" fill="#7FF0F7"/>
<path d="M24.9558 6.7245C24.5556 6.7245 24.2314 6.40022 24.2314 6.00019V3.00019C24.2314 2.60016 24.5557 2.27588 24.9558 2.27588C25.3558 2.27588 25.6801 2.60016 25.6801 3.00019V6.00019C25.6802 6.40022 25.3559 6.7245 24.9558 6.7245Z" fill="#7FF0F7"/>
<path d="M3.95605 21H27.9523V38.9998H3.95605V21Z" fill="#F2FBFF"/>
<path d="M5.78531 21.0005V38.9999H4.0768H3.95605V21.0005H5.78531Z" fill="#DFF6FD"/>
<path d="M18.5391 29.6877V30.7246H14.0579C11.3166 30.7246 9.09473 28.5027 9.09473 25.7615V25.3809C9.09473 25.019 9.38816 24.7246 9.75098 24.7246H13.5769C16.3172 24.7246 18.5391 26.9465 18.5391 29.6877Z" fill="#00E1F0"/>
<path d="M17.1047 30.7246H14.0578C11.3166 30.7246 9.09473 28.5027 9.09473 25.7615V25.3809C9.09473 25.019 9.38816 24.7246 9.75098 24.7246H11.9907L11.9925 24.7255V25.6115C11.9925 28.4362 14.281 30.7246 17.1047 30.7246Z" fill="#02CFE0"/>
<path d="M18.5384 31.4489C18.4049 31.4489 18.2701 31.4122 18.1493 31.335L13.6745 28.478C13.3373 28.2627 13.2385 27.8149 13.4538 27.4777C13.6692 27.1405 14.1169 27.0417 14.4541 27.257L18.9289 30.114C19.2661 30.3293 19.3649 30.7771 19.1496 31.1143C19.0114 31.3307 18.7774 31.4489 18.5384 31.4489Z" fill="#7FF0F7"/>
<path d="M22.8174 29.8809V30.2615C22.8174 33.0027 20.5956 35.2246 17.8543 35.2246H13.373V34.1877C13.373 31.4465 15.5949 29.2246 18.3352 29.2246H22.1612C22.524 29.2246 22.8174 29.519 22.8174 29.8809Z" fill="#00E1F0"/>
<path d="M21.3831 29.2246C18.5593 29.2246 16.2699 31.514 16.2699 34.3377V35.2246H13.373V34.1877C13.373 31.4465 15.5949 29.2246 18.3352 29.2246H21.3831Z" fill="#02CFE0"/>
<path d="M18.2377 32.9782L16.2718 34.2335L14.7193 35.2245H13.373V34.3648L16.7265 32.2235L17.4577 31.7566C17.7952 31.542 18.2424 31.6404 18.458 31.9779C18.6737 32.3145 18.5743 32.7626 18.2377 32.9782Z" fill="#7FF0F7"/>
<path d="M31.1446 47.0322L29.4294 47.998H25.0456C23.3874 47.998 22.0439 46.6536 22.0439 44.9963C22.0439 44.1677 22.38 43.4163 22.9229 42.8735C23.4666 42.3307 24.216 41.9946 25.0456 41.9946H29.4565L31.1447 42.9604C31.1678 44.3781 31.1678 45.7303 31.1446 47.0322Z" fill="#FEE97D"/>
<path d="M27.943 47.998H25.0456C23.3874 47.998 22.0439 46.6536 22.0439 44.9963C22.0439 44.1677 22.38 43.4163 22.9229 42.8735C23.4666 42.3307 24.216 41.9946 25.0456 41.9946H27.943C27.1134 41.9946 26.3639 42.3307 25.8202 42.8735C25.2775 43.4163 24.9413 44.1677 24.9413 44.9963C24.9413 46.6536 26.2847 47.998 27.943 47.998Z" fill="#FED402"/>
<path d="M37.0433 44.9963C37.0433 46.6536 35.6999 47.998 34.0417 47.998H29.543V41.9946H34.0417C35.6999 41.9946 37.0433 43.3381 37.0433 44.9963Z" fill="#0065FF"/>
<path d="M33.7811 37.1875C33.7811 37.4341 34.313 37.6125 34.2783 37.8497C33.9998 39.7134 32.6658 41.2331 30.9033 41.7806C30.4467 41.9222 29.9601 41.9991 29.4558 41.9991C27.0098 41.9991 24.9848 40.1972 24.6342 37.8497C24.5995 37.6125 25.2186 37.4341 25.2186 37.1875C25.2186 36.941 24.5995 36.6375 24.6342 36.4012C24.9848 34.0519 27.0098 32.25 29.4558 32.25C29.9601 32.25 30.4467 32.3269 30.9042 32.4694C32.6667 33.0169 33.9998 34.5366 34.2783 36.4012C34.313 36.6375 33.7811 36.941 33.7811 37.1875Z" fill="#FEE97D"/>
<path d="M34.3308 37.1252C34.3308 37.3715 34.3125 37.6129 34.2777 37.8495H24.6332C24.5985 37.6129 24.5801 37.3715 24.5801 37.1252C24.5801 36.8789 24.5985 36.6375 24.6332 36.4009H34.2777C34.3125 36.6374 34.3308 36.8789 34.3308 37.1252Z" fill="#FED402"/>
<path d="M30.9026 41.7806C30.446 41.9222 29.9595 41.9991 29.4551 41.9991C27.0091 41.9991 24.9841 40.1972 24.6335 37.8497C24.5988 37.6125 24.5801 37.3716 24.5801 37.125C24.5801 36.8784 24.5988 36.6375 24.6335 36.4012C24.9841 34.0519 27.0091 32.25 29.4551 32.25C29.9595 32.25 30.446 32.3269 30.9035 32.4694C29.142 33.0169 27.8088 34.5366 27.5313 36.4012C27.4957 36.6375 27.4779 36.8794 27.4779 37.125C27.4779 37.3716 27.4957 37.6134 27.5313 37.8497C27.8098 39.7125 29.142 41.2313 30.9026 41.7806Z" fill="#FED402"/>
<path d="M27.4779 37.1251C27.4779 37.3717 27.4957 37.6136 27.5313 37.8498H24.6335C24.5988 37.6126 24.5801 37.3717 24.5801 37.1251C24.5801 36.8786 24.5988 36.6376 24.6335 36.4014H27.5313C27.4957 36.6376 27.4779 36.8795 27.4779 37.1251Z" fill="#FAC600"/>
<path d="M16.7265 32.2236C16.4462 32.8377 16.2849 33.5174 16.2718 34.2336L14.7193 35.2246H13.373V34.3649L16.7265 32.2236Z" fill="#00E1F0"/>
</svg>
