<svg width="31" height="30" viewBox="0 0 31 30" fill="none" xmlns="http://www.w3.org/2000/svg">
<path d="M6.6486 18.1293L5.60435 22.0276L1.78763 22.1083C0.646989 19.9927 0 17.5722 0 15C0 12.5127 0.604919 10.1671 1.67718 8.10181H1.678L5.07595 8.72476L6.56446 12.1023C6.25292 13.0105 6.08312 13.9855 6.08312 15C6.08323 16.1011 6.28269 17.156 6.6486 18.1293Z" fill="#FBBB00"/>
<path d="M29.7401 12.1973C29.9124 13.1046 30.0022 14.0417 30.0022 14.9994C30.0022 16.0733 29.8893 17.1208 29.6742 18.1312C28.944 21.5696 27.036 24.572 24.3929 26.6966L24.3921 26.6958L20.1122 26.4774L19.5065 22.6962C21.2603 21.6677 22.6309 20.0581 23.3529 18.1312H15.332V12.1973H23.4699H29.7401Z" fill="#518EF8"/>
<path d="M24.3892 26.6957L24.39 26.6966C21.8195 28.7627 18.554 29.9989 14.9994 29.9989C9.28707 29.9989 4.32063 26.8062 1.78711 22.1077L6.64808 18.1287C7.91481 21.5093 11.1761 23.9159 14.9994 23.9159C16.6428 23.9159 18.1824 23.4716 19.5035 22.6961L24.3892 26.6957Z" fill="#28B446"/>
<path d="M24.572 3.4532L19.7126 7.43138C18.3454 6.57675 16.7291 6.08305 14.9976 6.08305C11.0877 6.08305 7.76542 8.6 6.56214 12.1019L1.67562 8.10144H1.6748C4.17124 3.28838 9.20032 0 14.9976 0C18.6371 0 21.9742 1.29641 24.572 3.4532Z" fill="#F14336"/>
</svg>
