<svg width="16" height="16" viewBox="0 0 16 16" fill="none" xmlns="http://www.w3.org/2000/svg">
<path fill-rule="evenodd" clip-rule="evenodd" d="M11.5185 9.25943C11.9683 9.25943 12.3458 9.63066 12.2771 10.0749C11.8736 12.6882 9.63636 14.6286 6.93812 14.6286C3.95285 14.6286 1.5332 12.2089 1.5332 9.22434C1.5332 6.76539 3.40127 4.47487 5.50443 3.95697C5.95636 3.84539 6.41952 4.16329 6.41952 4.62855C6.41952 7.78083 6.52548 8.59627 7.12408 9.03978C7.72268 9.48329 8.42654 9.25943 11.5185 9.25943Z" stroke="black" stroke-width="1.5" stroke-linecap="round" stroke-linejoin="round"/>
<path fill-rule="evenodd" clip-rule="evenodd" d="M14.4614 6.6343C14.4972 4.60904 12.0095 1.34448 8.97792 1.40062C8.74213 1.40483 8.55336 1.60132 8.54283 1.83641C8.46634 3.50167 8.5695 5.65956 8.62704 6.63781C8.64459 6.94237 8.88389 7.18167 9.18774 7.19921C10.1934 7.25676 12.4299 7.33535 14.0713 7.08693C14.2944 7.05325 14.4579 6.85956 14.4614 6.6343Z" stroke="black" stroke-width="1.5" stroke-linecap="round" stroke-linejoin="round"/>
</svg>
