<svg width="28" height="48" viewBox="0 0 28 48" fill="none" xmlns="http://www.w3.org/2000/svg">
<path d="M27.5 2.8125V45.1875C27.5 46.7409 26.2409 48 24.6875 48H3.3125C1.75906 48 0.5 46.7409 0.5 45.1875V2.8125C0.5 1.25906 1.75906 0 3.3125 0H24.6875C26.2409 0 27.5 1.25906 27.5 2.8125Z" fill="#F2FBFF"/>
<path d="M3.5 43.59V4.41016C3.5 3.63353 4.12962 3.00391 4.90625 3.00391H23.0936C23.8702 3.00391 24.4998 3.63353 24.4998 4.41016V43.5901C24.4998 44.3667 23.8702 44.9963 23.0936 44.9963H4.90625C4.12962 44.9962 3.5 44.3667 3.5 43.59Z" fill="#C8EFFE"/>
<path d="M7.99991 12.9373C6.65591 12.9373 5.5625 11.8439 5.5625 10.4999C5.5625 9.84909 5.81609 9.23709 6.2765 8.77659C6.73691 8.31609 7.34891 8.0625 7.99991 8.0625H11.0007C12.3446 8.0625 13.438 9.15591 13.438 10.4999C13.438 11.1508 13.1845 11.7628 12.7241 12.2232C12.2635 12.6837 11.6515 12.9372 11.0007 12.9372H7.99991V12.9373Z" fill="#99E6FC"/>
<path d="M10.0632 11.0622L9.50075 11.9997H7.99991C7.17219 11.9997 6.5 11.3285 6.5 10.4998C6.5 10.0854 6.6681 9.71072 6.93941 9.43941C7.21081 9.168 7.58647 9 7.99981 9H9.50066L10.0631 9.9375C10.0745 11.0505 10.0628 10.2888 10.0632 11.0622Z" fill="#F2FBFF"/>
<path d="M12.5007 10.4998C12.5007 10.9142 12.3326 11.2889 12.0613 11.5602C11.7899 11.8316 11.4152 11.9996 11.0009 11.9996H9.50098V9H11.0009C11.8285 9 12.5007 9.67116 12.5007 10.4998Z" fill="#0065FF"/>
<path d="M16.9999 12.9373C15.6559 12.9373 14.5625 11.8439 14.5625 10.4999C14.5625 9.84909 14.8161 9.23709 15.2765 8.77659C15.7369 8.31609 16.3489 8.0625 16.9999 8.0625H20.0007C21.3446 8.0625 22.438 9.15591 22.438 10.4999C22.438 11.1508 22.1845 11.7628 21.7241 12.2232C21.2635 12.6837 20.6515 12.9372 20.0007 12.9372H16.9999V12.9373Z" fill="#99E6FC"/>
<path d="M19.0632 11.0622L18.5008 11.9997H16.9999C16.1722 11.9997 15.5 11.3285 15.5 10.4998C15.5 10.0854 15.6681 9.71072 15.9394 9.43941C16.2107 9.16809 16.5865 9 16.9998 9H18.5007L19.0631 9.9375C19.0745 11.0505 19.0628 10.2888 19.0632 11.0622Z" fill="#F2FBFF"/>
<path d="M21.5008 10.4998C21.5008 10.9142 21.3327 11.2889 21.0614 11.5602C20.79 11.8316 20.4153 11.9996 20.0009 11.9996H18.501V9H20.0009C20.8286 9 21.5008 9.67116 21.5008 10.4998Z" fill="#0065FF"/>
<path d="M7.99991 18.9608C6.65591 18.9608 5.5625 17.8673 5.5625 16.5233C5.5625 15.8725 5.81609 15.2605 6.2765 14.8C6.73691 14.3395 7.34891 14.0859 7.99991 14.0859H11.0007C12.3446 14.0859 13.438 15.1793 13.438 16.5233C13.438 17.1743 13.1845 17.7863 12.7241 18.2467C12.2635 18.7072 11.6515 18.9607 11.0007 18.9607H7.99991V18.9608Z" fill="#99E6FC"/>
<path d="M10.0632 17.0857L9.50075 18.0232H7.99991C7.17219 18.0232 6.5 17.3519 6.5 16.5232C6.5 16.1089 6.6681 15.7342 6.93941 15.4628C7.21081 15.1914 7.58647 15.0234 7.99981 15.0234H9.50066L10.0631 15.9609C10.0745 17.0739 10.0628 16.3122 10.0632 17.0857Z" fill="#F2FBFF"/>
<path d="M12.5007 16.5233C12.5007 16.9377 12.3326 17.3124 12.0613 17.5837C11.7899 17.8552 11.4152 18.0232 11.0009 18.0232H9.50098V15.0234H11.0009C11.8285 15.0235 12.5007 15.6947 12.5007 16.5233Z" fill="#0065FF"/>
<path d="M16.9999 18.9608C15.6559 18.9608 14.5625 17.8673 14.5625 16.5233C14.5625 15.8725 14.8161 15.2605 15.2765 14.8C15.7369 14.3395 16.3489 14.0859 16.9999 14.0859H20.0007C21.3446 14.0859 22.438 15.1793 22.438 16.5233C22.438 17.1743 22.1845 17.7863 21.7241 18.2467C21.2635 18.7072 20.6515 18.9607 20.0007 18.9607H16.9999V18.9608Z" fill="#99E6FC"/>
<path d="M19.0632 17.0857L18.5008 18.0232H16.9999C16.1722 18.0232 15.5 17.3519 15.5 16.5232C15.5 16.1089 15.6681 15.7342 15.9394 15.4628C16.2108 15.1914 16.5865 15.0234 16.9998 15.0234H18.5007L19.0631 15.9609C19.0745 17.0739 19.0628 16.3122 19.0632 17.0857Z" fill="#F2FBFF"/>
<path d="M21.5008 16.5233C21.5008 16.9377 21.3327 17.3124 21.0614 17.5837C20.79 17.8552 20.4153 18.0232 20.0009 18.0232H18.501V15.0234H20.0009C20.8286 15.0235 21.5008 15.6947 21.5008 16.5233Z" fill="#0065FF"/>
<path d="M7.99991 24.9842C6.65591 24.9842 5.5625 23.8908 5.5625 22.5468C5.5625 21.896 5.81609 21.284 6.2765 20.8235C6.73691 20.363 7.34891 20.1094 7.99991 20.1094H11.0007C12.3446 20.1094 13.438 21.2028 13.438 22.5468C13.438 23.1977 13.1845 23.8097 12.7241 24.2701C12.2635 24.7306 11.6515 24.9841 11.0007 24.9841H7.99991V24.9842Z" fill="#99E6FC"/>
<path d="M10.0632 23.1091L9.50075 24.0466H7.99991C7.17219 24.0466 6.5 23.3753 6.5 22.5467C6.5 22.1323 6.6681 21.7577 6.93941 21.4863C7.21081 21.2149 7.58647 21.0469 7.99981 21.0469H9.50066L10.0631 21.9844C10.0745 23.0974 10.0628 22.3357 10.0632 23.1091Z" fill="#F2FBFF"/>
<path d="M12.5007 22.5468C12.5007 22.9612 12.3326 23.3359 12.0613 23.6072C11.7899 23.8786 11.4152 24.0466 11.0009 24.0466H9.50098V21.0469H11.0009C11.8285 21.047 12.5007 21.7181 12.5007 22.5468Z" fill="#0065FF"/>
<path d="M16.9999 24.9842C15.6559 24.9842 14.5625 23.8908 14.5625 22.5468C14.5625 21.896 14.8161 21.284 15.2765 20.8235C15.7369 20.363 16.3489 20.1094 16.9999 20.1094H20.0007C21.3446 20.1094 22.438 21.2028 22.438 22.5468C22.438 23.1977 22.1845 23.8097 21.7241 24.2701C21.2635 24.7306 20.6515 24.9841 20.0007 24.9841H16.9999V24.9842Z" fill="#99E6FC"/>
<path d="M19.0632 23.1091L18.5008 24.0466H16.9999C16.1722 24.0466 15.5 23.3753 15.5 22.5467C15.5 22.1323 15.6681 21.7577 15.9394 21.4863C16.2108 21.2149 16.5865 21.0469 16.9998 21.0469H18.5007L19.0631 21.9844C19.0745 23.0974 19.0628 22.3357 19.0632 23.1091Z" fill="#F2FBFF"/>
<path d="M21.5008 22.5468C21.5008 22.9612 21.3327 23.3359 21.0614 23.6072C20.79 23.8786 20.4153 24.0466 20.0009 24.0466H18.501V21.0469H20.0009C20.8286 21.047 21.5008 21.7181 21.5008 22.5468Z" fill="#0065FF"/>
<path d="M7.99991 31.0076C6.65591 31.0076 5.5625 29.9142 5.5625 28.5702C5.5625 27.9194 5.81609 27.3074 6.2765 26.8469C6.73691 26.3864 7.34891 26.1328 7.99991 26.1328H11.0007C12.3446 26.1328 13.438 27.2262 13.438 28.5702C13.438 29.2211 13.1845 29.8331 12.7241 30.2935C12.2635 30.754 11.6515 31.0075 11.0007 31.0075H7.99991V31.0076Z" fill="#99E6FC"/>
<path d="M10.0632 29.1325L9.50075 30.07H7.99991C7.17219 30.07 6.5 29.3988 6.5 28.5701C6.5 28.1558 6.6681 27.781 6.93941 27.5097C7.21081 27.2383 7.58647 27.0703 7.99981 27.0703H9.50066L10.0631 28.0078C10.0745 29.1208 10.0628 28.3591 10.0632 29.1325Z" fill="#F2FBFF"/>
<path d="M12.5007 28.5702C12.5007 28.9846 12.3326 29.3593 12.0613 29.6306C11.7899 29.902 11.4152 30.07 11.0009 30.07H9.50098V27.0703H11.0009C11.8285 27.0704 12.5007 27.7416 12.5007 28.5702Z" fill="#0065FF"/>
<path d="M16.9999 31.0076C15.6559 31.0076 14.5625 29.9142 14.5625 28.5702C14.5625 27.9194 14.8161 27.3074 15.2765 26.8469C15.7369 26.3864 16.3489 26.1328 16.9999 26.1328H20.0007C21.3446 26.1328 22.438 27.2262 22.438 28.5702C22.438 29.2211 22.1845 29.8331 21.7241 30.2935C21.2635 30.754 20.6515 31.0075 20.0007 31.0075H16.9999V31.0076Z" fill="#99E6FC"/>
<path d="M19.0632 29.1325L18.5008 30.07H16.9999C16.1722 30.07 15.5 29.3988 15.5 28.5701C15.5 28.1558 15.6681 27.781 15.9394 27.5097C16.2107 27.2384 16.5865 27.0703 16.9998 27.0703H18.5007L19.0631 28.0078C19.0745 29.1208 19.0628 28.3591 19.0632 29.1325Z" fill="#F2FBFF"/>
<path d="M21.5008 28.5702C21.5008 28.9846 21.3327 29.3593 21.0614 29.6306C20.79 29.902 20.4153 30.07 20.0009 30.07H18.501V27.0703H20.0009C20.8286 27.0704 21.5008 27.7416 21.5008 28.5702Z" fill="#0065FF"/>
<path d="M7.99991 37.0311C6.65591 37.0311 5.5625 35.9377 5.5625 34.5937C5.5625 33.9428 5.81609 33.3308 6.2765 32.8703C6.73691 32.4098 7.34891 32.1562 7.99991 32.1562H11.0007C12.3446 32.1562 13.438 33.2497 13.438 34.5937C13.438 35.2446 13.1845 35.8566 12.7241 36.317C12.2635 36.7775 11.6515 37.031 11.0007 37.031H7.99991V37.0311Z" fill="#99E6FC"/>
<path d="M10.0632 35.156L9.50075 36.0935H7.99991C7.17219 36.0935 6.5 35.4222 6.5 34.5936C6.5 34.1792 6.6681 33.8045 6.93941 33.5332C7.21081 33.2618 7.58647 33.0938 7.99981 33.0938H9.50066L10.0631 34.0312C10.0745 35.1442 10.0628 34.3825 10.0632 35.156Z" fill="#F2FBFF"/>
<path d="M12.5007 34.5937C12.5007 35.008 12.3326 35.3828 12.0613 35.6541C11.7899 35.9255 11.4152 36.0935 11.0009 36.0935H9.50098V33.0938H11.0009C11.8285 33.0938 12.5007 33.765 12.5007 34.5937Z" fill="#0065FF"/>
<path d="M16.9999 37.0311C15.6559 37.0311 14.5625 35.9377 14.5625 34.5937C14.5625 33.9428 14.8161 33.3308 15.2765 32.8703C15.7369 32.4098 16.3489 32.1562 16.9999 32.1562H20.0007C21.3446 32.1562 22.438 33.2497 22.438 34.5937C22.438 35.2446 22.1845 35.8566 21.7241 36.317C21.2635 36.7775 20.6515 37.031 20.0007 37.031H16.9999V37.0311Z" fill="#99E6FC"/>
<path d="M19.0632 35.156L18.5008 36.0935H16.9999C16.1722 36.0935 15.5 35.4222 15.5 34.5936C15.5 34.1792 15.6681 33.8045 15.9394 33.5332C16.2107 33.2618 16.5865 33.0938 16.9998 33.0938H18.5007L19.0631 34.0312C19.0745 35.1442 19.0628 34.3825 19.0632 35.156Z" fill="#F2FBFF"/>
<path d="M21.5008 34.5937C21.5008 35.008 21.3327 35.3828 21.0614 35.6541C20.79 35.9255 20.4153 36.0935 20.0009 36.0935H18.501V33.0938H20.0009C20.8286 33.0938 21.5008 33.765 21.5008 34.5937Z" fill="#0065FF"/>
<path d="M7.99991 43.0545C6.65591 43.0545 5.5625 41.9611 5.5625 40.6171C5.5625 39.9663 5.81609 39.3543 6.2765 38.8938C6.73691 38.4333 7.34891 38.1797 7.99991 38.1797H11.0007C12.3446 38.1797 13.438 39.2731 13.438 40.6171C13.438 41.268 13.1845 41.88 12.7241 42.3404C12.2635 42.8009 11.6515 43.0544 11.0007 43.0544H7.99991V43.0545Z" fill="#99E6FC"/>
<path d="M10.0632 41.1794L9.50075 42.1169H7.99991C7.17219 42.1169 6.5 41.4457 6.5 40.617C6.5 40.2026 6.6681 39.8279 6.93941 39.5566C7.21081 39.2852 7.58647 39.1172 7.99981 39.1172H9.50066L10.0631 40.0547C10.0745 41.1677 10.0628 40.406 10.0632 41.1794Z" fill="#F2FBFF"/>
<path d="M12.5007 40.6171C12.5007 41.0315 12.3326 41.4062 12.0613 41.6775C11.7899 41.9489 11.4152 42.1169 11.0009 42.1169H9.50098V39.1172H11.0009C11.8285 39.1173 12.5007 39.7884 12.5007 40.6171Z" fill="#0065FF"/>
<path d="M16.9999 43.0545C15.6559 43.0545 14.5625 41.9611 14.5625 40.6171C14.5625 39.9663 14.8161 39.3543 15.2765 38.8938C15.7369 38.4333 16.3489 38.1797 16.9999 38.1797H20.0007C21.3446 38.1797 22.438 39.2731 22.438 40.6171C22.438 41.268 22.1845 41.88 21.7241 42.3404C21.2635 42.8009 20.6515 43.0544 20.0007 43.0544H16.9999V43.0545Z" fill="#99E6FC"/>
<path d="M19.0632 41.1794L18.5008 42.1169H16.9999C16.1722 42.1169 15.5 41.4457 15.5 40.617C15.5 40.2026 15.6681 39.8279 15.9394 39.5566C16.2107 39.2853 16.5865 39.1172 16.9998 39.1172H18.5007L19.0631 40.0547C19.0745 41.1677 19.0628 40.406 19.0632 41.1794Z" fill="#F2FBFF"/>
<path d="M21.5008 40.6171C21.5008 41.0315 21.3327 41.4062 21.0614 41.6775C20.79 41.9489 20.4153 42.1169 20.0009 42.1169H18.501V39.1172H20.0009C20.8286 39.1173 21.5008 39.7884 21.5008 40.6171Z" fill="#0065FF"/>
<path d="M6.40531 48H3.3125C1.75906 48 0.5 46.7409 0.5 45.1875V2.8125C0.5 1.25906 1.75906 0 3.3125 0H6.40531C4.805 0 3.5075 1.2975 3.5075 2.89781V45.1022C3.5075 46.7025 4.805 48 6.40531 48Z" fill="#DFF6FD"/>
<path d="M18.4996 6.7245H9.4997C9.09958 6.7245 8.77539 6.40022 8.77539 6.00019C8.77539 5.60016 9.09967 5.27588 9.4997 5.27588H18.4996C18.8997 5.27588 19.2239 5.60016 19.2239 6.00019C19.2239 6.40022 18.8996 6.7245 18.4996 6.7245Z" fill="#F2FBFF"/>
</svg>
