<svg width="16" height="14" viewBox="0 0 16 14" fill="none" xmlns="http://www.w3.org/2000/svg">
<path d="M6.3207 8.7751C5.88945 8.3446 5.62695 7.7596 5.62695 7.10335C5.62695 5.7886 6.68595 4.72885 7.99995 4.72885C8.6502 4.72885 9.2487 4.9921 9.67245 5.4226" stroke="#C4C4C4" stroke-width="1.5" stroke-linecap="round" stroke-linejoin="round"/>
<path d="M10.3285 7.52417C10.1545 8.49167 9.39253 9.25517 8.42578 9.43067" stroke="#C4C4C4" stroke-width="1.5" stroke-linecap="round" stroke-linejoin="round"/>
<path d="M3.99125 11.1042C2.801 10.1697 1.793 8.80473 1.0625 7.10298C1.8005 5.39373 2.81525 4.02123 4.013 3.07923C5.20325 2.13723 6.5765 1.62573 8 1.62573C9.43175 1.62573 10.8043 2.14473 12.002 3.09348" stroke="#C4C4C4" stroke-width="1.5" stroke-linecap="round" stroke-linejoin="round"/>
<path d="M13.5856 4.7431C14.1016 5.4286 14.5553 6.21985 14.9371 7.1026C13.4618 10.5204 10.8548 12.5791 7.99959 12.5791C7.35234 12.5791 6.71409 12.4741 6.10059 12.2694" stroke="#C4C4C4" stroke-width="1.5" stroke-linecap="round" stroke-linejoin="round"/>
<path d="M13.9155 1.18719L2.08496 13.0177" stroke="#C4C4C4" stroke-width="1.5" stroke-linecap="round" stroke-linejoin="round"/>
</svg>
