<svg width="16" height="16" viewBox="0 0 16 16" fill="none" xmlns="http://www.w3.org/2000/svg">
<path d="M6.10514 13.8478V11.8033C6.10512 11.2833 6.52907 10.8607 7.05433 10.8572H8.97838C9.50615 10.8572 9.934 11.2808 9.934 11.8033V11.8033V13.8541C9.93387 14.2956 10.2898 14.6565 10.7357 14.6668H12.0184C13.2971 14.6668 14.3337 13.6406 14.3337 12.3747V12.3747V6.55872C14.3268 6.06071 14.0906 5.59306 13.6923 5.28885L9.30547 1.79036C8.53695 1.18121 7.44446 1.18121 6.67594 1.79036L2.30834 5.2952C1.9085 5.59818 1.67192 6.06661 1.66699 6.56507V12.3747C1.66699 13.6406 2.70358 14.6668 3.98227 14.6668H5.26497C5.72189 14.6668 6.09231 14.3001 6.09231 13.8478V13.8478" stroke="#2AA3BF" stroke-width="1.5" stroke-linecap="round" stroke-linejoin="round"/>
</svg>
