<svg width="48" height="48" viewBox="0 0 48 48" fill="none" xmlns="http://www.w3.org/2000/svg">
<g clip-path="url(#clip0_892_1433)">
<path d="M33.9999 47.9999H27.75L26.8125 46.922V33.961L27.75 33L28.6172 32.0625H33.0937L33.9999 33V47.9999Z" fill="#003CBF"/>
<path d="M29.6816 32.063V48.0002H27.75V33.0005L28.5936 32.063H29.6816Z" fill="#0065FF"/>
<path d="M34.5938 32.9999H27.75L26.8125 32.5078V30.6328L27.75 30H34.5938C34.9562 30 35.25 30.2938 35.25 30.6562V32.3437C35.25 32.7061 34.9562 32.9999 34.5938 32.9999Z" fill="#02CFE0"/>
<path d="M27.75 29.9995H29.6816V33.0003H27.75V29.9995Z" fill="#00E1F0"/>
<path d="M22.7366 17.529L21.9841 18.4665H18.5621L17.7627 17.529L18.8821 1.27669C18.9316 0.557813 19.5291 0 20.2497 0C20.9703 0 21.5678 0.557813 21.6173 1.27669L22.7366 17.529Z" fill="#02CFE0"/>
<path d="M21.2154 0.397875C20.9866 0.624844 20.8369 0.931969 20.8137 1.27669L19.6943 17.5291H17.7627L18.8821 1.27669C18.9314 0.558187 19.5291 0 20.2496 0C20.6099 0 20.9392 0.139031 21.1855 0.368906C21.1952 0.378562 21.2058 0.388219 21.2154 0.397875Z" fill="#00E1F0"/>
<path d="M16.835 20.0591H23.666V24.9253H16.835V20.0591Z" fill="#FED402"/>
<path d="M27.75 27.5662V48H12.75V27.5662C12.75 25.59 14.3522 23.9878 16.3284 23.9878H24.1716C26.1478 23.9878 27.75 25.59 27.75 27.5662Z" fill="#FEE97D"/>
<path d="M19.4362 23.9878C17.4009 23.9878 15.75 25.6378 15.75 27.675V48H12.75V27.5662C12.75 25.59 14.3522 23.9878 16.3284 23.9878H19.4362Z" fill="#FED402"/>
<path d="M24.705 20.9957H15.7949C15.4325 20.9957 15.1387 20.7019 15.1387 20.3395V18.1855C15.1387 17.8231 15.4325 17.5293 15.7949 17.5293H24.705C25.0674 17.5293 25.3613 17.8231 25.3613 18.1855V20.3395C25.3613 20.7019 25.0674 20.9957 24.705 20.9957Z" fill="#003CBF"/>
<path d="M18.036 17.5293V20.9955H15.7949C15.4325 20.9955 15.1387 20.7017 15.1387 20.3393V18.1855C15.1387 17.8231 15.4325 17.5293 15.7949 17.5293H18.036Z" fill="#0065FF"/>
<path d="M16.4062 41.4375C15.5274 41.4375 14.8125 40.7226 14.8125 39.8438V32.1562C14.8125 31.2774 15.5274 30.5625 16.4062 30.5625H24.0938C24.9726 30.5625 25.6875 31.2774 25.6875 32.1562V39.8438C25.6875 40.7226 24.9726 41.4375 24.0938 41.4375H16.4062Z" fill="#FED402"/>
<path d="M24.0938 40.5H16.4062C16.0438 40.5 15.75 40.2062 15.75 39.8438V32.1562C15.75 31.7938 16.0438 31.5 16.4062 31.5H24.0938C24.4562 31.5 24.75 31.7938 24.75 32.1562V39.8438C24.75 40.2062 24.4562 40.5 24.0938 40.5Z" fill="#0065FF"/>
<path d="M21.9923 35.2755H20.9742V34.2575C20.9742 33.8574 20.6499 33.5332 20.2499 33.5332C19.8498 33.5332 19.5255 33.8575 19.5255 34.2575V35.2755H18.5075C18.1074 35.2755 17.7832 35.5998 17.7832 35.9999C17.7832 36.3999 18.1075 36.7242 18.5075 36.7242H19.5255V37.7423C19.5255 38.1424 19.8498 38.4666 20.2499 38.4666C20.6499 38.4666 20.9742 38.1423 20.9742 37.7423V36.7242H21.9923C22.3924 36.7242 22.7166 36.3999 22.7166 35.9999C22.7166 35.5998 22.3924 35.2755 21.9923 35.2755Z" fill="#F2FBFF"/>
</g>
<defs>
<clipPath id="clip0_892_1433">
<rect width="48" height="48" fill="white"/>
</clipPath>
</defs>
</svg>
