<svg width="154" height="73" viewBox="0 0 154 73" fill="none" xmlns="http://www.w3.org/2000/svg">
<path d="M2.88 50H9.84V34.88L16.8 50H21.12L28.08 34.88V50H35.04V19.76H28.8L18.96 41.12L9.12 19.76H2.88V50ZM54.0019 43.04C53.8099 43.328 53.5699 43.568 53.2339 43.76C52.7059 44.144 51.8419 44.48 50.6419 44.48C48.1939 44.48 46.6099 42.8 46.0819 41.12H61.2019L61.2979 40.4C61.3459 39.968 61.4419 39.488 61.4419 38.96C61.4419 32 56.6419 27.44 50.6419 27.44C44.4019 27.44 39.3619 32.48 39.3619 38.96C39.3619 45.44 44.4499 50.48 50.4019 50.48C56.1139 50.48 59.5699 47.12 60.7219 43.52L54.0019 43.04ZM46.0819 37.04C46.6099 35.12 48.1939 33.44 50.6419 33.44C53.0899 33.44 54.6739 35.12 55.2019 37.04H46.0819ZM81.585 50H86.385V19.76H79.905V29.6C79.473 29.264 78.993 28.928 78.417 28.64C77.457 28.112 76.065 27.68 74.385 27.68C68.865 27.68 64.065 32.432 64.065 38.96C64.065 45.488 68.865 50.24 74.385 50.24C76.305 50.24 77.841 49.664 78.945 49.04C79.569 48.704 80.097 48.272 80.625 47.84L81.585 50ZM75.345 44.24C72.657 44.24 70.545 42.08 70.545 38.96C70.545 35.84 72.657 33.68 75.345 33.68C78.033 33.68 80.145 35.84 80.145 38.96C80.145 42.08 78.033 44.24 75.345 44.24ZM91.1813 50H97.6613V27.92H91.1813V50ZM90.9413 21.92C90.9413 23.84 92.6213 25.52 94.5413 25.52C96.4613 25.52 98.1413 23.84 98.1413 21.92C98.1413 20 96.4613 18.32 94.5413 18.32C92.6213 18.32 90.9413 20 90.9413 21.92ZM99.8381 50H107.038L111.118 43.28L115.198 50H122.398L115.198 38.72L121.918 27.92H114.718L111.118 34.16L107.518 27.92H100.318L107.038 38.72L99.8381 50Z" fill="white"/>
<g clip-path="url(#clip0_120_13)">
<path d="M151.669 22.6022C148.584 19.5187 143.565 19.5187 140.48 22.6022L133.957 29.1252L141.363 36.5311C142.887 35.2618 144.82 34.467 146.953 34.467C148.177 34.467 149.342 34.7212 150.402 35.1752L151.669 33.791C154.753 30.7066 154.753 25.6874 151.669 22.6022Z" fill="white"/>
<path d="M140.13 37.7843L132.714 30.3682L126.33 36.7587C123.246 39.843 123.246 44.8623 126.33 47.9475C129.415 51.0308 134.492 51.0896 137.577 48.006L138.871 46.7056C138.417 45.6458 138.163 44.4812 138.163 43.2573C138.163 41.1782 138.919 39.291 140.13 37.7843Z" fill="white"/>
<path d="M139.92 43.2576C139.92 46.8403 142.609 49.7642 146.073 50.2012V36.314C142.609 36.751 139.92 39.6748 139.92 43.2576Z" fill="white"/>
<path d="M147.83 36.314V50.2012C151.294 49.7642 153.983 46.8403 153.983 43.2576C153.983 39.6748 151.294 36.751 147.83 36.314Z" fill="white"/>
</g>
<defs>
<clipPath id="clip0_120_13">
<rect width="30" height="30" fill="white" transform="translate(124 20.2893)"/>
</clipPath>
</defs>
</svg>
