<svg width="25" height="15" viewBox="0 0 25 15" fill="none" xmlns="http://www.w3.org/2000/svg">
<circle cx="17.5" cy="7.5" r="7.5" fill="#FD8524"/>
<circle cx="7.5" cy="7.5" r="7.5" fill="#E22C3C"/>
<path d="M2.92969 6.15625L3.75 8.33594L4.56836 6.15625H5.20703V9H4.71484V8.0625L4.76367 6.80859L3.92383 9H3.57031L2.73242 6.81055L2.78125 8.0625V9H2.28906V6.15625H2.92969ZM7.00977 9C6.98893 8.95964 6.9707 8.89388 6.95508 8.80273C6.80404 8.96029 6.61914 9.03906 6.40039 9.03906C6.18815 9.03906 6.01497 8.97852 5.88086 8.85742C5.74674 8.73633 5.67969 8.58659 5.67969 8.4082C5.67969 8.18294 5.76302 8.01042 5.92969 7.89062C6.09766 7.76953 6.33724 7.70898 6.64844 7.70898H6.93945V7.57031C6.93945 7.46094 6.90885 7.3737 6.84766 7.30859C6.78646 7.24219 6.69336 7.20898 6.56836 7.20898C6.46029 7.20898 6.37174 7.23633 6.30273 7.29102C6.23372 7.3444 6.19922 7.41276 6.19922 7.49609H5.72461C5.72461 7.38021 5.76302 7.27214 5.83984 7.17188C5.91667 7.07031 6.02083 6.99089 6.15234 6.93359C6.28516 6.8763 6.43294 6.84766 6.5957 6.84766C6.8431 6.84766 7.04036 6.91016 7.1875 7.03516C7.33464 7.15885 7.41016 7.33333 7.41406 7.55859V8.51172C7.41406 8.70182 7.44076 8.85352 7.49414 8.9668V9H7.00977ZM6.48828 8.6582C6.58203 8.6582 6.66992 8.63542 6.75195 8.58984C6.83529 8.54427 6.89779 8.48307 6.93945 8.40625V8.00781H6.68359C6.50781 8.00781 6.37565 8.03841 6.28711 8.09961C6.19857 8.16081 6.1543 8.2474 6.1543 8.35938C6.1543 8.45052 6.18424 8.52344 6.24414 8.57812C6.30534 8.63151 6.38672 8.6582 6.48828 8.6582ZM9.0957 8.42578C9.0957 8.34115 9.06055 8.27669 8.99023 8.23242C8.92122 8.18815 8.80599 8.14909 8.64453 8.11523C8.48307 8.08138 8.34831 8.03841 8.24023 7.98633C8.00326 7.87174 7.88477 7.70573 7.88477 7.48828C7.88477 7.30599 7.96159 7.15365 8.11523 7.03125C8.26888 6.90885 8.46419 6.84766 8.70117 6.84766C8.95378 6.84766 9.15755 6.91016 9.3125 7.03516C9.46875 7.16016 9.54688 7.32227 9.54688 7.52148H9.07227C9.07227 7.43034 9.03841 7.35482 8.9707 7.29492C8.90299 7.23372 8.81315 7.20312 8.70117 7.20312C8.59701 7.20312 8.51172 7.22721 8.44531 7.27539C8.38021 7.32357 8.34766 7.38802 8.34766 7.46875C8.34766 7.54167 8.37826 7.59831 8.43945 7.63867C8.50065 7.67904 8.62435 7.72005 8.81055 7.76172C8.99674 7.80208 9.14258 7.85091 9.24805 7.9082C9.35482 7.96419 9.43359 8.0319 9.48438 8.11133C9.53646 8.19076 9.5625 8.28711 9.5625 8.40039C9.5625 8.59049 9.48372 8.74479 9.32617 8.86328C9.16862 8.98047 8.96224 9.03906 8.70703 9.03906C8.53385 9.03906 8.37956 9.00781 8.24414 8.94531C8.10872 8.88281 8.00326 8.79688 7.92773 8.6875C7.85221 8.57812 7.81445 8.46029 7.81445 8.33398H8.27539C8.2819 8.44596 8.32422 8.53255 8.40234 8.59375C8.48047 8.65365 8.58398 8.68359 8.71289 8.68359C8.83789 8.68359 8.93294 8.66016 8.99805 8.61328C9.06315 8.5651 9.0957 8.5026 9.0957 8.42578ZM10.5723 6.37305V6.88672H10.9453V7.23828H10.5723V8.41797C10.5723 8.4987 10.5879 8.55729 10.6191 8.59375C10.6517 8.62891 10.709 8.64648 10.791 8.64648C10.8457 8.64648 10.901 8.63997 10.957 8.62695V8.99414C10.849 9.02409 10.7448 9.03906 10.6445 9.03906C10.2799 9.03906 10.0977 8.83789 10.0977 8.43555V7.23828H9.75V6.88672H10.0977V6.37305H10.5723ZM12.2402 9.03906C11.9395 9.03906 11.6953 8.94466 11.5078 8.75586C11.3216 8.56576 11.2285 8.31315 11.2285 7.99805V7.93945C11.2285 7.72852 11.2689 7.54036 11.3496 7.375C11.4316 7.20833 11.5462 7.07878 11.6934 6.98633C11.8405 6.89388 12.0046 6.84766 12.1855 6.84766C12.4733 6.84766 12.6953 6.93945 12.8516 7.12305C13.0091 7.30664 13.0879 7.56641 13.0879 7.90234V8.09375H11.707C11.7214 8.26823 11.7793 8.40625 11.8809 8.50781C11.9837 8.60938 12.1126 8.66016 12.2676 8.66016C12.485 8.66016 12.6621 8.57227 12.7988 8.39648L13.0547 8.64062C12.9701 8.76693 12.8568 8.86523 12.7148 8.93555C12.5742 9.00456 12.416 9.03906 12.2402 9.03906ZM12.1836 7.22852C12.0534 7.22852 11.9479 7.27409 11.8672 7.36523C11.7878 7.45638 11.737 7.58333 11.7148 7.74609H12.6191V7.71094C12.6087 7.55208 12.5664 7.43229 12.4922 7.35156C12.418 7.26953 12.3151 7.22852 12.1836 7.22852ZM14.5645 7.32031C14.502 7.3099 14.4375 7.30469 14.3711 7.30469C14.1536 7.30469 14.0072 7.38802 13.9316 7.55469V9H13.457V6.88672H13.9102L13.9219 7.12305C14.0365 6.93945 14.1953 6.84766 14.3984 6.84766C14.4661 6.84766 14.5221 6.85677 14.5664 6.875L14.5645 7.32031ZM17.0801 8.07422C17.0514 8.3776 16.9395 8.61458 16.7441 8.78516C16.5488 8.95443 16.2891 9.03906 15.9648 9.03906C15.7383 9.03906 15.5384 8.98568 15.3652 8.87891C15.1934 8.77083 15.0605 8.61784 14.9668 8.41992C14.873 8.22201 14.8242 7.99219 14.8203 7.73047V7.46484C14.8203 7.19661 14.8678 6.96029 14.9629 6.75586C15.0579 6.55143 15.194 6.39388 15.3711 6.2832C15.5495 6.17253 15.7552 6.11719 15.9883 6.11719C16.3021 6.11719 16.5547 6.20247 16.7461 6.37305C16.9375 6.54362 17.0488 6.78451 17.0801 7.0957H16.5879C16.5645 6.89128 16.5046 6.74414 16.4082 6.6543C16.3132 6.56315 16.1732 6.51758 15.9883 6.51758C15.7734 6.51758 15.6081 6.59635 15.4922 6.75391C15.3776 6.91016 15.319 7.13997 15.3164 7.44336V7.69531C15.3164 8.0026 15.3711 8.23698 15.4805 8.39844C15.5911 8.5599 15.7526 8.64062 15.9648 8.64062C16.1589 8.64062 16.3047 8.59701 16.4023 8.50977C16.5 8.42253 16.5618 8.27734 16.5879 8.07422H17.0801ZM18.7402 9C18.7194 8.95964 18.7012 8.89388 18.6855 8.80273C18.5345 8.96029 18.3496 9.03906 18.1309 9.03906C17.9186 9.03906 17.7454 8.97852 17.6113 8.85742C17.4772 8.73633 17.4102 8.58659 17.4102 8.4082C17.4102 8.18294 17.4935 8.01042 17.6602 7.89062C17.8281 7.76953 18.0677 7.70898 18.3789 7.70898H18.6699V7.57031C18.6699 7.46094 18.6393 7.3737 18.5781 7.30859C18.5169 7.24219 18.4238 7.20898 18.2988 7.20898C18.1908 7.20898 18.1022 7.23633 18.0332 7.29102C17.9642 7.3444 17.9297 7.41276 17.9297 7.49609H17.4551C17.4551 7.38021 17.4935 7.27214 17.5703 7.17188C17.6471 7.07031 17.7513 6.99089 17.8828 6.93359C18.0156 6.8763 18.1634 6.84766 18.3262 6.84766C18.5736 6.84766 18.7708 6.91016 18.918 7.03516C19.0651 7.15885 19.1406 7.33333 19.1445 7.55859V8.51172C19.1445 8.70182 19.1712 8.85352 19.2246 8.9668V9H18.7402ZM18.2188 8.6582C18.3125 8.6582 18.4004 8.63542 18.4824 8.58984C18.5658 8.54427 18.6283 8.48307 18.6699 8.40625V8.00781H18.4141C18.2383 8.00781 18.1061 8.03841 18.0176 8.09961C17.929 8.16081 17.8848 8.2474 17.8848 8.35938C17.8848 8.45052 17.9147 8.52344 17.9746 8.57812C18.0358 8.63151 18.1172 8.6582 18.2188 8.6582ZM20.748 7.32031C20.6855 7.3099 20.6211 7.30469 20.5547 7.30469C20.3372 7.30469 20.1908 7.38802 20.1152 7.55469V9H19.6406V6.88672H20.0938L20.1055 7.12305C20.2201 6.93945 20.3789 6.84766 20.582 6.84766C20.6497 6.84766 20.7057 6.85677 20.75 6.875L20.748 7.32031ZM20.9199 7.92773C20.9199 7.60221 20.9954 7.34115 21.1465 7.14453C21.2975 6.94661 21.5 6.84766 21.7539 6.84766C21.9779 6.84766 22.1589 6.92578 22.2969 7.08203V6H22.7715V9H22.3418L22.3184 8.78125C22.1764 8.95312 21.987 9.03906 21.75 9.03906C21.5026 9.03906 21.3021 8.93945 21.1484 8.74023C20.9961 8.54102 20.9199 8.27018 20.9199 7.92773ZM21.3945 7.96875C21.3945 8.18359 21.4355 8.35156 21.5176 8.47266C21.6009 8.59245 21.7188 8.65234 21.8711 8.65234C22.0651 8.65234 22.207 8.56576 22.2969 8.39258V7.49023C22.2096 7.32096 22.069 7.23633 21.875 7.23633C21.7214 7.23633 21.6029 7.29753 21.5195 7.41992C21.4362 7.54102 21.3945 7.72396 21.3945 7.96875Z" fill="white" fill-opacity="0.5"/>
</svg>
