<svg width="23" height="22" viewBox="0 0 23 22" fill="none" xmlns="http://www.w3.org/2000/svg">
<path d="M16.4316 19.9951C16.4316 20.868 15.7128 21.5869 14.8227 21.5869H1.59211C0.719196 21.5869 0.000324249 20.868 0.000324249 19.9951C0.000324249 19.1051 0.719196 18.3862 1.59211 18.3862H14.8227C15.7128 18.3862 16.4316 19.1051 16.4316 19.9951Z" fill="#041215"/>
<path d="M22.7461 11.0105C22.7461 11.8834 22.0272 12.6023 21.1372 12.6023L1.59078 12.6023C0.717861 12.6023 -0.00100899 11.8834 -0.00100899 11.0105C-0.00100899 10.1205 0.717861 9.40161 1.59078 9.40161L21.1372 9.40161C22.0272 9.40161 22.7461 10.1205 22.7461 11.0105Z" fill="#041215"/>
<path d="M9.44824 2.14427C9.44824 3.0343 8.72937 3.75317 7.83934 3.75317L1.59202 3.75317C0.719106 3.75317 0.000235558 3.0343 0.000235558 2.16139C0.000235558 1.27136 0.719106 0.55249 1.59202 0.55249L7.83934 0.55249C8.72937 0.55249 9.44824 1.27136 9.44824 2.14427Z" fill="#041215"/>
</svg>
