<svg width="24" height="27" viewBox="0 0 24 27" fill="none" xmlns="http://www.w3.org/2000/svg">
<path fill-rule="evenodd" clip-rule="evenodd" d="M18.7071 11.7963C18.7071 13.0523 19.039 13.7925 19.7695 14.6456C20.3231 15.2741 20.5 16.0808 20.5 16.956C20.5 17.8302 20.2128 18.6601 19.6373 19.3339C18.884 20.1417 17.8215 20.6573 16.7372 20.747C15.1659 20.8809 13.5937 20.9937 12.0005 20.9937C10.4063 20.9937 8.83505 20.9263 7.26375 20.747C6.17846 20.6573 5.11602 20.1417 4.36367 19.3339C3.78822 18.6601 3.5 17.8302 3.5 16.956C3.5 16.0808 3.6779 15.2741 4.23049 14.6456C4.98384 13.7925 5.29392 13.0523 5.29392 11.7963V11.3703C5.29392 9.68834 5.71333 8.58852 6.577 7.51186C7.86106 5.9417 9.91935 5 11.9558 5H12.0452C14.1254 5 16.2502 5.98702 17.5125 7.62466C18.3314 8.67916 18.7071 9.73265 18.7071 11.3703V11.7963ZM9.07367 23.0608C9.07367 22.5573 9.53582 22.3266 9.96318 22.2279C10.4631 22.1222 13.5093 22.1222 14.0092 22.2279C14.4366 22.3266 14.8987 22.5573 14.8987 23.0608C14.8738 23.5402 14.5926 23.9653 14.204 24.2352C13.7001 24.628 13.1088 24.8767 12.4906 24.9664C12.1487 25.0107 11.8128 25.0117 11.4828 24.9664C10.8636 24.8767 10.2723 24.628 9.76938 24.2342C9.37978 23.9653 9.09852 23.5402 9.07367 23.0608Z" fill="#CACACA"/>
<ellipse cx="16" cy="7.03704" rx="7" ry="7.03704" fill="#F67952"/>
</svg>
