<svg width="35" height="36" viewBox="0 0 35 36" fill="none" xmlns="http://www.w3.org/2000/svg">
<path d="M33.392 17.5019L34.9276 13.4967C35.096 13.0548 34.9648 12.5539 34.5951 12.2542L31.2658 9.55494L30.5921 5.31788C30.5177 4.84977 30.1502 4.48447 29.6821 4.4101L25.4451 3.73637L22.7479 0.404911C22.4505 0.0352348 21.9386 -0.0960111 21.5077 0.0724212L17.5003 1.61019L13.4951 0.0746086C13.051 -0.0960111 12.5545 0.0396097 12.2548 0.407098L9.55552 3.73856L5.31846 4.41229C4.85254 4.48666 4.48505 4.85415 4.41067 5.32007L3.73694 9.55713L0.40548 12.2564C0.0379912 12.5539 -0.0954424 13.0548 0.0729901 13.4967L1.60857 17.5019L0.0729901 21.5071C-0.0976298 21.9489 0.0379912 22.4499 0.40548 22.7473L3.73694 25.4444L4.41067 29.6815C4.48505 30.1496 4.85035 30.5171 5.31846 30.5915L9.55552 31.2652L12.2548 34.5945C12.5545 34.9663 13.0554 35.0976 13.4973 34.927L17.5003 33.3936L21.5055 34.9292C21.6324 34.9773 21.7636 35.0013 21.897 35.0013C22.2186 35.0013 22.5358 34.8592 22.7479 34.5945L25.4451 31.2652L29.6821 30.5915C30.1502 30.5171 30.5177 30.1496 30.5921 29.6815L31.2658 25.4444L34.5951 22.7473C34.9648 22.4477 35.096 21.9489 34.9276 21.5071L33.392 17.5019Z" fill="#F44336"/>
<path d="M14.2194 15.3133C12.4104 15.3133 10.9382 13.8411 10.9382 12.0321C10.9382 10.2231 12.4104 8.75098 14.2194 8.75098C16.0284 8.75098 17.5005 10.2231 17.5005 12.0321C17.5005 13.8411 16.0284 15.3133 14.2194 15.3133ZM14.2194 10.9384C13.6156 10.9384 13.1257 11.4284 13.1257 12.0321C13.1257 12.6359 13.6156 13.1258 14.2194 13.1258C14.8231 13.1258 15.3131 12.6359 15.3131 12.0321C15.3131 11.4284 14.8231 10.9384 14.2194 10.9384Z" fill="#FAFAFA"/>
<path d="M20.7816 26.2508C18.9726 26.2508 17.5005 24.7786 17.5005 22.9696C17.5005 21.1606 18.9726 19.6885 20.7816 19.6885C22.5906 19.6885 24.0628 21.1606 24.0628 22.9696C24.0628 24.7786 22.5906 26.2508 20.7816 26.2508ZM20.7816 21.8759C20.1801 21.8759 19.6879 22.3681 19.6879 22.9696C19.6879 23.5712 20.1801 24.0633 20.7816 24.0633C21.3832 24.0633 21.8754 23.5712 21.8754 22.9696C21.8754 22.3681 21.3832 21.8759 20.7816 21.8759Z" fill="#FAFAFA"/>
<path d="M12.0319 26.2512C11.811 26.2512 11.5901 26.1855 11.3976 26.0477C10.9054 25.6955 10.7917 25.0131 11.1439 24.5209L22.081 9.20887C22.4332 8.7167 23.1156 8.60296 23.6078 8.95513C24.1 9.30512 24.2115 9.98979 23.8616 10.4798L12.9244 25.7918C12.7079 26.0915 12.3732 26.2512 12.0319 26.2512Z" fill="#FAFAFA"/>
</svg>
