<svg width="18" height="20" viewBox="0 0 18 20" fill="none" xmlns="http://www.w3.org/2000/svg">
<path d="M15.1542 4.59912C15.0322 4.52733 14.8822 4.52233 14.7558 4.5858C14.6296 4.64944 14.5443 4.77276 14.5292 4.9133C14.5142 5.04998 14.4908 5.18662 14.4617 5.32998C13.6458 9.03247 12.0075 10.8333 9.45167 10.8333H5.70168C5.50395 10.8336 5.33371 10.9729 5.29418 11.1666L4.04419 17.0258L3.82087 18.5175C3.69247 19.1958 4.13825 19.8498 4.81653 19.9782C4.89133 19.9923 4.96723 19.9996 5.04336 20H7.55168C8.1266 20.0017 8.62785 19.6093 8.76417 19.0508L9.77749 15H11.9517C14.5175 15 16.2908 12.9541 16.945 9.23915C17.3768 7.47017 16.6624 5.61932 15.1542 4.59912Z" fill="#03A9F4"/>
<path d="M14.3682 1.48503C13.5448 0.551084 12.3632 0.0111631 11.1182 3.03448e-05H4.21819C3.18557 -0.00551652 2.30644 0.749989 2.15655 1.77167L0.0140581 16.0641C-0.0885588 16.7468 0.381635 17.3834 1.06433 17.4861C1.12628 17.4954 1.1889 17.5 1.25156 17.5H4.45155C4.64928 17.4996 4.81952 17.3604 4.85905 17.1667L6.03822 11.6667H9.4549C12.4199 11.6667 14.3791 9.59419 15.2791 5.50002C15.3152 5.33681 15.343 5.17189 15.3624 5.00584C15.5713 3.74276 15.2069 2.45225 14.3682 1.48503Z" fill="#283593"/>
</svg>
