<svg width="48" height="48" viewBox="0 0 48 48" fill="none" xmlns="http://www.w3.org/2000/svg">
<path d="M41.9784 21.0019C41.9784 28.5469 37.9969 35.1619 32.0212 38.8603C28.8159 40.845 25.0359 41.9906 20.9897 41.9906C9.3975 41.9906 0 32.5931 0 21.0019C0 9.40971 9.3975 0.012207 20.9897 0.012207C31.2319 0.012207 39.7612 7.34908 41.6072 17.055C41.8509 18.3338 41.9784 19.6528 41.9784 21.0019Z" fill="#0065FF"/>
<path d="M38.98 21.0016C38.98 26.7794 36.2557 31.9216 32.021 35.2132C31.5663 35.5666 31.0938 35.8985 30.6054 36.2079C30.4047 36.3354 29.9482 36.0204 29.7419 36.1404C29.53 36.2632 29.5694 36.8201 29.3529 36.9335C27.2566 38.036 24.9185 38.7372 22.4369 38.9341H22.436C22.196 38.9529 21.955 38.9679 21.7132 38.9772C21.6429 38.9801 21.5707 38.9201 21.4985 38.8347C21.3241 38.6294 21.1469 38.2732 20.9763 38.2732C20.8422 38.2732 20.711 38.4935 20.5807 38.6885C20.4766 38.8432 20.3725 38.981 20.2657 38.9772C17.515 38.8685 14.9238 38.1429 12.625 36.9335C12.416 36.8238 12.5079 36.2585 12.3044 36.1404C12.0897 36.0166 11.5807 36.3401 11.3716 36.2079C9.11973 34.781 7.20723 32.8685 5.78129 30.6166C5.64536 30.4029 6.05692 29.9388 5.92942 29.7185C5.81504 29.5207 5.16161 29.5666 5.05473 29.3641C3.84629 27.0654 3.12067 24.4741 3.01286 21.7235C3.00254 21.4844 3.49192 21.2651 3.49192 21.0232C3.49192 20.7804 3.00254 20.516 3.01286 20.276C3.12161 17.5254 3.84723 14.9341 5.05661 12.6372C5.17567 12.4113 5.82536 12.5707 5.95286 12.3513C6.06817 12.1535 5.65942 11.5769 5.78223 11.3838C7.20817 9.13287 9.12161 7.21944 11.3725 5.7935C11.5872 5.65756 12.0841 6.00912 12.3044 5.88256C12.5032 5.76819 12.4235 5.17475 12.6269 5.06787C14.9247 3.85944 17.516 3.13381 20.2657 3.02506C20.396 3.01944 20.53 3.16475 20.6641 3.29881C20.7766 3.41131 20.8891 3.51537 20.9997 3.51537C21.1507 3.51537 21.2988 3.3185 21.4469 3.17506C21.535 3.08881 21.6232 3.02131 21.7132 3.02506C21.955 3.03444 22.196 3.04944 22.436 3.06819H22.4369C24.9175 3.26506 27.2566 3.96631 29.3519 5.06694C29.5694 5.18225 29.5057 5.75975 29.7185 5.88256C29.9238 6.00162 30.4047 5.66694 30.6044 5.7935C32.8563 7.21944 34.7688 9.13194 36.1957 11.3838C36.3307 11.5966 36.0372 12.0616 36.1638 12.281C36.2791 12.4807 36.8144 12.4329 36.9213 12.6372C37.645 14.0144 38.1963 15.4957 38.545 17.0547C38.8291 18.3251 38.98 19.646 38.98 21.0016Z" fill="#FFF3DE"/>
<path d="M41.9787 21.002C41.9787 28.547 37.9971 35.162 32.0215 38.8605V35.2136C36.2562 31.922 38.9805 26.7799 38.9805 21.002C38.9805 19.6464 38.8296 18.3255 38.5455 17.0552H41.6074C41.8512 18.3339 41.9787 19.653 41.9787 21.002Z" fill="#003CBF"/>
<path d="M38.9805 21.0021C38.9805 26.7799 36.2562 31.922 32.0215 35.2136V29.1461L35.6205 26.0645H36.544V24.9433C35.7021 24.9002 35.0309 24.2045 35.0309 23.3533V18.6489C35.0309 17.7705 35.7462 17.0552 36.6246 17.0552H38.5455C38.8296 18.3255 38.9805 19.6464 38.9805 21.0021Z" fill="#FFE5C2"/>
<path d="M21.9548 41.9682C21.6353 41.9827 21.3129 41.9905 20.9895 41.9905C9.39722 41.9904 0 32.5931 0 21.0018C0 9.40943 9.39722 0.012207 20.9896 0.012207C21.3129 0.012207 21.6353 0.0198945 21.9549 0.0344258C10.8104 0.538332 1.93059 9.73286 1.93059 21.0018C1.93059 32.2698 10.8104 41.4642 21.9548 41.9682Z" fill="#0065FF"/>
<path d="M5.89379 21.0016C5.89379 29.8085 12.2229 37.1379 20.5807 38.6885C20.4766 38.8432 20.3725 38.981 20.2657 38.9773C17.515 38.8685 14.9238 38.1429 12.625 36.9335C12.416 36.8238 12.5079 36.2585 12.3044 36.1404C12.0897 36.0166 11.5807 36.3401 11.3716 36.2079C9.11973 34.781 7.20723 32.8685 5.78129 30.6166C5.64536 30.4029 6.05692 29.9388 5.92942 29.7185C5.81504 29.5207 5.16161 29.5666 5.05473 29.3641C3.84629 27.0654 3.12067 24.4741 3.01286 21.7235C3.00254 21.4844 3.49192 21.2651 3.49192 21.0232C3.49192 20.7804 3.00254 20.516 3.01286 20.276C3.12161 17.5254 3.84723 14.9341 5.05661 12.6372C5.17567 12.4113 5.82536 12.5707 5.95286 12.3513C6.06817 12.1535 5.65942 11.5769 5.78223 11.3838C7.20817 9.13287 9.12161 7.21944 11.3725 5.7935C11.5872 5.65756 12.0841 6.00912 12.3044 5.88256C12.5032 5.76819 12.4235 5.17475 12.6269 5.06787C14.9247 3.85944 17.516 3.13381 20.2657 3.02506C20.396 3.01944 20.53 3.16475 20.6641 3.29881C12.265 4.81569 5.89379 12.1657 5.89379 21.0016Z" fill="#FFE5C2"/>
<path d="M21.499 38.835C21.8093 38.8762 22.1215 38.909 22.4365 38.9343C22.1965 38.9531 21.9556 38.9681 21.7137 38.9775C21.6434 38.9803 21.5712 38.9203 21.499 38.835Z" fill="#DFF6FD"/>
<path d="M22.4363 3.06866C22.1035 3.09491 21.7745 3.13054 21.4473 3.17554C21.5354 3.08929 21.6235 3.02179 21.7135 3.02554C21.9554 3.03491 22.1963 3.04991 22.4363 3.06866Z" fill="#DFF6FD"/>
<path d="M20.9893 22.5026C20.1603 22.5026 19.4883 21.8306 19.4883 21.0015V12.0064C19.4883 11.1774 20.1603 10.5054 20.9893 10.5054C21.8183 10.5054 22.4903 11.1774 22.4903 12.0064V21.0015C22.4903 21.8306 21.8183 22.5026 20.9893 22.5026Z" fill="#00E1F0"/>
<path d="M20.9896 22.5123H10.4951C9.66078 22.5123 8.98438 21.8359 8.98438 21.0015C8.98438 20.1671 9.66078 19.4907 10.4951 19.4907H20.9896C21.824 19.4907 22.5004 20.1671 22.5004 21.0015C22.5004 21.8359 21.824 22.5123 20.9896 22.5123Z" fill="#00E1F0"/>
<path d="M20.9886 23.9997C22.6446 23.9997 23.987 22.6573 23.987 21.0013C23.987 19.3454 22.6446 18.0029 20.9886 18.0029C19.3327 18.0029 17.9902 19.3454 17.9902 21.0013C17.9902 22.6573 19.3327 23.9997 20.9886 23.9997Z" fill="#0065FF"/>
<path d="M21.9548 23.8415C21.6517 23.9438 21.3273 23.9999 20.9894 23.9999C19.333 23.9999 17.9912 22.6571 17.9912 21.0016C17.9912 19.3452 19.333 18.0034 20.9894 18.0034C21.3273 18.0034 21.6516 18.0594 21.9548 18.1618C20.7723 18.5643 19.9218 19.683 19.9218 21.0016C19.9219 22.3193 20.7723 23.439 21.9548 23.8415Z" fill="#003CBF"/>
<path d="M37.4805 23.061H43.4774V27.9359H37.4805V23.061Z" fill="#C8EFFE"/>
<path d="M21.7135 3.02518V6.0099C21.7135 6.40956 21.3891 6.73384 20.9896 6.73384C20.5899 6.73384 20.2656 6.40946 20.2656 6.0099V3.02518C20.506 3.01552 20.7473 3.01074 20.9896 3.01074C21.2318 3.01065 21.4731 3.01552 21.7135 3.02518Z" fill="#02CFE0"/>
<path d="M21.7135 35.991V38.9777C21.4731 38.9874 21.2318 38.9922 20.9896 38.9922C20.7473 38.9922 20.5059 38.9874 20.2656 38.9777V35.991C20.2656 35.5914 20.59 35.2671 20.9896 35.2671C21.3892 35.2671 21.7135 35.5914 21.7135 35.991Z" fill="#02CFE0"/>
<path d="M13.8558 8.64522C13.7419 8.71085 13.6174 8.74179 13.4948 8.74179C13.2438 8.74179 13.0005 8.61241 12.8664 8.37982L11.373 5.79382C11.7804 5.5361 12.1984 5.29375 12.627 5.06885L14.1203 7.65588C14.3211 8.00238 14.2023 8.44544 13.8558 8.64522Z" fill="#02CFE0"/>
<path d="M30.6059 36.2084C30.1995 36.467 29.7816 36.7094 29.353 36.9343L27.8577 34.3443C27.658 33.9988 27.7766 33.5557 28.1232 33.3558C28.4688 33.156 28.9119 33.2747 29.1117 33.6203L30.6059 36.2084Z" fill="#02CFE0"/>
<path d="M8.36856 29.1232L5.78059 30.6175C5.52288 30.2111 5.28053 29.7931 5.05469 29.3645L7.64463 27.8692C7.99019 27.6694 8.43325 27.7872 8.63313 28.1337C8.83291 28.4803 8.71422 28.9233 8.36856 29.1232Z" fill="#02CFE0"/>
<path d="M36.9215 12.6378L34.3335 14.1321C34.2196 14.1977 34.0951 14.2296 33.9725 14.2296C33.7215 14.2296 33.4782 14.0993 33.3441 13.8666C33.1443 13.521 33.263 13.078 33.6096 12.8781L36.1957 11.3848C36.4533 11.7913 36.6955 12.2092 36.9215 12.6378Z" fill="#02CFE0"/>
<path d="M14.1203 34.345L12.625 36.9349C12.1964 36.7091 11.7785 36.4667 11.3721 36.209L12.8663 33.621C13.0672 33.2745 13.5093 33.1567 13.8558 33.3566C14.2023 33.5563 14.3211 33.9994 14.1203 34.345Z" fill="#02CFE0"/>
<path d="M30.6051 5.79387L29.1117 8.37987C28.9776 8.61256 28.7343 8.74184 28.4842 8.74184C28.3616 8.74184 28.2371 8.711 28.1232 8.64528C27.7767 8.4455 27.6579 8.00244 27.8577 7.65584L29.352 5.06787C29.7807 5.2939 30.1987 5.53615 30.6051 5.79387Z" fill="#02CFE0"/>
<path d="M8.63311 13.8665C8.49896 14.0991 8.25567 14.2295 8.00564 14.2295C7.88302 14.2295 7.75852 14.1976 7.64461 14.132L5.05664 12.6377C5.28155 12.2091 5.52389 11.7912 5.78161 11.3848L8.36864 12.8781C8.71421 13.0778 8.83289 13.5209 8.63311 13.8665Z" fill="#02CFE0"/>
<path d="M6.72208 20.9999C6.72208 21.4005 6.3977 21.7238 5.99814 21.7238H3.01248C3.00283 21.4844 2.99805 21.2441 2.99805 21.0018C2.99805 20.7585 3.00283 20.5163 3.01248 20.2759H5.99814C6.3978 20.276 6.72208 20.6003 6.72208 20.9999Z" fill="#02CFE0"/>
<path d="M48.0002 29.5771V45.0918C48.0002 46.6912 46.7037 47.9877 45.1043 47.9877H35.8549C34.2555 47.9877 32.959 46.6912 32.959 45.0918V29.5771L35.9674 27.0018L38.8605 27.0009L44.9918 26.998L48.0002 29.5771Z" fill="#F2FBFF"/>
<path d="M38.8634 27.0019L35.8549 29.5772V47.9879C34.2555 47.9879 32.959 46.6913 32.959 45.0919V29.5772L35.9674 27.0019L38.8605 27.001L38.8634 27.0019Z" fill="#DFF6FD"/>
<path d="M44.3203 44.9892H36.624C36.2616 44.9892 35.9678 44.6954 35.9678 44.3329V41.9908L36.5303 40.9688V33.9064L35.9678 32.9955V30.6533C35.9678 30.2909 36.2616 29.9971 36.624 29.9971H44.3204C44.6829 29.9971 44.9767 30.2909 44.9767 30.6533V33.0627L44.5079 33.8752V41.2189L44.9767 41.9909V44.333C44.9766 44.6954 44.6828 44.9892 44.3203 44.9892Z" fill="#C8EFFE"/>
<path d="M35.9678 32.9951H44.9631V41.9904H35.9678V32.9951Z" fill="#0065FF"/>
<path d="M40.479 40.6537C39.615 40.6537 38.903 39.9911 38.8246 39.1474C37.981 39.069 37.3184 38.3569 37.3184 37.4931C37.3184 36.6293 37.981 35.9172 38.8246 35.8388C38.9031 34.9951 39.6151 34.3325 40.479 34.3325C41.3428 34.3325 42.0549 34.9951 42.1333 35.8388C42.9769 35.9173 43.6395 36.6293 43.6395 37.4931C43.6395 38.3569 42.9769 39.0691 42.1333 39.1474C42.0549 39.991 41.3429 40.6537 40.479 40.6537Z" fill="#0065FF"/>
<path d="M41.978 36.7692H41.2029V35.994C41.2029 35.5941 40.8788 35.27 40.479 35.27C40.0791 35.27 39.755 35.5941 39.755 35.994V36.7692H38.9798C38.58 36.7692 38.2559 37.0933 38.2559 37.4931C38.2559 37.893 38.58 38.217 38.9798 38.217H39.755V38.9923C39.755 39.3921 40.0791 39.7162 40.479 39.7162C40.8788 39.7162 41.2029 39.3921 41.2029 38.9923V38.217H41.978C42.3779 38.217 42.702 37.893 42.702 37.4931C42.702 37.0933 42.378 36.7692 41.978 36.7692Z" fill="#F2FBFF"/>
<path d="M44.977 18.6494V23.3536C44.977 23.7161 44.6831 24.0099 44.3207 24.0099H36.624C36.2616 24.0099 35.9678 23.7161 35.9678 23.3536V18.6494C35.9678 18.287 36.2616 17.9932 36.624 17.9932H44.3207C44.6831 17.9932 44.977 18.287 44.977 18.6494Z" fill="#00E1F0"/>
<path d="M44.977 22.0793V23.3536C44.977 23.716 44.6831 24.0099 44.3207 24.0099H36.624C36.2616 24.0099 35.9678 23.716 35.9678 23.3536V18.6494C35.9678 18.287 36.2616 17.9932 36.624 17.9932H38.8637V20.6313C38.8637 21.431 39.512 22.0793 40.3117 22.0793H44.977Z" fill="#00E1F0"/>
<path d="M39.7043 17.9927V23.9993C39.7043 24.003 39.7043 24.0058 39.7034 24.0096H38.2568C38.2559 24.0058 38.2559 24.003 38.2559 23.9993V17.9927H39.7043Z" fill="#F2FBFF"/>
<path d="M42.7023 17.9927V23.9993C42.7023 24.003 42.7023 24.0058 42.7014 24.0096H41.2548C41.2539 24.0058 41.2539 24.003 41.2539 23.9993V17.9927H42.7023Z" fill="#F2FBFF"/>
<path d="M38.2568 24.0096H39.7034C39.7043 24.0058 39.7043 24.003 39.7043 23.9993V21.9452C39.2084 21.7155 38.8643 21.213 38.8643 20.6308V17.9927H38.2559L38.2568 24.0096Z" fill="#DFF6FD"/>
<path d="M42.7023 22.0791V23.9991C42.7023 24.0028 42.7023 24.0057 42.7014 24.0094H41.2548C41.2539 24.0057 41.2539 24.0028 41.2539 23.9991V22.0791H42.7023Z" fill="#DFF6FD"/>
</svg>
