<svg width="36" height="48" viewBox="0 0 36 48" fill="none" xmlns="http://www.w3.org/2000/svg">
<path d="M3.46065 45.0236L0.507339 0.700332C0.48212 0.321582 0.782495 0.000488281 1.16218 0.000488281H29.7586C30.1383 0.000488281 30.4388 0.321863 30.4133 0.700801L27.4293 45.0236L25.8583 46.1486H4.7589L3.46065 45.0236Z" fill="#F2FBFF"/>
<path d="M6.35888 45.0234H3.46144L0.508315 0.699844C0.483096 0.321094 0.783565 0 1.16316 0H3.35916L6.35888 45.0234Z" fill="#DFF6FD"/>
<path d="M26.0795 7.16271C18.4719 9.30058 12.0867 4.27502 4.43269 6.78583C4.14947 6.87874 3.96703 7.15446 3.98681 7.45183L6.24741 41.3785C6.27038 41.7239 6.55772 41.992 6.90394 41.9912L24.6321 41.945L26.9125 7.83752C26.9426 7.38508 26.5159 7.03999 26.0795 7.16271Z" fill="#FFF5C6"/>
<path d="M10.5836 6.12489C9.36769 6.23017 8.12766 6.48414 6.85079 6.95261L9.18516 41.9849L6.90432 41.991C6.5581 41.992 6.27075 41.7238 6.24779 41.3785L3.98682 7.45249C3.96694 7.15417 4.15088 6.87836 4.43494 6.78527C6.56504 6.08683 8.5965 5.97217 10.5836 6.12489Z" fill="#FEE97D"/>
<path d="M33.9953 17.0342V27.0111L33.5266 27.3045V28.8748L33.9953 29.2789L33.5266 29.6951V30.2811L33.9953 30.7198L33.5266 31.1014V31.9217L33.9953 32.2798L33.6203 32.6717V33.4217L33.9953 33.7207L33.5266 34.2186V35.4373L33.9953 35.9886V46.0676H22.9609V17.0342H33.9953Z" fill="#FEE97D"/>
<path d="M17.7363 24.0234C18.5712 24.0234 19.248 23.3466 19.248 22.5117C19.248 21.6768 18.5712 21 17.7363 21C16.9014 21 16.2246 21.6768 16.2246 22.5117C16.2246 23.3466 16.9014 24.0234 17.7363 24.0234Z" fill="#FEE97D"/>
<path d="M9.46094 22.5117C10.2958 22.5117 10.9727 21.8349 10.9727 21C10.9727 20.1651 10.2958 19.4883 9.46094 19.4883C8.62604 19.4883 7.94922 20.1651 7.94922 21C7.94922 21.8349 8.62604 22.5117 9.46094 22.5117Z" fill="#FEE97D"/>
<path d="M12.4609 13.5352C13.2958 13.5352 13.9727 12.8583 13.9727 12.0234C13.9727 11.1885 13.2958 10.5117 12.4609 10.5117C11.626 10.5117 10.9492 11.1885 10.9492 12.0234C10.9492 12.8583 11.626 13.5352 12.4609 13.5352Z" fill="#FEE97D"/>
<path d="M27.4296 45.0234H3.46094V47.9999H27.4641L27.4296 45.0234Z" fill="#C8EFFE"/>
<path d="M18.6347 34.6739C17.0556 36.2519 14.5948 36.4084 12.8409 35.1442C12.6468 35.0051 12.4624 34.8477 12.2875 34.6739C12.1127 34.499 11.9562 34.3146 11.8162 34.1205C10.552 32.3666 10.7085 29.9048 12.2875 28.3266C13.8665 26.7475 16.3274 26.5911 18.0813 27.8553C18.2754 27.9954 18.4598 28.1519 18.6347 28.3266C18.8085 28.5004 18.966 28.6859 19.106 28.8791C20.3703 30.6329 20.2137 33.0947 18.6347 34.6739Z" fill="#FEE97D"/>
<path d="M19.1052 28.8792L12.8401 35.1443C12.646 35.0052 12.4616 34.8478 12.2867 34.674C12.1119 34.4992 11.9554 34.3147 11.8154 34.1206L18.0806 27.8555C18.2747 27.9955 18.4591 28.152 18.634 28.3268C18.8078 28.5007 18.9653 28.686 19.1052 28.8792Z" fill="#FED402"/>
<path d="M15.4626 18.7479C15.0626 18.7479 14.7383 18.4237 14.7383 18.0236C14.7383 17.6236 15.0626 17.2993 15.4626 17.2993C15.8626 17.2993 16.1869 17.6236 16.1869 18.0236C16.1869 18.4237 15.8626 18.7479 15.4626 18.7479Z" fill="#FEE97D"/>
<path d="M18.4606 12.7479C18.0606 12.7479 17.7363 12.4237 17.7363 12.0236C17.7363 11.6236 18.0606 11.2993 18.4606 11.2993C18.8607 11.2993 19.185 11.6236 19.185 12.0236C19.185 12.4237 18.8607 12.7479 18.4606 12.7479Z" fill="#FEE97D"/>
<path d="M9.46064 39.724C9.06061 39.724 8.73633 39.3997 8.73633 38.9997C8.73633 38.5997 9.06061 38.2754 9.46064 38.2754C9.86067 38.2754 10.185 38.5997 10.185 38.9997C10.185 39.3997 9.86067 39.724 9.46064 39.724Z" fill="#FEE97D"/>
<path d="M22.9609 17.0347H25.8583V47.0342H22.9609V17.0347Z" fill="#FED402"/>
<path d="M22.9609 45.0234H33.995V47.9999H22.9609V45.0234Z" fill="#00E1F0"/>
<path d="M33.5257 27.3047V28.875L33.9944 29.279L33.5257 29.6953V30.2812L33.9944 30.72L33.5257 31.1015V31.9219L33.9944 32.28L33.6194 32.6719V33.4219L33.9944 33.7209L33.5257 34.2187V35.4375L33.9944 35.9887V36.9262H28.9619C28.0825 36.9262 27.3682 36.2109 27.3682 35.3325V27.6675C27.3682 26.789 28.0825 26.0737 28.9619 26.0737H33.9944V27.0112L33.5257 27.3047Z" fill="#FED402"/>
<path d="M33.9942 27.0112V35.9883H28.9619C28.5995 35.9883 28.3057 35.6944 28.3057 35.332V27.6675C28.3057 27.305 28.5995 27.0112 28.9619 27.0112H33.9942Z" fill="#F2FBFF"/>
<path d="M33.995 15.9658H22.9609V12.6562C22.9609 12.2938 23.2547 12 23.6172 12H33.3388C33.7012 12 33.995 12.2938 33.995 12.6562V15.9658Z" fill="#7FF0F7"/>
<path d="M22.9609 45.0234H25.8583V48H22.9609V45.0234Z" fill="#00E1F0"/>
<path d="M25.8583 12V15.9655H22.9609V12.6562C22.9609 12.2938 23.2547 12 23.6172 12H25.8583Z" fill="#00E1F0"/>
<path d="M33.9944 29.2792V30.7202C33.9712 30.7231 33.9481 30.724 33.9239 30.724H31.1501C30.7503 30.724 30.4258 30.4005 30.4258 29.9997C30.4258 29.5999 30.7503 29.2754 31.1501 29.2754H33.9239C33.9481 29.2754 33.9712 29.2763 33.9944 29.2792Z" fill="#0065FF"/>
<path d="M33.9944 32.2797V33.7207C33.9712 33.7236 33.9481 33.7245 33.9239 33.7245H31.1501C30.7503 33.7245 30.4258 33.4 30.4258 33.0002C30.4258 32.5994 30.7503 32.2759 31.1501 32.2759H33.9239C33.9481 32.2759 33.9712 32.2768 33.9944 32.2797Z" fill="#0065FF"/>
<path d="M34.8388 18H22.1172C21.7547 18 21.4609 17.7062 21.4609 17.3438V15.6562C21.4609 15.2938 21.7547 15 22.1172 15H34.8388C35.2012 15 35.495 15.2938 35.495 15.6562V17.3438C35.495 17.7062 35.2012 18 34.8388 18Z" fill="#0065FF"/>
<path d="M24.3573 14.9995V18.0003H22.1162C21.7538 18.0003 21.46 17.7065 21.46 17.344V15.6558C21.46 15.2933 21.7538 14.9995 22.1162 14.9995H24.3573Z" fill="#0065FF"/>
</svg>
