<svg width="30" height="48" viewBox="0 0 30 48" fill="none" xmlns="http://www.w3.org/2000/svg">
<path d="M6 8.0625H24V12.9375H6V8.0625Z" fill="#C8EFFE"/>
<path d="M6 8.06201H10.829V12.9378H6V8.06201Z" fill="#99E6FC"/>
<path d="M6 12.0059L1.16044 15.6308C0.429937 16.178 0 17.0372 0 17.9498V45.1026C0 46.7028 1.29722 48 2.89744 48H27.1027C28.7028 48 30 46.7028 30 45.1026V17.9487C30 17.0367 29.5706 16.178 28.8411 15.6307L24 12L6 12.0059Z" fill="#F2FBFF"/>
<path d="M4.82897 45.1024C4.82897 46.7028 6.126 47.9999 7.72641 47.9999H2.89744C1.29712 47.9999 0 46.7028 0 45.1024V17.9499C0 17.0373 0.42975 16.1786 1.15997 15.631L5.99963 12.0063H10.8286L5.98894 15.631C5.25881 16.1786 4.82897 17.0373 4.82897 17.9499V45.1024Z" fill="#DFF6FD"/>
<path d="M26.0589 40.8752L26.9964 42.0002V44.3402C26.9964 44.703 26.703 44.9964 26.3402 44.9964H3.66016C3.29734 44.9964 3.00391 44.703 3.00391 44.3402V42.0002L3.94141 40.6877V18.9845L3.00391 18.003L5.42735 16.188L7.00047 15.0095L22.9989 15.0039L26.9964 18.002L26.0589 18.8908V40.8752Z" fill="#00E1F0"/>
<path d="M5.42734 16.188C5.04391 16.6886 4.82922 17.3055 4.82922 17.9496V44.9964H3.66016C3.29734 44.9964 3.00391 44.703 3.00391 44.3402V42.0002L3.94141 40.6877V18.9846L3.00391 18.003L5.42734 16.188Z" fill="#7FF0F7"/>
<path d="M27 1.40625V7.59375C27 8.37 26.37 9 25.5938 9H4.40625C3.63 9 3 8.37 3 7.59375V1.40625C3 0.63 3.63 0 4.40625 0H25.5938C26.37 0 27 0.63 27 1.40625Z" fill="#7FF0F7"/>
<path d="M27 7.06781V7.59375C27 8.37 26.37 9 25.5938 9H4.40625C3.63 9 3 8.37 3 7.59375V1.40625C3 0.63 3.63 0 4.40625 0H7.82906V5.61937C7.82906 6.42 8.47781 7.06781 9.2775 7.06781H27Z" fill="#00E1F0"/>
<path d="M3.00366 18.0032L26.9964 18.002L27.0033 41.9998H3L3.00366 18.0032Z" fill="#0065FF"/>
<path d="M4.82925 18.0029V42.0002H3L3.00384 18.0029H4.82925Z" fill="#0065FF"/>
<path d="M8.9997 6.7246C8.59958 6.7246 8.27539 6.40032 8.27539 6.00029V3.00019C8.27539 2.60007 8.59967 2.27588 8.9997 2.27588C9.39974 2.27588 9.72402 2.60016 9.72402 3.00019V6.00019C9.72402 6.40032 9.39974 6.7246 8.9997 6.7246Z" fill="#00E1F0"/>
<path d="M5.9997 6.7246C5.59958 6.7246 5.27539 6.40032 5.27539 6.00029V3.00019C5.27539 2.60007 5.59967 2.27588 5.9997 2.27588C6.39973 2.27588 6.72402 2.60016 6.72402 3.00019V6.00019C6.72411 6.40032 6.39983 6.7246 5.9997 6.7246Z" fill="#02CFE0"/>
<path d="M11.9997 6.7246C11.5996 6.7246 11.2754 6.40032 11.2754 6.00029V3.00019C11.2754 2.60007 11.5997 2.27588 11.9997 2.27588C12.3997 2.27588 12.724 2.60016 12.724 3.00019V6.00019C12.724 6.40032 12.3997 6.7246 11.9997 6.7246Z" fill="#00E1F0"/>
<path d="M14.9997 6.7246C14.5996 6.7246 14.2754 6.40032 14.2754 6.00029V3.00019C14.2754 2.60007 14.5997 2.27588 14.9997 2.27588C15.3997 2.27588 15.724 2.60016 15.724 3.00019V6.00019C15.724 6.40032 15.3998 6.7246 14.9997 6.7246Z" fill="#00E1F0"/>
<path d="M17.9997 6.7246C17.5996 6.7246 17.2754 6.40032 17.2754 6.00029V3.00019C17.2754 2.60007 17.5997 2.27588 17.9997 2.27588C18.3997 2.27588 18.724 2.60016 18.724 3.00019V6.00019C18.7241 6.40032 18.3998 6.7246 17.9997 6.7246Z" fill="#00E1F0"/>
<path d="M20.9997 6.7246C20.5996 6.7246 20.2754 6.40032 20.2754 6.00029V3.00019C20.2754 2.60007 20.5997 2.27588 20.9997 2.27588C21.3997 2.27588 21.724 2.60016 21.724 3.00019V6.00019C21.724 6.40032 21.3997 6.7246 20.9997 6.7246Z" fill="#00E1F0"/>
<path d="M23.9997 6.7246C23.5996 6.7246 23.2754 6.40032 23.2754 6.00029V3.00019C23.2754 2.60007 23.5997 2.27588 23.9997 2.27588C24.3997 2.27588 24.724 2.60016 24.724 3.00019V6.00019C24.724 6.40032 24.3997 6.7246 23.9997 6.7246Z" fill="#00E1F0"/>
<path d="M15.7028 21.9607L16.5383 21.4978C17.0862 21.1942 17.6996 21.0353 18.3229 21.0353C20.3922 21.0353 22.0698 22.751 22.0698 24.8674V29.6816C22.0698 30.5121 21.6043 31.269 20.8725 31.6287C20.2236 31.9476 19.7782 32.5827 19.6908 33.3136L19.1361 37.9538C19.0747 38.5648 18.5714 39.0292 17.9709 39.0292C17.3795 39.0292 16.8808 38.5783 16.8084 37.9779L16.2458 32.8572C16.1741 32.2051 15.6349 31.7122 14.9934 31.7122C14.3579 31.7122 13.8219 32.1959 13.7428 32.8407L13.0954 38.1202C12.9935 38.6484 12.5406 39.0292 12.0142 39.0292C11.4299 39.0292 10.9473 38.563 10.9139 37.9665L10.3185 33.301C10.2261 32.5771 9.78245 31.9498 9.13895 31.6336L9.12892 31.6286C8.39711 31.2689 7.93164 30.512 7.93164 29.6815V24.8673C7.93164 22.7509 9.6092 21.0352 11.6785 21.0352H12.0077C12.041 21.0352 12.0743 21.0356 12.1075 21.0366C12.7082 21.053 13.2914 21.2467 13.7996 21.5746L14.3254 21.9139C14.7424 22.183 15.2691 22.2009 15.7028 21.9607Z" fill="#F2FBFF"/>
<path d="M12.8448 37.9667C12.8545 38.1405 12.9027 38.3028 12.98 38.4458C12.7907 38.7973 12.4246 39.0291 12.0142 39.0291C11.7225 39.0291 11.455 38.9123 11.257 38.721C11.059 38.5298 10.9305 38.2651 10.9131 37.9667L10.3181 33.3009C10.2254 32.5776 9.78208 31.9498 9.13886 31.634L9.12827 31.6291C8.39617 31.2688 7.93164 30.5117 7.93164 29.682V24.8675C7.93164 22.7504 9.6092 21.0352 11.678 21.0352H12.0073C12.0401 21.0352 12.074 21.0352 12.1068 21.0361C12.3347 21.0428 12.5607 21.0747 12.7799 21.1298C11.11 21.5151 9.86317 23.0421 9.86317 24.8675V29.682C9.86317 30.5116 10.3277 31.2688 11.0598 31.6291L11.0704 31.634C11.7136 31.9498 12.157 32.5776 12.2497 33.3009L12.8448 37.9667Z" fill="#DFF6FD"/>
<path d="M18.7404 37.9786C18.7646 38.1746 18.8331 38.3552 18.9375 38.5087C18.725 38.8246 18.3695 39.0293 17.9707 39.0293C17.6752 39.0293 17.4029 38.9163 17.1952 38.7289C16.9876 38.5415 16.8456 38.2788 16.8089 37.9786L16.2458 32.8578C16.2168 32.597 16.1145 32.3624 15.96 32.174C15.9996 32.1238 16.044 32.0775 16.0913 32.035C16.3144 31.8332 16.608 31.7124 16.9247 31.7124C17.567 31.7124 18.1059 32.205 18.1774 32.8578L18.7404 37.9786Z" fill="#DFF6FD"/>
</svg>
