<svg width="48" height="46" viewBox="0 0 48 46" fill="none" xmlns="http://www.w3.org/2000/svg">
<path d="M34.5014 9.50161H31.4979V4.89727C31.4979 4.12777 30.8718 3.5017 30.1023 3.5017H17.8972C17.1277 3.5017 16.5016 4.12777 16.5016 4.89727V9.50161H13.498V4.89727C13.498 2.47158 15.4715 0.498047 17.8973 0.498047H30.1023C32.528 0.498047 34.5015 2.47148 34.5015 4.89727V9.50161H34.5014Z" fill="#C8EFFE"/>
<path d="M17.9999 10.4673H12V7.15771C12 6.79528 12.2938 6.50146 12.6562 6.50146H17.3437C17.7061 6.50146 17.9999 6.79528 17.9999 7.15771V10.4673Z" fill="#0065FF"/>
<path d="M36 10.4673H30V7.15771C30 6.79528 30.2938 6.50146 30.6562 6.50146H35.3438C35.7062 6.50146 36 6.79528 36 7.15771V10.4673Z" fill="#0065FF"/>
<path d="M47.3434 45.5013H0.65625C0.293813 45.5013 0 45.2075 0 44.845V21.5015H47.9996V44.845C47.9996 45.2075 47.7058 45.5013 47.3434 45.5013Z" fill="#C8EFFE"/>
<path d="M48 21.5015V23.4331H7.72631C6.12609 23.4331 4.82897 24.7303 4.82897 26.3304V45.5015H0.65625C0.293813 45.5015 0 45.2077 0 44.8452V21.5015H48Z" fill="#99E6FC"/>
<path d="M44.3434 42.4897H3.65625C3.29381 42.4897 3 42.1959 3 41.8335V21.5015H44.9996V41.8335C44.9996 42.1959 44.7058 42.4897 44.3434 42.4897Z" fill="#7FF0F7"/>
<path d="M45.0006 21.5015V23.4331H7.72659C7.65028 23.4331 7.575 23.436 7.50056 23.4427C6.00553 23.5577 4.82916 24.8064 4.82916 26.3304V42.4901H3.65625C3.29381 42.4901 3 42.1963 3 41.8339V21.5015H45.0006Z" fill="#00E1F0"/>
<path d="M11.9996 21.4897V23.4329L9.74981 24.3704C9.74981 24.3704 7.57434 23.4358 7.5 23.4426V21.4897H11.9996Z" fill="#02CFE0"/>
<path d="M40.4996 21.4897V23.4329L38.2498 24.3704L36 23.4329V21.4897H40.4996Z" fill="#02CFE0"/>
<path d="M7.5 42.4892H12V37.1455C12 36.7831 11.7062 36.4893 11.3438 36.4893H8.15625C7.79381 36.4893 7.5 36.7831 7.5 37.1455V42.4892Z" fill="#00E1F0"/>
<path d="M36 42.4892H40.5V37.1455C40.5 36.7831 40.2062 36.4893 39.8438 36.4893H36.6562C36.2938 36.4893 36 36.7831 36 37.1455V42.4892Z" fill="#00E1F0"/>
<path d="M47.9996 21.5014H0V10.1577C0 9.79528 0.293813 9.50146 0.65625 9.50146H47.3434C47.7058 9.50146 47.9996 9.79528 47.9996 10.1577V21.5014Z" fill="#F2FBFF"/>
<path d="M4.82897 9.50146V21.5015H0V10.1577C0 9.79528 0.293813 9.50146 0.65625 9.50146H4.82897Z" fill="#DFF6FD"/>
<path d="M44.9961 12.5054V18.4981H3.00359V12.5054H44.9961Z" fill="#0065FF"/>
<path d="M3.00391 12.5049H4.82922V18.4977H3.00391V12.5049Z" fill="#003CBF"/>
<path d="M23.9999 39.5013C28.142 39.5013 31.4998 36.1435 31.4998 32.0014C31.4998 27.8593 28.142 24.5015 23.9999 24.5015C19.8578 24.5015 16.5 27.8593 16.5 32.0014C16.5 36.1435 19.8578 39.5013 23.9999 39.5013Z" fill="#0065FF"/>
<path d="M27.8438 30.5015H26.1562C25.7938 30.5015 25.5 30.2077 25.5 29.8452V28.1577C25.5 27.7953 25.2062 27.5015 24.8438 27.5015H23.1562C22.7938 27.5015 22.5 27.7953 22.5 28.1577V29.8452C22.5 30.2077 22.2062 30.5015 21.8438 30.5015H20.1562C19.7938 30.5015 19.5 30.7953 19.5 31.1577V32.8452C19.5 33.2077 19.7938 33.5015 20.1562 33.5015H21.8438C22.2062 33.5015 22.5 33.7953 22.5 34.1577V35.8452C22.5 36.2077 22.7938 36.5015 23.1562 36.5015H24.8438C25.2062 36.5015 25.5 36.2077 25.5 35.8452V34.1577C25.5 33.7953 25.7938 33.5015 26.1562 33.5015H27.8438C28.2062 33.5015 28.5 33.2077 28.5 32.8452V31.1577C28.5 30.7953 28.2062 30.5015 27.8438 30.5015Z" fill="#F2FBFF"/>
<path d="M40.4996 23.4331V26.8332C40.4996 27.1957 40.2058 27.4895 39.8434 27.4895H36.6563C36.2938 27.4895 36 27.1957 36 26.8332V23.4331H40.4996Z" fill="#00E1F0"/>
<path d="M11.9996 23.4331V26.8332C11.9996 27.1957 11.7058 27.4895 11.3434 27.4895H8.15625C7.79381 27.4895 7.5 27.1957 7.5 26.8332V23.4428C7.57434 23.436 7.64972 23.4331 7.72603 23.4331H11.9996Z" fill="#00E1F0"/>
</svg>
