<svg width="22" height="22" viewBox="0 0 22 22" fill="none" xmlns="http://www.w3.org/2000/svg">
<path d="M20.2904 1.69617C18.0279 -0.565063 14.3478 -0.565063 12.0853 1.69617L7.30176 6.47971L12.7327 11.9107C13.8505 10.9799 15.2677 10.397 16.8325 10.397C17.73 10.397 18.5841 10.5835 19.3612 10.9164L20.2904 9.90131C22.5522 7.63943 22.5522 3.95869 20.2904 1.69617Z" fill="#0CBCE3"/>
<path d="M11.8294 12.8296L6.39086 7.39111L1.70907 12.0775C-0.552763 14.3393 -0.552763 18.0201 1.70907 20.2826C3.9715 22.5437 7.69462 22.5868 9.95714 20.3255L10.9062 19.3719C10.5733 18.5947 10.3869 17.7407 10.3869 16.8431C10.3869 15.3185 10.9412 13.9345 11.8294 12.8296Z" fill="#0CBCE3"/>
<path d="M11.6748 16.8435C11.6748 19.4708 13.6468 21.6149 16.1872 21.9354V11.7515C13.6468 12.072 11.6748 14.2161 11.6748 16.8435Z" fill="#0CBCE3"/>
<path d="M17.4756 11.7515V21.9354C20.016 21.6149 21.9879 19.4708 21.9879 16.8434C21.9879 14.2161 20.016 12.072 17.4756 11.7515Z" fill="#0CBCE3"/>
</svg>
