<svg width="14" height="14" viewBox="0 0 14 14" fill="none" xmlns="http://www.w3.org/2000/svg">
<path fill-rule="evenodd" clip-rule="evenodd" d="M6.85449 9.4235C6.61299 9.4235 6.41699 9.2275 6.41699 8.986V4.71191C6.41699 4.47041 6.61299 4.27441 6.85449 4.27441C7.09599 4.27441 7.29199 4.47041 7.29199 4.71191V8.986C7.29199 9.2275 7.09599 9.4235 6.85449 9.4235" fill="#2AA3BF"/>
<path fill-rule="evenodd" clip-rule="evenodd" d="M8.99292 7.28613H4.71533C4.47325 7.28613 4.27783 7.09013 4.27783 6.84863C4.27783 6.60713 4.47325 6.41113 4.71533 6.41113H8.99292C9.23442 6.41113 9.43042 6.60713 9.43042 6.84863C9.43042 7.09013 9.23442 7.28613 8.99292 7.28613" fill="#2AA3BF"/>
<path fill-rule="evenodd" clip-rule="evenodd" d="M4.12083 1.4585C2.50383 1.4585 1.4585 2.56508 1.4585 4.27891V9.42975C1.4585 11.1436 2.50383 12.2502 4.12083 12.2502H9.58783C11.2054 12.2502 12.2502 11.1436 12.2502 9.42975V4.27891C12.2502 2.56508 11.2054 1.4585 9.58783 1.4585H4.12083ZM9.58783 13.1252H4.12083C2.00508 13.1252 0.583496 11.64 0.583496 9.42975V4.27891C0.583496 2.06866 2.00508 0.583496 4.12083 0.583496H9.58783C11.7036 0.583496 13.1252 2.06866 13.1252 4.27891V9.42975C13.1252 11.64 11.7036 13.1252 9.58783 13.1252V13.1252Z" fill="#2AA3BF"/>
</svg>
