<svg width="18" height="20" viewBox="0 0 18 20" fill="none" xmlns="http://www.w3.org/2000/svg">
<path d="M4.22368 13.9676L2.09702 15.7261C-0.897659 12.1514 -0.658953 6.96937 2.64677 3.67568C5.28701 1.04505 9.23653 0.353153 12.6218 1.84504L13.7286 0L13.7503 0.0144142L13.8443 4.20901L10.0901 6.0973L10.0756 6.08288L11.1896 4.23063C8.92548 3.37297 6.35034 3.88468 4.59983 5.62883C2.31403 7.90631 2.14766 11.4883 4.22368 13.9676ZM13.3958 14.3856C11.6525 16.1225 9.07739 16.6414 6.80606 15.7838L7.92002 13.9243L7.89832 13.9171L4.15135 15.7982L4.25262 19.9928L4.27432 20L5.38105 18.1622C8.76635 19.6541 12.7159 18.9622 15.3561 16.3315C18.6618 13.0378 18.8933 7.85586 15.9058 4.28108L13.772 6.04685C15.848 8.51892 15.6816 12.1009 13.3958 14.3856Z" fill="white"/>
</svg>
