<svg width="11" height="12" viewBox="0 0 11 12" fill="none" xmlns="http://www.w3.org/2000/svg">
<path d="M6.5625 1.94531C6.43313 1.94531 6.32812 2.05031 6.32812 2.17969C6.32812 2.30906 6.43313 2.41406 6.5625 2.41406C6.69188 2.41406 6.79688 2.30906 6.79688 2.17969C6.79688 2.05031 6.69188 1.94531 6.5625 1.94531Z" fill="black"/>
<path d="M4.21875 1.94531C4.08938 1.94531 3.98438 2.05031 3.98438 2.17969C3.98438 2.30906 4.08938 2.41406 4.21875 2.41406C4.34813 2.41406 4.45313 2.30906 4.45313 2.17969C4.45313 2.05031 4.34813 1.94531 4.21875 1.94531Z" fill="black"/>
<path d="M10.4794 7.00505C10.6806 6.70312 10.7813 6.32641 10.7813 6C10.7813 5.50791 10.5626 5.05071 10.1875 4.74068C10.2705 4.5423 10.3125 4.33598 10.3125 4.125C10.3125 3.47215 9.9315 2.86399 9.36504 2.58C9.45098 1.86717 8.9865 1.21378 8.29816 1.04712C8.02875 0.424312 7.4291 0 6.79688 0C6.20836 0 5.68052 0.343266 5.39063 0.844125C5.1007 0.343266 4.57287 0 3.98438 0C3.3521 0 2.75245 0.424313 2.48309 1.04714C1.79063 1.21486 1.3305 1.87151 1.41621 2.58C0.849774 2.86397 0.46875 3.47215 0.46875 4.125C0.46875 4.33598 0.510703 4.5423 0.593719 4.74068C0.218602 5.05073 0 5.50791 0 6C0 6.32812 0.101484 6.70434 0.301805 7.00502C0.106055 7.28135 0 7.60884 0 7.94531C0 8.38163 0.176906 8.79727 0.48982 9.10589C0.328945 10.0784 1.10449 11.0625 2.10938 11.0625C2.11664 11.0625 2.12379 11.0624 2.1308 11.0622C2.46396 11.6369 3.08238 12 3.75 12C4.44581 12 5.06756 11.5823 5.39063 10.9806C5.71369 11.5823 6.33544 12 7.03125 12C7.69887 12 8.31729 11.6369 8.65045 11.0622C8.65749 11.0624 8.66461 11.0625 8.67188 11.0625C9.56119 11.0625 10.3125 10.279 10.3125 9.35156C10.3125 9.2726 10.3056 9.19139 10.2914 9.10589C10.6043 8.79727 10.7813 8.38165 10.7813 7.94531C10.7813 7.60884 10.6752 7.28135 10.4794 7.00505ZM5.15625 3.54799C5.01825 3.46795 4.8582 3.42188 4.6875 3.42188C4.55805 3.42188 4.45313 3.5268 4.45313 3.65625C4.45313 3.7857 4.55805 3.89062 4.6875 3.89062C4.94597 3.89062 5.15625 4.10091 5.15625 4.35938V8.81646C4.8124 8.42644 4.30962 8.17969 3.75 8.17969C3.62055 8.17969 3.51563 8.28462 3.51563 8.41406C3.51563 8.54351 3.62055 8.64844 3.75 8.64844C4.52541 8.64844 5.15625 9.27928 5.15625 10.0547C5.15625 10.8551 4.51226 11.5312 3.75 11.5312C3.20738 11.5312 2.70785 11.2104 2.47737 10.7137C2.43488 10.6222 2.33864 10.5683 2.2383 10.5795C2.22173 10.5814 2.20526 10.5836 2.18878 10.5859C1.52175 10.6771 0.770578 9.9218 0.973922 9.07683C0.994805 8.99004 0.96457 8.89896 0.895969 8.84187C0.624469 8.61595 0.46875 8.28916 0.46875 7.94531C0.46875 7.73271 0.528867 7.52466 0.640734 7.34222C0.921844 7.57261 1.27151 7.71094 1.64063 7.71094C1.77007 7.71094 1.875 7.60601 1.875 7.47656C1.875 7.34712 1.77007 7.24219 1.64063 7.24219C1.00455 7.24219 0.46875 6.66164 0.46875 6C0.46875 5.59863 0.673336 5.2294 1.01606 5.0123C1.12165 4.94541 1.15617 4.80743 1.09451 4.6987C0.990328 4.51498 0.9375 4.32195 0.9375 4.125C0.9375 3.49242 1.45317 2.88281 2.10938 2.88281C2.73366 2.88281 3.28125 3.46329 3.28125 4.125C3.28125 4.25445 3.38618 4.35938 3.51563 4.35938C3.64507 4.35938 3.75 4.25445 3.75 4.125C3.75 3.19758 2.99869 2.41406 2.10938 2.41406C2.03091 2.41406 1.95286 2.42041 1.87559 2.43244C1.87547 2.42627 1.875 2.42027 1.875 2.41406C1.875 1.89101 2.29962 1.47656 2.8125 1.47656C3.06286 1.47656 3.29836 1.57409 3.47559 1.75113C3.56716 1.84261 3.71555 1.84252 3.80705 1.75097C3.89852 1.65937 3.89845 1.51099 3.80688 1.41952C3.59306 1.20593 3.32262 1.06971 3.02953 1.02457C3.23623 0.71775 3.57994 0.46875 3.98438 0.46875C4.60866 0.46875 5.15625 1.0492 5.15625 1.71094V3.54799ZM9.14063 7.71094C9.50977 7.71094 9.85943 7.57259 10.1405 7.34229C10.2524 7.5247 10.3125 7.73273 10.3125 7.94531C10.3125 8.28916 10.1568 8.61595 9.88531 8.84187C9.81668 8.89896 9.78647 8.99006 9.80735 9.07683C9.8322 9.18002 9.84375 9.26733 9.84375 9.35154C9.84375 10.079 9.18574 10.667 8.59249 10.5859C8.57602 10.5836 8.55952 10.5814 8.54295 10.5795C8.44247 10.5682 8.34635 10.6222 8.30391 10.7137C8.07342 11.2104 7.57385 11.5312 7.03125 11.5312C6.26899 11.5312 5.625 10.8551 5.625 10.0547C5.625 9.27928 6.25584 8.64844 7.03125 8.64844C7.16067 8.64844 7.26563 8.54351 7.26563 8.41406C7.26563 8.28462 7.16067 8.17969 7.03125 8.17969C6.47163 8.17969 5.96885 8.42644 5.625 8.81646V4.35938C5.625 4.10091 5.83528 3.89062 6.09375 3.89062C6.22317 3.89062 6.32813 3.7857 6.32813 3.65625C6.32813 3.5268 6.22317 3.42188 6.09375 3.42188C5.92306 3.42188 5.763 3.46795 5.625 3.54799V1.71094C5.625 1.0492 6.17259 0.46875 6.79688 0.46875C7.20131 0.46875 7.545 0.71775 7.7517 1.02455C7.45863 1.06969 7.18821 1.20591 6.97437 1.41949C6.88277 1.51097 6.88268 1.65935 6.97416 1.75095C7.06563 1.84254 7.21406 1.84261 7.30561 1.75113C7.48291 1.57409 7.71839 1.47656 7.96875 1.47656C8.48421 1.47656 8.90625 1.89345 8.90625 2.41406C8.90625 2.42025 8.90578 2.42627 8.90566 2.43244C8.82839 2.42041 8.75034 2.41406 8.67188 2.41406C7.78256 2.41406 7.03125 3.19758 7.03125 4.125C7.03125 4.25445 7.1362 4.35938 7.26563 4.35938C7.39505 4.35938 7.5 4.25445 7.5 4.125C7.5 3.46329 8.04759 2.88281 8.67188 2.88281C9.3277 2.88281 9.84375 3.49212 9.84375 4.125C9.84375 4.32195 9.79092 4.51498 9.68674 4.6987C9.6251 4.80743 9.65963 4.94541 9.76521 5.0123C10.1079 5.2294 10.3125 5.59863 10.3125 6C10.3125 6.66401 9.77482 7.24219 9.14063 7.24219C9.0112 7.24219 8.90625 7.34712 8.90625 7.47656C8.90625 7.60601 9.0112 7.71094 9.14063 7.71094Z" fill="black"/>
<path d="M4.6278 5.01687C4.54151 4.9204 4.39336 4.91215 4.29687 4.99845C3.54527 5.67075 2.34375 5.13345 2.34375 4.125C2.34375 3.99555 2.23882 3.89062 2.10938 3.89062C1.97993 3.89062 1.875 3.99555 1.875 4.125C1.875 4.93863 2.47048 5.61551 3.24844 5.74352C3.1582 6.02777 2.89186 6.23438 2.57812 6.23438C2.44868 6.23438 2.34375 6.3393 2.34375 6.46875C2.34375 6.5982 2.44868 6.70313 2.57812 6.70313C3.14899 6.70313 3.62555 6.29273 3.72895 5.75152C4.0549 5.70888 4.36167 5.56941 4.60938 5.3478C4.70585 5.26151 4.7141 5.11334 4.6278 5.01687Z" fill="black"/>
<path d="M2.10938 9.11719C1.97993 9.11719 1.875 9.22212 1.875 9.35156C1.875 9.48101 1.97993 9.58594 2.10938 9.58594C2.73366 9.58594 3.28125 10.1664 3.28125 10.8281C3.28125 10.9576 3.38618 11.0625 3.51563 11.0625C3.64507 11.0625 3.75 10.9576 3.75 10.8281C3.75 9.9007 2.99869 9.11719 2.10938 9.11719Z" fill="black"/>
<path d="M3.98432 7.24219C3.19012 7.24219 2.50823 7.67777 2.14917 8.31113C2.08535 8.42374 2.12488 8.56678 2.23748 8.6306C2.3501 8.69442 2.49311 8.65491 2.55695 8.54229C2.83668 8.04879 3.36745 7.71094 3.98432 7.71094C4.11377 7.71094 4.2187 7.60601 4.2187 7.47656C4.2187 7.34712 4.11377 7.24219 3.98432 7.24219Z" fill="black"/>
<path d="M8.20313 6.23438C7.8894 6.23438 7.62305 6.02777 7.53282 5.74352C8.31078 5.61551 8.90626 4.93863 8.90626 4.125C8.90626 3.99555 8.8013 3.89062 8.67188 3.89062C8.54246 3.89062 8.43751 3.99555 8.43751 4.125C8.43751 4.77117 7.9118 5.29688 7.26563 5.29688C6.97697 5.29688 6.69954 5.19089 6.48439 4.99845C6.38794 4.91215 6.23975 4.92037 6.15345 5.01687C6.06713 5.11334 6.0754 5.26151 6.17187 5.3478C6.41958 5.56941 6.72638 5.70888 7.0523 5.75152C7.15571 6.29273 7.63226 6.70313 8.20313 6.70313C8.33255 6.70313 8.43751 6.5982 8.43751 6.46875C8.43751 6.3393 8.33255 6.23438 8.20313 6.23438Z" fill="black"/>
<path d="M8.67236 9.11719C7.78305 9.11719 7.03174 9.9007 7.03174 10.8281C7.03174 10.9576 7.13669 11.0625 7.26611 11.0625C7.39554 11.0625 7.50049 10.9576 7.50049 10.8281C7.50049 10.1664 8.04808 9.58594 8.67236 9.58594C8.80179 9.58594 8.90674 9.48101 8.90674 9.35156C8.90674 9.22212 8.80179 9.11719 8.67236 9.11719Z" fill="black"/>
<path d="M8.63203 8.31115C8.27386 7.6793 7.59291 7.24219 6.79688 7.24219C6.66745 7.24219 6.5625 7.34712 6.5625 7.47656C6.5625 7.60601 6.66745 7.71094 6.79688 7.71094C7.4133 7.71094 7.94447 8.0487 8.2242 8.54229C8.28811 8.65505 8.43124 8.69437 8.54367 8.63062C8.65629 8.5668 8.69583 8.42377 8.63203 8.31115Z" fill="black"/>
</svg>
