<svg width="10" height="10" viewBox="0 0 10 10" fill="none" xmlns="http://www.w3.org/2000/svg">
<path fill-rule="evenodd" clip-rule="evenodd" d="M5 0.75C2.6565 0.75 0.75 2.6565 0.75 5C0.75 7.3435 2.6565 9.25 5 9.25C7.3435 9.25 9.25 7.3435 9.25 5C9.25 2.6565 7.3435 0.75 5 0.75M5 10C2.243 10 0 7.757 0 5C0 2.243 2.243 0 5 0C7.757 0 10 2.243 10 5C10 7.757 7.757 10 5 10" fill="#C7C7C7"/>
<path fill-rule="evenodd" clip-rule="evenodd" d="M6.71605 6.84635C6.65055 6.84635 6.58456 6.82935 6.52406 6.79385L4.63905 5.66935C4.52605 5.60135 4.45605 5.47885 4.45605 5.34685V2.92285C4.45605 2.71585 4.62405 2.54785 4.83105 2.54785C5.03855 2.54785 5.20605 2.71585 5.20605 2.92285V5.13385L6.90856 6.14885C7.08606 6.25535 7.14455 6.48535 7.03855 6.66335C6.96805 6.78085 6.84355 6.84635 6.71605 6.84635" fill="#C7C7C7"/>
</svg>
