<svg width="24" height="20" viewBox="0 0 24 20" fill="none" xmlns="http://www.w3.org/2000/svg">
<path d="M3.80819 11.1677H7.86865V10.0513C7.86865 7.17463 10.2515 4.83408 13.1803 4.83408H15.2456V4.16067C15.2456 1.86647 13.3453 0 11.0099 0H4.23592C1.90023 0.000261924 0 1.86674 0 4.16093V14.5609L3.21114 11.41C3.36953 11.2538 3.5818 11.1677 3.80819 11.1677Z" fill="#404864"/>
<path d="M9.13574 10.0522V12.8957C9.13574 15.0864 10.9504 16.8688 13.1807 16.8688H20.3825C20.659 16.8688 20.9195 16.9746 21.1152 17.1666L24 20.0001V10.0522C24 7.8615 22.1854 6.0791 19.9553 6.0791H13.1807C10.9501 6.0791 9.13574 7.8615 9.13574 10.0522Z" fill="#404864"/>
</svg>
