<svg width="18" height="14" viewBox="0 0 18 14" fill="none" xmlns="http://www.w3.org/2000/svg">
<path fill-rule="evenodd" clip-rule="evenodd" d="M12.4054 4.04221C12.4054 5.84073 10.9716 7.28286 9.18347 7.28286C7.39534 7.28286 5.96155 5.84073 5.96155 4.04221C5.96155 2.24299 7.39534 0.802246 9.18347 0.802246C10.9716 0.802246 12.4054 2.24299 12.4054 4.04221ZM9.18347 13.0492C6.55714 13.0492 4.3146 12.6328 4.3146 10.9673C4.3146 9.30115 6.54274 8.86961 9.18347 8.86961C11.8098 8.86961 14.0523 9.28598 14.0523 10.9521C14.0523 12.6176 11.8242 13.0492 9.18347 13.0492ZM13.7822 4.10066C13.7822 5.0175 13.5088 5.87161 13.029 6.58165C12.9797 6.65472 13.0235 6.75329 13.1106 6.76846C13.2305 6.78914 13.3546 6.80086 13.4807 6.80431C14.7383 6.8374 15.8671 6.02327 16.179 4.7976C16.6409 2.97702 15.2846 1.34256 13.5574 1.34256C13.3696 1.34256 13.1901 1.36255 13.0153 1.3984C12.9913 1.40391 12.966 1.41494 12.9523 1.43631C12.9358 1.46251 12.9481 1.49767 12.9646 1.52041C13.4834 2.25182 13.7822 3.14384 13.7822 4.10066ZM15.8651 8.08347C16.7101 8.24961 17.266 8.58877 17.4963 9.08166C17.6909 9.48631 17.6909 9.95576 17.4963 10.3597C17.144 11.1242 16.0083 11.3696 15.5669 11.433C15.4758 11.4468 15.4025 11.3676 15.412 11.2759C15.6375 9.15749 13.8439 8.1531 13.3799 7.92216C13.3601 7.91182 13.3559 7.89597 13.358 7.88632C13.3594 7.87942 13.3676 7.86839 13.3827 7.86633C14.3867 7.84771 15.4662 7.98558 15.8651 8.08347ZM4.96447 6.80424C5.09058 6.80079 5.21395 6.78976 5.33457 6.76839C5.42161 6.75323 5.46548 6.65465 5.41613 6.58158C4.93637 5.87154 4.66291 5.01744 4.66291 4.10059C4.66291 3.14377 4.96173 2.25175 5.48056 1.52035C5.497 1.4976 5.50866 1.46244 5.49289 1.43624C5.47919 1.41556 5.45314 1.40384 5.42984 1.39833C5.25438 1.36248 5.07482 1.34249 4.88703 1.34249C3.15989 1.34249 1.80355 2.97695 2.26617 4.79753C2.57801 6.0232 3.70682 6.83733 4.96447 6.80424ZM5.08681 7.8859C5.08887 7.89624 5.08475 7.91141 5.06556 7.92244C4.60088 8.15337 2.80727 9.15776 3.03276 11.2755C3.04235 11.3678 2.9697 11.4464 2.87855 11.4333C2.43717 11.3699 1.30151 11.1245 0.949232 10.36C0.753902 9.95534 0.753902 9.48658 0.949232 9.08193C1.17952 8.58904 1.73467 8.24988 2.57973 8.08306C2.9793 7.98586 4.05807 7.84799 5.06282 7.8666C5.0779 7.86867 5.08544 7.8797 5.08681 7.8859Z" fill="url(#paint0_linear_33506_495)"/>
<defs>
<linearGradient id="paint0_linear_33506_495" x1="1.05533" y1="1.82282" x2="17.524" y2="2.49978" gradientUnits="userSpaceOnUse">
<stop stop-color="#1FA0BD"/>
<stop offset="1" stop-color="#5FD8F3"/>
</linearGradient>
</defs>
</svg>
