<svg width="28" height="28" viewBox="0 0 28 28" fill="none" xmlns="http://www.w3.org/2000/svg">
<path fill-rule="evenodd" clip-rule="evenodd" d="M7.13204 5.25H13.8894C16.7151 5.25 18.688 7.19721 18.688 9.98773V18.0123C18.688 20.8028 16.7151 22.75 13.8894 22.75H7.13204C4.30635 22.75 2.3335 20.8028 2.3335 18.0123V9.98773C2.3335 7.19721 4.30635 5.25 7.13204 5.25ZM23.2845 8.02548C23.7966 7.76491 24.3975 7.79215 24.8863 8.1001C25.3752 8.40687 25.6668 8.93986 25.6668 9.52261V18.4781C25.6668 19.062 25.3752 19.5938 24.8863 19.9006C24.6192 20.0676 24.3205 20.1529 24.0195 20.1529C23.7686 20.1529 23.5178 20.0937 23.2833 19.974L21.5555 19.1023C20.9161 18.7778 20.5194 18.1263 20.5194 17.4026V10.5969C20.5194 9.87201 20.9161 9.22057 21.5555 8.89841L23.2845 8.02548Z" fill="#1FA0BD"/>
</svg>
