<svg width="25" height="16" viewBox="0 0 25 16" fill="none" xmlns="http://www.w3.org/2000/svg">
<path d="M24.0531 0H0.635576C0.28413 0 0 0.284567 0 0.635576V15.3644C0 15.7154 0.28413 16 0.635576 16H24.0531C24.4046 16 24.6887 15.7154 24.6887 15.3644V0.635576C24.6887 0.284567 24.4046 0 24.0531 0ZM1.91154 4.83501H4.54651C4.90189 4.84856 5.18821 4.96178 5.287 5.34164L5.86007 8.0977C5.29705 6.65607 3.94022 5.4566 1.88968 4.96003L1.91154 4.83501ZM5.09991 11.1208L3.57785 5.92083C4.67197 6.6211 5.60391 7.73226 5.93219 8.50553L6.10966 9.14767L7.77423 4.8949H9.57517L6.89867 11.1195L5.09991 11.1208ZM10.8988 11.1252H9.19925L10.2619 4.88834H11.9623L10.8988 11.1252ZM13.8563 11.2188C13.0944 11.2109 12.3605 11.0601 11.9627 10.8857L12.2018 9.48993L12.4208 9.58916C12.979 9.82215 13.3405 9.91656 14.0211 9.91656C14.5094 9.91656 15.0326 9.72554 15.0375 9.30765C15.0405 9.03445 14.8185 8.83949 14.1567 8.53351C13.5115 8.23539 12.6573 7.73532 12.6678 6.83966C12.677 5.62752 13.8607 4.78168 15.5406 4.78168C16.1989 4.78168 16.7265 4.91719 17.0631 5.04352L16.8336 6.39554L16.6802 6.32342C16.3672 6.19753 15.9646 6.076 15.4081 6.08475C14.7428 6.08475 14.4342 6.36188 14.4342 6.6211C14.4307 6.91309 14.7944 7.10543 15.3889 7.3948C16.3694 7.83979 16.8227 8.37964 16.8165 9.08909C16.8034 10.383 15.6437 11.2188 13.8563 11.2188ZM21.2219 11.1278C21.2219 11.1278 21.0667 10.4109 21.0151 10.1933C20.7677 10.1933 19.0332 10.1906 18.8382 10.1906C18.7722 10.3589 18.4811 11.1278 18.4811 11.1278H16.6963L19.2198 5.41245C19.3991 5.00637 19.7029 4.8949 20.1103 4.8949H21.4234L22.799 11.1274L21.2219 11.1278Z" fill="#1FA0BD"/>
<path d="M20.3445 7.11481L20.23 6.57715C20.1434 6.81188 19.9944 7.18912 20.004 7.17251C20.004 7.17251 19.4668 8.55688 19.3269 8.91575H20.7384C20.6702 8.60321 20.3445 7.11481 20.3445 7.11481Z" fill="#3368F1"/>
</svg>
