<svg width="41" height="13" viewBox="0 0 41 13" fill="none" xmlns="http://www.w3.org/2000/svg">
<path fill-rule="evenodd" clip-rule="evenodd" d="M16.863 0.206055L14.8179 12.2073H18.0886L20.1352 0.206055H16.863Z" fill="white"/>
<path fill-rule="evenodd" clip-rule="evenodd" d="M12.077 0.219172L8.87363 8.40345L8.53159 7.16833C7.89978 5.67905 6.10647 3.54055 4.00122 2.193L6.92989 12.2015L10.3906 12.1951L15.5417 0.216797L12.077 0.219172Z" fill="white"/>
<path fill-rule="evenodd" clip-rule="evenodd" d="M7.2897 1.07864C7.09969 0.347862 6.54863 0.130132 5.86456 0.104004H0.793427L0.751465 0.34232C4.69753 1.29954 7.30871 3.60669 8.39261 6.38018L7.2897 1.07864Z" fill="white"/>
<path fill-rule="evenodd" clip-rule="evenodd" d="M26.765 2.50667C27.8347 2.49004 28.6106 2.72361 29.2131 2.96588L29.5084 3.10523L29.951 0.503551C29.3026 0.260484 28.2876 0 27.0208 0C23.7889 0 21.511 1.62783 21.4928 3.96031C21.4722 5.68395 23.1159 6.64671 24.3573 7.22073C25.632 7.80978 26.0588 8.18428 26.0533 8.71C26.043 9.51362 25.0374 9.88178 24.0976 9.88178C22.7873 9.88178 22.0921 9.70127 21.0177 9.25393L20.5965 9.06154L20.1357 11.7479C20.9014 12.0836 22.3138 12.3718 23.7802 12.3869C27.2187 12.3869 29.453 10.7788 29.476 8.28642C29.4902 6.92224 28.6185 5.88188 26.7278 5.02838C25.5837 4.47099 24.8838 4.10125 24.891 3.53911C24.891 3.04031 25.4848 2.50667 26.765 2.50667Z" fill="white"/>
<path fill-rule="evenodd" clip-rule="evenodd" d="M35.8172 0.219238H38.3445L40.9913 12.2134H37.9565C37.9565 12.2134 37.6557 10.835 37.5583 10.4161C37.3065 10.4161 36.2535 10.4146 35.2614 10.413C34.3794 10.4122 33.5465 10.4114 33.3691 10.4114C33.2425 10.7352 32.6819 12.2134 32.6819 12.2134H29.2473L34.1039 1.21525C34.4491 0.43301 35.0326 0.219238 35.8172 0.219238ZM35.6138 4.60061C35.6138 4.60061 34.5798 7.26562 34.3106 7.95444H37.0279L36.2702 4.48976L36.0501 3.45495C35.967 3.67585 35.8569 3.96246 35.7674 4.19365C35.6748 4.43592 35.6051 4.61723 35.6138 4.60061Z" fill="white"/>
</svg>
