<svg width="22" height="23" viewBox="0 0 22 23" fill="none" xmlns="http://www.w3.org/2000/svg">
<path d="M20.8748 8.07181C20.8748 8.07181 14.7042 8.07181 12.667 8.07181C12.5012 8.07181 12.5072 7.90009 12.5072 7.90009V4.1219C12.5072 3.50008 12.0038 2.99673 11.382 2.99673C11.382 2.99673 10.1621 2.99673 9.75347 2.99673C9.54029 2.99673 9.56992 2.83091 9.56992 2.83091V1.63469C9.56992 1.01288 9.06656 0.509521 8.44475 0.509521H4.06242C3.44061 0.509521 2.93725 1.01288 2.93725 1.63469V2.80723C2.93725 2.80723 2.97278 2.99673 2.72407 2.99673C2.33912 2.99673 1.12517 2.99673 1.12517 2.99673C0.503357 2.99673 0 3.50008 0 4.1219V21.2244C0 21.8462 0.503357 22.3496 1.12517 22.3496H20.8748C21.4966 22.3496 22 21.8462 22 21.2244V9.19698C22 8.57517 21.4907 8.07181 20.8748 8.07181ZM4.93299 2.75986H5.55481C5.55481 2.75986 5.691 2.76581 5.691 2.62956C5.691 2.46969 5.691 1.99591 5.691 1.99591C5.691 1.68795 5.93971 1.44519 6.24172 1.44519C6.54968 1.44519 6.79244 1.6939 6.79244 1.99591C6.79244 1.99591 6.79244 2.50521 6.79244 2.67103C6.79244 2.75986 6.9109 2.75392 6.9109 2.75392H7.56229C7.87025 2.75392 8.11301 3.00262 8.11301 3.30464C8.11301 3.6126 7.8643 3.85536 7.56229 3.85536H6.94047C6.94047 3.85536 6.80428 3.85536 6.80428 3.96787C6.80428 4.13369 6.80428 4.61926 6.80428 4.61926C6.80428 4.92722 6.55557 5.16998 6.25356 5.16998C5.9456 5.16998 5.70284 4.92127 5.70284 4.61926C5.70284 4.61926 5.70284 4.13958 5.70284 3.97376C5.70284 3.84347 5.58438 3.85531 5.58438 3.85531H4.94483C4.63687 3.85531 4.39411 3.6066 4.39411 3.30459C4.38222 3.00857 4.63093 2.75986 4.93299 2.75986ZM2.05489 6.83413C2.05489 6.66831 2.18519 6.53801 2.35101 6.53801H4.87374C5.03956 6.53801 5.16986 6.66831 5.16986 6.83413V8.18432C5.16986 8.35014 5.03956 8.48044 4.87374 8.48044H2.35101C2.18519 8.48044 2.05489 8.35014 2.05489 8.18432V6.83413ZM2.05489 13.2417V11.8915C2.05489 11.7257 2.18519 11.5954 2.35101 11.5954H4.87374C5.03956 11.5954 5.16986 11.7257 5.16986 11.8915V13.2417C5.16986 13.4075 5.03956 13.5378 4.87374 13.5378H2.35101C2.18519 13.5377 2.05489 13.4015 2.05489 13.2417ZM7.94724 20.4072C7.94724 20.573 7.81694 20.7033 7.65112 20.7033H4.85006C4.68424 20.7033 4.55394 20.573 4.55394 20.4072V16.3033C4.55394 16.1375 4.68424 16.0072 4.85006 16.0072H7.65112C7.81694 16.0072 7.94724 16.1375 7.94724 16.3033V20.4072ZM10.4463 13.2417C10.4463 13.4075 10.316 13.5378 10.1502 13.5378H7.62744C7.46162 13.5378 7.33132 13.4075 7.33132 13.2417V11.8915C7.33132 11.7257 7.46162 11.5954 7.62744 11.5954H10.1502C10.316 11.5954 10.4463 11.7257 10.4463 11.8915V13.2417ZM10.4463 8.18432C10.4463 8.35014 10.316 8.48044 10.1502 8.48044H7.62744C7.46162 8.48044 7.33132 8.35014 7.33132 8.18432V6.83413C7.33132 6.66831 7.46162 6.53801 7.62744 6.53801H10.1502C10.316 6.53801 10.4463 6.66831 10.4463 6.83413V8.18432ZM15.9122 17.6476C15.9122 17.8134 15.7819 17.9437 15.6161 17.9437H13.0934C12.9275 17.9437 12.7972 17.8134 12.7972 17.6476V16.2974C12.7972 16.1316 12.9275 16.0013 13.0934 16.0013H15.6161C15.7819 16.0013 15.9122 16.1316 15.9122 16.2974V17.6476ZM15.9122 12.5902C15.9122 12.756 15.7819 12.8863 15.6161 12.8863H13.0934C12.9275 12.8863 12.7972 12.756 12.7972 12.5902V11.24C12.7972 11.0742 12.9275 10.9439 13.0934 10.9439H15.6161C15.7819 10.9439 15.9122 11.0742 15.9122 11.24V12.5902ZM20.478 17.6476C20.478 17.8134 20.3477 17.9437 20.1819 17.9437H17.6592C17.4934 17.9437 17.3631 17.8134 17.3631 17.6476V16.2974C17.3631 16.1316 17.4934 16.0013 17.6592 16.0013H20.1819C20.3477 16.0013 20.478 16.1316 20.478 16.2974V17.6476ZM20.478 12.5902C20.478 12.756 20.3477 12.8863 20.1819 12.8863H17.6592C17.4934 12.8863 17.3631 12.756 17.3631 12.5902V11.24C17.3631 11.0742 17.4934 10.9439 17.6592 10.9439H20.1819C20.3477 10.9439 20.478 11.0742 20.478 11.24V12.5902Z" fill="#0EA9E1"/>
</svg>
